<mxfile host="app.diagrams.net" agent="Mozilla/5.0 (Windows NT 10.0; Win64; x64) AppleWebKit/537.36 (KHTML, like Gecko) Chrome/136.0.0.0 Safari/537.36" version="27.0.9">
  <diagram name="PÃ¡gina-1" id="FDBMYeF4mpx8u0kfTk5F">
    <mxGraphModel dx="1426" dy="857" grid="1" gridSize="10" guides="1" tooltips="1" connect="1" arrows="1" fold="1" page="1" pageScale="1" pageWidth="1169" pageHeight="827" math="0" shadow="0">
      <root>
        <mxCell id="0" />
        <mxCell id="1" parent="0" />
        <mxCell id="sNEKoTjBMUW5g9Me4UbA-1" value="" style="image;aspect=fixed;html=1;points=[];align=center;fontSize=12;image=img/lib/azure2/databases/SQL_Database.svg;" vertex="1" parent="1">
          <mxGeometry x="120" y="293" width="48" height="64" as="geometry" />
        </mxCell>
        <mxCell id="sNEKoTjBMUW5g9Me4UbA-2" value="" style="image;aspect=fixed;html=1;points=[];align=center;fontSize=12;image=img/lib/azure2/databases/Data_Factory.svg;" vertex="1" parent="1">
          <mxGeometry x="280" y="292" width="68" height="68" as="geometry" />
        </mxCell>
        <mxCell id="sNEKoTjBMUW5g9Me4UbA-3" value="" style="image;aspect=fixed;html=1;points=[];align=center;fontSize=12;image=img/lib/azure2/analytics/Azure_Databricks.svg;" vertex="1" parent="1">
          <mxGeometry x="618.6" y="285" width="62.8" height="68" as="geometry" />
        </mxCell>
        <mxCell id="sNEKoTjBMUW5g9Me4UbA-4" value="" style="shape=image;verticalLabelPosition=bottom;labelBackgroundColor=default;verticalAlign=top;aspect=fixed;imageAspect=0;image=data:image/png,iVBORw0KGgoAAAANSUhEUgAAAooAAAKKCAYAAAC6dHqMAAAACXBIWXMAAAsTAAALEwEAmpwYAAAAIGNIUk0AAHolAACAgwAA+f8AAIDpAAB1MAAA6mAAADqYAAAXb5JfxUYAAHBcSURBVHja7N13nF1lgf/x77l37p1ek0wqqaSQRghIElpAWlCQIkiRMsE1iCvuWlBX7P5cZS2sbUUsiBQXRFkUBQQFBFJooSQhhZCQTNokM5PpM7ed3x/Pc8kkmbSZW8659/N+veYFJGHm5DnPfc73PNVxXVcAAADAvgIUAQAAAAiKAAAAICgCAACAoAgAAACCIgAAAAiKAAAAICgCAACAoAgAAACCIgAAAAiKAAAAICgCAACAoAgAAACCIgAAAEBQBAAAAEERAAAABEUAAAAQFAEAAEBQBAAAAEERAAAABEUAAAAQFAEAAEBQBAAAAEERAAAABEUAAAAQFAEAAACCIgAAAAiKAAAAICgCAACAoAgAAACCIgAAAAiKAAAA8IYCigBJjuNQCPAk13XHSBq7zy+ffoj/p1DS3Axd4quO47Qc4s88vc9/b3Qc550BlguVA0B6swENDQiKyEDQ6x3axvYOfX2FQMdxzsjTcnrqYGHSdd3tjuOsToZTSS3ULgAERRAU4dVgc6ykKvufp9tfGyppiv21WY7jVFNSab0HXZKW9hEsX5W023Xd7kAgsIySwhHWKwoBBEUQFHHQB8UYSWNd153iOM6wXqFwmOM4x1BCvrynGyRttJ/3ZyR125C523Gc1yghEBRBUARBEb0fBvNd1y1yHGeu67qVkmYRBPO6PmyTtFp7eiZflbRb0lLHcXooIYIiCIogKCK3GvtCSXP76BWc6zhOMSWEI6xPT0nqdhxnmeu6ux3HeVXSasdxdlA6BEUQFEFQhIclEok5juNMkRkuni9piuM4wykZZCBUNMv0Pr4qaY1dcEMvJEERBEUQFJGFBnyyzGKRWbaHcApDxfBoXd0gM4z9jOu6qyVtZGENQREERRAUkZqGOrmlzOl2YckUx3HmUTLIgbq93AbI11zXXeo4ztLD2IcSBEUQFEFQzOuGebLMfMI5MnMIj6NUkEf1/02ZFdjLbHBkFTZBEQRFEBTzthHu3VuYDIbsNwjs+Yx0ycxzfIZeR4IiCIogKOZ6ozvGdd25kpKhkCFk4Mg/R/Q6EhRBUARBMWeC4QJJ8yWdzupjIC2fsy6ZM7QfdxznMcdx1lAqBEUQFEFQ9GKjWikzjHyupAWO44yjVICMfw63SXrMnjrzGPs7EhRBUARBMZsN6XwbDE9nKBnw5Gf0zX2CI/s6EhRBUARBMW0N57Gu654uKRkOOdkE8Ndn+CnHcR53Xfdp9nMkKIKgCIJiKhrLC13XvVBmOJl5hkDufLabJT0m6WHHcf6P3kaCIgiKICgeaTi8iC1rgLz4zHdJ+j9CI0ERBEUQFAmHAAiNBEUQFEFQJBzmo63Nq9QVzc6+zMWhSo2onspNIDQSFEFQBEGRcIhUWd+w5N1/39W2UpH43kGvI7pSCbd173uZaFNBcJcv/n7RRLkCzuB9KmOhygtn7/VLAadQwyqPf/e/Rw+arVCwkApCaCQogqAIgmIaG7wxruveIKmOBSnp19q1Uzvb3pIkNbS+pliiQ5LUGduoeGKbJCmRaFYouJvC6mfYDDgVKg1Ne/f3RlSdJEmqLjlKNWWjKKz0tynNkv7XcZwf5uom32QDEBSR80ExkUhcLuk6x3HO4+6mNgTGEz3a0fqyJKmt5xXJ6ZESmxUMxigkL9R915GrsZKk8rDZ4nNQ6XQVhioIk6kPVEscx/m5DY49OfT34uaCoIjcC4r0Hg5MV6RVW3evVGt3vdq7N6kzul5xt4EQmMth0g6BF4dqVV16tIaUH62K4iEU0JG3Pc2S/lfSXbmwRyPZAARF5ExQdF230HXdi0Tv4WFJ9go2d7ylrmjDuz2CQWcDhYN3xeKD5QTKVR6ep3CwUoPLp6m8qFa1FRMonEO3SW9K+qHjOP/rOE6LT/8O3EgQFOHvoGh7Dz8v6QoWpuwv2Tu4veVldcbWKxJd5ZvFH/C2aKJcBYHxKg1N09CK4zW47GiGs/tuo7pkehl/7rdeRrIBCIrwbVC0R+n9m+M4C7lrxtbmVdrV/pZautapLbKEoWJkXCLhynXGqzg0TeXho1VbPl2jBx9Hwexpt55yHOfr9txpgiIIiiAopikgftVxnIvz+T5t2rVc21peVmtkpSKxt1QQ2ErlhWfF4oNVEJygsvBUDas8XhNq5xEYzWrphwmKICiCoJiaBmu+67qfz8f5h61dO1Xf9Ip2dbyi9sjLzCNEboTHxAiVhGdrUMnxGlU9Oy+HrV3XXW57GB/26PVRUUFQhLeDog2IX3Uc54x8uQfJ3sLd3a8olnhdBYEuKiZyXjxeoEBwmsrDs/Ou19F13Tcdx7nVcZy7CIogKIKgeHgN1IW2BzHnnxYNreu1YedTaux8So7eVCDgUBEBmV7HqqJzdVT1yXkx19F13Q22h/Euj1wPlRAERXgrKCYSiTmSbsvlgNgVadW6HU9rR/tTisRepMcQOJy2wXUUcE5UbfkZGlMzL6eHqm1g/FS2h6TJBiAowjNB0W5z823Hca7MxXLdtGu5NjY9praexSw8AVIgmihXaXi+RlaeoXFD5uXkediu6z4l6T+yta0O2QAERWQ9KLquW2n3Qfx3x3GKc6ksV215XFtaH1Ms/qwCDp8xIK1tiY7V0PLzNGXYuSoOV+RaYPyd7WHcQVAEQRF5ExTtPMSf5coxe9F4j97c+ri2tT6mhPsC4RAgNKayvWy2C15uJSiCoIicDoqu6052Xfe2XNjqZq9wmFjKQhTAY+KJKaotW6BJwxbkxPnVrusul3RjJoajyQYgKCKjQdF13UJJX7CrmX09zLx2+9Pa0PgA4RDwU2h0x2l4xeWaPvIDvp/T6LrunXY4uiWNP4NKA4IiMhMUbS/i7xzH8e0eF61dO/VG/f3a3f2/rFQGfCzhOioKvV/Hjvyor1dPu667TdLCQCDwOEERBEX4Nii6rvt5u2m2L3sRk72H0jIqCJBj4okpGlV1uWYe9QE/B8bbHMf5D8dxegiKICjCN0HRdd2hthfRd6eq0HsI5FlgjBeorOgiTR9xjS97GV3XfVOmd3FZCr8nFQMERaQnKNqj9x5yHKfabwHx5U0/UXfkz8w9BPJUIHCajj/qM74LjK7rdkn6VCAQ+DlBEQRFeDYoJhKJGxzHuZ2ACMDf5mjGiE9oRPVUvwXG2wKBwKcJiiAowlNB0XXdQjtX5ka//H2b2uv18ubvKxZ7hoAIoO+2Tcdq5ojP+iowuq77lOM4Fw9kVTTZAARFpCwo2hNWHvLLfMTWrp1atvE/lUj8k5sOICcDoz0z+gzHcd4hKIKgiKwFRbto5VG/bH3z/LqfqLXnN5ycAqBfikOXat6ET/tiL0bXdbc5jnOe4zivERRBUETGg6LrumPsEMc4r//dtjav0vL6z6sgsJUbDWBA4vECHV17qyYNO90PYbHZDkM/Q1AEQREZC4p+CYnReI+WrP+BuqIPcoMBpNgczRv/dc8fD2hXRF98JJtzkw1AUES/g6JfQuL6hiVaveNm9kIEkDYJ19Gwis/ruNGXeT4sOo4z73CHockGICiiX0HRLlxZ4jjOMV7+uyxb/0vt7v4ZNxVARhQEztZpk77u6bmLdhj6jMMJi2QDEBRxxEHRboGzxMsLV6LxHj299gusaAaQcXF3nM6Y9GsVhyu8HBa32Z7FdwiKICgipUExkUjc5zjOlV69/taunXr2retZsAIga2KJYh036g5Pb6NjX/jPONj50GQDJAUoAhyORCLxb14OiVubV+m5decTEgFkVUGgS6/VX61VWx737DU6jjPPdd07uVs4rPrCWwN6NR4HerOcL+lpr153Q+t6vbzpcvZGBOAp4wZ939Nb6Liu+++BQOCHB/g9biAIijh0ULTzEt/06grnrkir/rHmfaxsBuA5iYSrY0fd49lhaLsS+jjHcdYQFHEgDD3jUA3Jt70aEqPxHj219npCIgBvPmADjpbXL1Jr106vdg4Uu67L9hAgKKK/b8OJOY7jfMqr1/eP1Z9S0NnAjQLgWQWBLj371vWKxnu8GhbPSCQSN3CnQFBEf3j2TfOlDXdLWsYdAuCDsLhVT6/9gpcv8auu6xZyp0BQxGFzXfdCr+6X2Nq1Uzvbb+MmAfCNROKfWt+wxJPX5jjOcNd1P8ZdAkERRxIUv+rVa1v89ucVCDjcJAC+snr717x8eZ+nVxEERRxuSJzv5d5ER69xkwD4TkFwl2f3V6RXEQRFHElQvM6r1/ba5t9ygwD41qbd93v58q7jDoGgiEOFxEJJV3j1+lq7/8ZNAuDfNjbxqpdXQB/nuu5k7hIIijhYULzIcZxiL15bU3u9CoK7uEkA/PvQDTjasHOJZ6/PyyNKICjCG+Z79cLqm1/h7gDwvR2tL3v58k7nDoGgiIOZ69ULi7s93B0Avtcdr/fy5c1i9TMIiuiT67qFXl3tLEnt3Zu4SQCQRnbq0RRKAgRF9BUUZ3n5+gpDtdwkADnQ2Aa9foWzuEkgKKKvN8kiL19fSWgYNwmA74WDI7x+iTS2ICiiT2O9fHG1FRO5QwB8r6J4rNcvsYi7BIIi9tPY2DjY20FxrGJxqiwAfxtRMc3T19fT0zOTuwSCIvazbt26U7x+jQXBs7hRAHwrkSjSkMqjPX2Nzc3NU7lTIChiP5FIJOb1a5w24jolEgluFgBfqir5kAKOtxezRCKRLu4UCIrYT1NTU7vXr3FU9RT1JDhhCoA/HTP8Q37oNIhwp0BQxH5aWlq6/XCd04d9ml5FAL5TXHCOqkqGe/46u7q66FEEQRH7+9WvfrU9FvP86LOOHnqi5JzHDQPgGwk3oNljPuWLa21oaGjijoGgiD5t3brVF9d55jFfVXesihsGwBfG1nxFZUXePzQgEomofsuWFu4YkgooAvS2bds2jR492vPXGQ4W6uTxv9aL73xQAcflxuWg7lhUsV5TDBIJV+3RvUfEumI9iibih/xezT070nKN1YVDD/lnCoNhFQb3NLXBQEClob23qSsuCCkY4L09V5WE36tjRlzgi2tt3r2bGwaCIg7shRde0Jw5c3xxrYPLx2jC4O9p/c5PKcBD1tPaIz2SpGg8rq5YT58hL11hLq0P1TRdczhYqtKCsnf/uyxUpIAT2CtkhoNBhYM04V4XcGp1wpj/8M317tq5k5sGgiIO7MEHH9T111+v0tJSX1zvpGGnqzPyNW1r+RphMcO6olHF3YQSibjaoyb89cRj6olHbDhsVtRl8WR/ROIdisQ7egXSg//58lCVCgKFkqSKcIkNkgUqKghLkkoKQnw+ssBRtU6acJeKwzW+uea31q/nxoGgiINbvXq1jj/+eN9c76zRF6p7fZuaO7/PwzCF4omEumLRd3sBkyGwI9a+V4hB9rVFdx9WqKwuHKqAI5WFShQKBFQcKlJBIKCighCFmHLlmjv+bpUW1vrmipuam7V7N9MTQVDEISxevNhXQVGS5k64Wiu3DNGmpv9QIOBwEw9TZ7RHCVdq7emUJLVGOhVPxNUa3UXh5KDkUHljHxthJYe7k3MqiwsKFQoGmT/ZD44zWCdP8FdIlKTNmzdz80BQxKE9+OCDuvzyy1Vb669GbtrIc1VZPEKvbVmkggBDnr1F4jF1R2Nqj3apM9qjzlinOmK7KRj0qiMdB+wpDjlhlYWrVRYqUnGoUIXBkMrChRRaX2UVnKY5477nu5DY3d2tFStWcgNBUMTh+etf/6q6ujrfXfeomhmqKvmLnl77MYWC+TfXJpFIqDMWVVe0W53RiLriEV8uEoG3RF1Tj/Yd1i4tqFJJQYlKQoUqCxWrKFSQ1wtsKosv1nvG3Kxg0H8hes3atfLDProgKMIj7rzzTr3vfe/zXa+iJJUV1ei86ffpH6u/roT715y9R7F4TG2RiLpiPWqPdqoz1qGuWDuVFxnTEdtteqb3GcquLhyq4mBYJaGwSsNFKgnlfu/jhCHf1tG15/jy2ulNBEER/XLXXXfp5ptv9uW1BwMFOnvqN7V2+5l6a+d/KJgDQ9Gd0R51RLrVGulSW7SVUAjPau7ZoWbtHx7LQkWqCBerJBRWQY70PAacYZp91G0aVD7Jt3+HFStW0psIgiKO3COPPKLTTjvNN/sq9mXSsNM1dtCTWvL2beqOPeSb644nEuqIRNQe7VJrpJPhY+RGeOw1dF1cUKbKcLXKw0UqDRWpOOS/ldejqm7WlGEX+3KoOWnXrl1auWoVFRQERfTPt7/9bd17772+2VexL+FQqeZP/pLqmy7Ua1s/owKn0XPXGInH1NrTpbZIt9oibSw0Qc7rirWrK9au7WbBvYJOSBXhGlWES1QWKlZZOOzZ7a6KC07TrNE3q6J4hK/vQTwe19JlL1AZQVDEAHoBmpv161//WjfddJPv/y6jamZoRPWjWrL+h2rvuTfr19Pa3a2Wng4197QQDJH34m50v17HQUVDVV1YpvLCEk/s9eg4gzRl6Fc1etDJOVHmK1auVGNjI5UPBEUMzIMPPqiZM2dq/vz5vv+7BJygTj7602rruUavvPNjdUf/krGfnew13N3doaaenYq7USoXcBCN3TvU2G2mXRQXlKk6XK2KwlJVFBZldG9H1y3W2JpPaXzteQoXlORE2W7btk2vvvoalQwERaTGV77yFd19990aPXp0Tvx9yguHaP6kb6i160a9tvkn6ow+lpaf0xntUVNXu5q66TUEBiI5VL3VDlVXhAZrcEmlKsIlaZvfmIsBUZI6Ozv1z2efo1KBoIjUuuWWW/STn/xElZWVOfN3qigerlMnfUtN7f+i17f8WD2xZwb0/RKJhFp6utXU3arm7l2cdQykSWt0l1pbzAlC4WCpagprNKioXBVFRSlIiCUaU/PvORcQJTMv8R9PPa3u7m4qEQiKSK1NmzbpG9/4hr7xjW/4enFLX2rKxun0yT9QU/sGvbH1p+qOPtWvcNjYzZAykGmReIe2d3Zoe6cJjYMLazSktOKI9290nMEaU3Ojxg0+J+cCYjIkPv/8YuYlgqCI9HnppZd022236bOf/ayKUvHm7sHAOH/S99TR06A12x/SzvY7Dtyj0d2txu427ezaTjgEPBQat3Z2aGunmdc4uGiQBpdUHHQxTLjgeE2uvUHDqmYp4ARztmyef36xNmzcSCUBQRHp9cQTT0hSzoZFSSotrNXsMTeoO3ql3mn8hzY23iapXZF4TM3dHdrWsYMNrwGP64q1a3N7uza3m+MGh5YOUnVR6bvHDNaWXa+xg89Tden4PHjJf5mQCIIiCIupVhSq0ORhF+noIeepI9Kotu4urdj2rN5uWUglAHykI7ZblUVf1/ThZ6q2YoiCgSIVhSpy/u8dj8f14ksvac2atVQCEBSR+bDY3d2tm2++OacWuPQlGCxURfEIVRRLI6sn6IzJV+qdXW9q7c5lenHbx6gMgEeNr/yCZo+4QOMGT1NpUWVe/d0jkYiWLl1GTyIIisieZ599Vl1dXfr85z+v2travPl7h4OFmjh0liYOnaWzj6kjNAIeMn3wrZo+7AwdVT0p78Jh75D4j6ee0o4dDVQIEBSRXS+99JI+85nP6Mtf/rImTZqUd3//fUPjlqa3tHbni3p5248VSbxCBQEyGA7HDJqq4nBpXpdFS0uLnn7mGe3e3ULFAEER3rBp0yZ99KMf1be+9S2dcsopeVsO4WChxg2ZpnFDpumsKVdrU+MabW5+U6t2Pqbtnb+iogApUlZwrmYMvULjB83SqOqJeR8Ok+rrt+iZf/5TsViMwgBBEd5zyy23aNGiRbr88stVUJDf1SsYKHg3NJ426VK1dv2XNjWu1ju739BrO+6gtxE4QpOrv66ptfM1etAxqi6tpUD2sXr1ai174UUKAgRFeNsdd9yhN998U5/+9KdVU1NDgVgVxTWaPuokTR91kt4//QZtaV6vLbvXafXOZ/R2y3coIGAfw0o+oqlDFmjsoBkaWT1BwQCPrL50d3frhRdeZNEKCIrwj2effVYrVqzQZz/72bweij6YkdUTNLJ6gk4ct0BdkS9pe8tGbWtdr3eaX9Wa5q9SQMg7R5V/UuOq5mhE5cS8XohyJHY0NOjpp5/hSD4QFOE/zc3NuuWWW3TVVVfp6quvzrlj/1KpOFz67jD1SfqApK9oe8s72tGyUfWtq7W++Sk1dd9PQSFnlBWcq4mD3qdRFVM1rHKchlSMUjhYSMEcpng8ruXLX9XKVasoDBAU4W/33XefnnvuOd18882aOXMmBXKYhlWO0bDKMTpW8yXdoI7un6uhrZ5eR/jS+MovaGzV8RpeebSGVoxWRTHTUvprR0ODXnzxJc5sBkERuWPTpk266aabdNVVV+myyy5j7mI/lBZValxR5V69jrvatqq5s0HNndu1affr2rj7H2qPPU5hIWvCgdmaVHO5RlRMUU3JcFWV1GpY5RgKJgUikYhef/0NehFBUETuuu+++/Too48ydzFFBpeP0ODyEZKkE7VA0ufUFelQS9cubWlep12d9drRvobFMkiLo8o/qWFlUzWsbIKGVY5TVfFg5hWm8WX7xZdeVns7Z8yDoIgcl5y7ePbZZ+uqq67S+PHjKZQUKg6Xqjhcuk8vzre1q22r2rqb1dSxTbs669XW06C1TfezTQ8OKtlDWF5Yq8Elo1RRPFjlRdX0EmZIS0uLXnlluTZt3kxhgKCI/PLEE0/oiSeeYDg6Q5K9j+OGTOv1q59TPBHTzrYt6oq0EyLzVFnBuRpb9V7VFI9SZVGthpQfpXBBkYaUj2RLmizp7u7Wqjff1BtvrKAwQFBEfrvvvvt033336fOf/7zmz5/P6ugMCwYK3u0dOlCIlKQtzesk6d0g2RltZkjbJyZXf12hYJFqS8erNFyl0sJKVZXUqiAQenfqArwhHo9r3bp1eu31N9jyBgRFoLdbb71Vd9xxhxYtWkRg9GCI7Huo8dsmPLZtVSwR1e7OBnX0tKgn3qmtraslSdF4Nyu00+So8k+qsnCkJBECfS4SiWjDxo1asWIl8xDhKY7rupQCJEmnnXbaVx3H+ZoXrqW6ulpXX321zj77bFVWMjk+lyRDpaR3g6UkdUR2q6Hj7T1/rnNt3pyPXVN0uUaUzd7z33YIWJIKC0o0uHzku7/HcHDuBcS3337bYz2I7p3XXXvt9dwdEBTh2aDY20033aTTTjtNtbWc7Qppe8s7+/1aW3ezWrt2Hdb/X9+6StF4/x7IoWCRRlVMPaw/m+zZ2xdBD5KZg7hm7VqtWLFSsVjMY1dHUMQetFbwvB//+Mf68Y9/rIULF+p973sfgTHP9TUEfiQrcI/XWRQisqazs1OrVr2pNWvXejAgAgRF+Nidd96pO++8U5deeqkuvPBCjR49mkIB4AstLS1at+4tNssGQRFItwcffFAPPvigzj//fJ177rmaOnWqCgqoygC8p75+i95++21t2LiRwgBBEcikRx55RI888ohGjx6tSy+9VKeeeip7MQLIus7OTm3YsEGr16xlBTMIikC2bdq0ST/4wQ/0gx/8gF5GAFlD7yEIioDH7dvL+J73vEcjRrCXHID0oPcQBEXAh5K9jJJ06qmn6uKLL9a0adNUVFRE4QAYMHoPQVAEcsSzzz6rZ599VtXV1brssst03HHHadKkSQxNAzgiu3bt0qbNm7Vhw0Z6D0FQBHJNc3Oz7rjjDkkiNAI4LNu2bdOWLVv1zqZNhEMQFAFCI6ERIByacLj+7bc9dKweQFAEPBEaL7roIs2ePVuTJk1iTiOQB+LxuLZt267t27cTDgGCInDw0Jg8AUaSFi5cqNmzZ2vChAkqLS2lgIAcEYlE1NCwU/Vb6rV+/dscpwcQFIEj1zs0nnrqqTrppJN09NFHa/z48QxRAz6za9cu7dixQ5vr67VjRwMFAhAUgdRJrp5OuvTSS3Xcccdp/Pjx7NUIeFBLS4t27tqlrVu2anN9Pb2GAEERyJzkmdOSNHr0aJ155pmaMWOGxo0bx1GCQBZ0d3eroaFBDQ07WaUMEBQB79i0adO7Q9SSdMIJJ2jevHmaOnWqRo4cqcrKSgoJSLFIJKLGxkY17NypzZvr1djYSKEABEXA+1566SW99NJL7/731KlTNWfOHI0bN07jxo3TiBEjmOMIHKFdu3Zpd0vLu3MNd+9uoVAAgiLgf6tWrdKqVav2+rWzzz5bU6ZM0bhx43TUUUeptraWggKstrZ2tbS0qLGpUQ0NDdq6dRuFAhAUgfzxxBNP6Iknnnj3v6urq3XmmWfqmGOO0ejRozVy5Ei25EFeiEQiam1t1a5du9TQsFPbtm9nL0OAoAigt+bm5ncXxySdcMIJGjt2rGbOnKnq6mpVVVVp9OjRFBZ8q6WlRW1t7Wpvb1NDw061trUxtxAgKALoj+Rcx74C5KRJkzRlyhQNGTJEVVVVbNEDT0mGQTN83Ky2tlb2LgQIigAyGSD3deqpp+qoo47SlClTNHz4cFVVVTH3EWkPhJ1dnWpuatLulha1tbUxnxAgKALwot4bgveWHMIePXq0qqqqNGTIEJWVlam2tpbzrHFIu3btUjyRUHNTk3oiETU1Nqkn0kMPIUBQBJALDtQDmXT++eerqKhIxxxzjEKhkMaNGydJzIfMEy0tLYpGo2psapKbSKihYafi8bg2bd5M4QAERQD57pFHHjng7yVXY0vSzJkzJUllZWUaMmSIJNEr6WHxeFzNzc2SpM7OTnV2dkqSGpuaFenpUVNzM6eXACAoAui/3qux911Uc6BAWVNTo1GjRkmShg8frqKiIhUUFLDgJkWSPYDJ4WBJ6uzqUovdgLph5062lwFAUATgzUB5OJLD3UnhcFhTpkzZ688UFRVp+PDhe/1aWVmZb8/S7t2rl9TW1qaenp69fi3Z49cbw8AACIoA8sbBhrv7K7lo50iUl5dr7ty5ff7e7pYWdXV2HdH36+jsZF9AAARFAPCaQy3aORAnEKTwAKAPAYoAAAAABEUAAAAQFAEAAEBQBAAAAEERAAAABEUAAAAQFAEAAEBQBAAAAEERAAAABEUAAAAQFAEAAEBQBAAAAEERAAAAICgCAACAoAgAAACCIgAAAAiKAAAAICgCAACAoAgAAACCIgAAAAiKAAAAICgCAACAoAgAAACCIgAAAAiKAAAAAEERAAAABEUAAAAQFAEAAEBQBAAAAEERAAAABEUAAAAQFAEAAEBQBAAAAEERAAAABEUAAAAQFAEAAEBQBAAAAAiKAAAAICgCAACAoAgAAACCIgAAAAiKAAAAICgCAACAoAgAAACCIgAAAAiKAAAAICgCAACAoAgAAACCIgAAAAiKAAAAAEERAAAABEUAAAAQFAEAAEBQBAAAAEERAAAABEUAAAAQFAEAAEBQBAAAAEERAAAABEUAAAAQFAEAAEBQBAAAAAiKAAAAICgCAACAoAgAAACCIgAAAAiKAAAAICgCAACAoAgAAACCIgAAAAiKAAAAICgCAACAoAgAAACCIgAAAEBQBAAAAEERAAAABEUAAAAQFAEAAEBQBAAAAEERAAAABEUAAAAQFAEAAEBQBAAAAEERAAAABEUAAAAQFAEAAEBQpAgAAABAUAQAAABBEQAAAARFAAAAEBQBAABAUAQAAABBEQAAAARFAAAAEBQBAABAUAQAAABBEQAAAARFAAAAEBQBAAAAgiIAAAAIigAAACAoAgAAgKAIAAAAgiIAAAAIigAAACAoAgAAgKAIAAAAgiIAAAAIigAAACAoAgAAgKAIAAAAEBQBAABAUAQAAABBEQAAAARFAAAAEBQBAABAUAQAAABBEQAAAARFAAAAEBQBAABAUAQAAABBEQAAAARFAAAAgKAIAAAAgiIAAAAIigAAACAoAgAAgKAIAAAAgiIAAAAIigAAACAoAgAAgKAIAAAAgiIAAAAIigAAACAoAgAAgKAIAAAAEBQBAABAUAQAAABBEQAAAARFAAAAEBQBAABAUAQAAABBEQAAAARFAAAAEBQBAABAUAQAAABBEQAAAARFAAAAgKAIAAAAgiKAvZVWK3beJ6VwMWWBPq0sn6JoIExBACAoAvkmdvKH5daMUHzuZRQG9rO1aITqw5VaWTaRwgBAUATySXzGArlDRkmSEkdNVWLcHAoF7+oOlmhl8UhJ0o5QmTYXj6ZQAIIigHzgDp2k+LRT9w6OJyyQWzGCwoEkaVXZBCUCex4Lq4uGqr2gnIIBCIoAclq4WPETL5QTDO7/63MvoXygzcWjtbOgZK9fSwQCeq38aMWdEAUEEBQB5Kr4CR+UWzGoz99zh4xSYtb5FFIe6ywo0+qioX3+XnsgrPVlYykkgKAIIBclxs1RYtz0g/6Z2JR5codOorDysX44Aa0oHbfXkPO+NoRr1FBYS2EBBEUAOaW0WvETFhzyjznBoGJzLmHLnDy0qWS0mvcZcu7LayVj1BMsosAAgiKAnBAuVuy0aw4//JVXKX7KNZRbHmkKD9KaAww57ysRCOi1sonMVwQIigByQey0Ork1R7aiOTF8vOKnf4TCywOtoUq9XDr+iP6f5oISvVwxhbAIEBQB+Fn8tGvlDh3Tr/83MXKiEvOuoBBzWGdBmV4uP/qg8xIPFhbfKJ+khMPjAyAoAvCdxImXKnHU1IEFzfGzWAmdo3qCRVpePlERp6Df32NHqEwryyYTFgGCIgA/ic9YoPjEE1LzvaadoviMBRRqLtUPJ6Tl5VPUnoJznLeGK7SmbAKFmmN2h6spBBAU0bfE3A9NUSmNhG/v39Gn7HfyysDD4qlKHH0KhZsL9cMJ6LWKKWoJFqbse24K12htOWdC54q15RPVUDiYggBBEX1zKwYPi555gwiLPrx3I6crdsJ5+5+8MkBOMKjYCecpcdQsCtnnVpZN3u/klVTYEK7RxtKxFLDPXyLeKD9GG8I1FAYIijiE8ioRFv0XEqMnX57ykLhXWJz3QcKij0PAm+UTtTVckbafsaZoKGHRx/VjZdnktNYPEBRBWES2GvmjTzEhMZTe7UqcUEixky9TYtpZFLqPxJ2QXq2Ypk0Z6ClaUzRUK8unsMCFkAiCIgiL8EQjP+t8xeecn/aQ+G5YDAYVn3WWEideSuH7QHewREurpqdluPlA6sOVeqlimqIpWCyD9L9EEBJBUERKwqJbMYKy8Fojf9q1ik/LziKT+MQTFDvrRo7787DWUKWWVB6TktXNR6q5oERLKmaos6CMG+Hhl4gXK6cREkFQRGrCYuzcjzI/zSvCxYqddeOA90kcKHfoGMXO/QQ9zh7UUFirZWWTBrRP4kB1BQv0fPkxagwP4YZ4TFN4kJZUHpPS1e8gKIJwYuansQFzdpVWK3buJ/p94krKw2LFIMUWfELu0EncG4/YWDpWy8vG9evElVRLBAJ6qXy8NheP5sZ4xNaiEXqx/OisvkSAoIgc5QSDZgPm0z/CkGM2QtnQSSaUVQzy1nUVlSo6/xolxs3hJmVR3AnpzfKJWlM01HPXtqpkuN4sn8gil2yGdrvy/Y3SoygMEBSR5gZn5ERFF/yb3JpxFEamQsDxFyt6xnVyi0q9+RIRCil+0sWKn3Q1LxFZsDtcrecrZ2ZkZXN/bQrX6IXKmZz6kQXdwRK9lKGV78hN9D/jyJVXKXrW9Sp45XEF3nqO8kgTt2KE4idfKrdmhBw/vESMm65E7RgFX/6LAptf5Qam+wXCCWl92VjfbJLcEizUsvJJGhdp0oT2jQq6UW5imm0pGqVVxcM9MRUBBEXkGScUUnzO+XJHT1Vw2e+ljmYKJZUhYMYCxY85OWNb36RMabnip10hd/NMBV/+M/UiTXaHq/V6yXh1Bf3XhG8I12h7ZYVmdr6tqgj1Ix26gyVaVTYho1sjgaAI9CkxfLwS7/ukAquXKfjGYxTIAPmtF/GA9eKoqUoMHafg8r/T65zKFwif9SIeSFewQMvKJ2lUpEWTOt5WKBHh5qYIvYggKMJ7wsVKzDxd7qhJCj7/oJzWrZRJf8LVlNMVm3mm/3oRD1Iv6HVOHT/3Ih5IfbhSDaEZmtaxWbU9DdzkAaAXEQRFeJ5bM0LRBTeqYO0yBV59hAI57HIbp/jsBXKHjvF1L+IBAzC9zgPSGqrU28WjtCOUmxtYR5wCLS8bp6GFQzS+q14V0RZu+hGIBsLaXDxS64pqKQwQFOF9Tiik+LRTlJhwnAKrlyiw8kkK5SABMTHrbCWGj8/9v2yy13nSe+SsfZHASEDcz45QmXaEpmhotJ3AeAQBcX14MMPMICjChyGoqFTxWWcpPuEEBdcuVWD10xRKPgbEPuqFS2A8qKbwIL1VPELNeTqE2Dswju7erppII5Wil7gT0uaSkVoXHkJABEEROaC8SvHjFyg+aa6CbzylwIZlBMQ8DIgERgJi/wLj0aqOjdDRXVvzPjDGnZC2Fg3XW8VDOFkFBEXkaGA86WIlpp6swMbXFVj3vBTpyo9QNHSSEtNOJyAeTmBc80ze1AvJDB82hmq0qWgIAfEAmgtK9GK5CYwTurZrUGRnXv39d4erta1wsOoLquhBBEEReRAMqmoVn3WWYtPmK9iwUYE3n5WzY23u/T0rRigxcY4SIydL5VXc+MMMjPFppyqwq16Bbetydn5r3AmpMVytrYVD8mb+YaoC40vl4xV2R2tktFWDe5pytpcxGgirIVyrjcVD1B4Ic/NBUET+cUIhJUZOVGLkRKmjTcGNr5leRj9voVJarfj4OXJHT5VbxQrEftWLYFDu0DGKDx1jXiZ2bZazda3v57gmnICaQ4O0vXCQ6sOV3OgBiDgF2hCu0YZwjcLu2JwJjck6srVwsLaGK7jRICgCewJWueLTTlFsyjwFWnYo0LhV2vaWP46BCxcrMfFkJYZPlDt0DPcy1S8Tw8dLw8crPmO+Ajvr5byzwjfzXHuCRWoPlquhsIphwwyExuL4WI2I7VZtzy7frJjuLCjT7oIKNYYqCYcgKAKHDAbBoNyaEYrXjJAmnqBY9IMK7N4hp3GLAvUrPTFE7Q6dJHfwaLmVw+RW1ypRPkhOMMjNy0QgHzlRGjlR8RMWyGlvVmB3g7SzXk7D21nf5D3hBNReUK62YLl2h8rUGCzNqY2x/aArWKD1wcFaXzhYYTem6li3BkXbVBrvUGm8Q4Xx7qxfY9wJaXeoSo2FVdoerKCOgKAIDCg4hkJyh4ySO2SUElPmSJEuOZ1tctp2SR1tcpq2ymncnLaQ4FaMkDtiklQ9TImaEUqUVu93aorDbcpKaHRris0LxfhZ5j50d0htzQq07ZK2b1CgYW1apzG0hirVHShUa6hcTcESFqJ4TMQpsKum98wBLY7HVB3vVFWsQ+XxNpXGOtJ6dGCyjvQEitQYKldHMMx8QxAUgbQHhHBxn/P/nN0Ncrra5XS17v0bzdulnj5W0RYWS9XD9oTC4gq5xXseKm5JuRQuJhT6hFtUKhWVKj5klDR+luKSeZmI7rn3TtsuOdFewWBnvRSP7vVgT2opMP/eEwypPVBkfj9QRA+Qj3UFC9QVrLBDvMPfDY8ViT09jSVuRMWxnj3/He9SyO07TCbrSFI8ENDuYCmBEARFwJNBoaqWBSTYW2m5XJXvVUf2Ynsjjbe0pGIKZZaX4XGfledkPGAvzK4GAAAAQREAAAAERQAAABAUAQAAQFAEAAAAQREAAAAERQAAABAUAQAAQFAEAAAAQREAAAAERQAAABAUAQAAQFAEAAAACIoAAAAgKAIAAICgCAAAAIIiAAAACIoAAAAgKAIAAICgCAAAAIIiAHhe3AlRCABAUASA/cUCQQoBAAiKAAAAICgCAACAoAgAAACCIgAAAAiKAAAAICgCAACAoAgAAACCIgAAAAiKAAAAICgCAACAoAgAAACCIgAAAEBQBAAAAEERAAAABEUAAAAQFAEAAEBQBAAAAEERAAAABEUAAAAQFAEAAEBQBAA/ijohCgEACIoAsL+EQ1MIAARFAAAAEBQBAABAUAQAAABBEQAAAARFAAAAEBQBAABAUAQAAABBEQAAAARFAAAAEBQBAABAUAQAAABBEQAAACAoAgAAgKAIAAAAgiIAAAAIigAAACAoAgAAgKAIAAAAgiIAAAAIigDgdQmHphAACIoA0IeIE6IQAICgCAAAAIIiAAAACIoAAAAgKAIAAICgCAAAAIIiAAAACIoAAAAgKAIAAICgCAAAAIIiAAAACIoAAAAgKAIAAAAERQAAABAUAQAAQFAEAAAAQREAAAAERQAAABAUAQAAQFAEAAAAQREAAAAERQDwo5hTQCEAAEERAPYXJygCAEERAAAABEUAAAAQFAEAAEBQBAAAAEERAAAABEUAAAAQFAEAAEBQBAAAAEERAAAABEUAAAAQFAEAAEBQBAAAAAiKAAAAICgCAACAoAgAAACCIgAAAAiKAAAAICgCAACAoAgAAACCIgAAAAiKAOBPPcEQhQAABEUA2F/CoSkEAIIiAAAACIoAAAAgKAIAAICgiLQKBrspBAAAQFDE/uJuE4UAAAAIithPQu42SgEA8ldBIiY5zm5KAgRF7CcYi+6gFAAgf4UScbmu20JJgKCI/SQKyzdRCgCQz0ExIiW0nZIAQRH7iVYMf5pSAID8VeT2SHI2UhIgKGI/L/7riTsU7e6gJAAgP5VH2yXFl1ISICiib91db1EIAJB/KuM9CrrRN+vq6pijCIIiDsDRQxQCAOSfmniHJJfeRBAUcWDRwsG3UwoAkH9qe3bJTTj3UxIgKOKAXvzXE3eoq30DJQEA+aM4HlNVpHlbXd01j1MaICji4Bz9jEIAgPwxKtokOfpfSgIERRxSQUXBjxSPsvoZAPIhCCQSOqprS5cbj99KaYCgiEP6Z90ZPers+B9KAgBy34TILoXcyO11dXWczgWCIg5PwaCiLysW6aYkACCHQwC9iSAooj/+WXdGj+Lxb1ESAJC76E0EQRH9tvim9/4/N9LzDiUBALmnOB7TmM767W48/nVKAwRF9K+CFIYupBSQ6zqdMIWAvDO9c6MC8ejHOIkFBEX02/MfPfk19XSzsAUAcsjoSJNqIrt+V1d3zcOUBgiKGJCCcn1asehKSgIA/K8y3qOJ7RvXuInEjZQGCIo4bI7j9Pn17ML39kTdojMVj7ZRSgDgX2E3puPaVrcE493nMuQMgiJS5qVPzNmRcMIXuIlEnNIAAH86rv1thaPdl9fV1bFQEQRFpNayG+c948ZjH6MkAMCPIXGDKrub6zjPGQRFpC8sfuL0X7rx+GcpCQDwj6md2zSkZ8fX6uquuYvSAEERabX046d+X/HIdygJAPBHSBzV9c7X6q69lv0SQVBEZiz5+On/4cZit1ESAEBIBEER2M/Sfz3t0wxDA4A3zejYrFEd7/w7IREERWQvLH781O8nEok6N5GIURoA4IEHeyKh4zo2RoZ3bq2rq7v2h5QICIrIqmU3nnKXq+BZbjzRSWkAQPaE3ZhObF/XNqSz4RwWroCgCA+FxXnPuE5wqhuLraM0ACDzqmOdmte6amVFT+OMurqrn6FEQFCE18LiO6GS2Aw3Gv0TpQEAmTM60qQTWlfdXxhpP57NtJFKjuu6lAJMZXCclH2vuf/z7GfkBL7jBJwCShZeN6e2UDtCZRQEfCeQSGha19bI8M76zzEfEQRF+CYoStK8nz8/2Y3FH3cKCsZQuiAoAqk1JNapye0blpdEW66sq6tbQ4kgLS8jFAHSZckNJ68JlcQms98iAKTW5O4dOrb9zf8qibbMIyQinehRxJ7KkOIexd5O/J9n5wRc9/dOQcFRlDS8hh5F+EVlvEdT2zdsKI80XVlXV7eMEkG6MX8M70rzS8Oy037z1MRop76tQPAm5i4CwOELJBKa3N0QHdGz5TvBWM+36urqeigVZAI9isi4k+5YPFnx2IMKhqZTGvACehThZUOj7ZrYuWlZSWT3dQwzg6CIvDH39uevC7jxHykYqqA0QFAE9lYcj+mYrvrmwV07bqyru+Z+SgTZwGIWZM3Sj518V0FxvFbxyHfchMsRgMiaiENTCO8IuzFN6dredVLra98c3LV1OCER2USPIjzhPT99YWiBuu9wQqEPUBrItOnDy9UeCFMQyLoJPbs0qnvrbwoj7V+oq6vbQYmAoAj0cvIvnj82EU3c6hQUnEtpgKCIfDEu0qRRXVt/XxxpvZmTVUBQBA5h7u1LxwQSPd9VQfgySgMERRAQAYIi0HdgdKPfUbDgCkoDBEXkgkAioQmRxtjwnm2/Koq0f5UhZhAUgVQExkTPF91AaKETcEKUCAiK8JuwG9PonubuET3b7iIggqAIpMF7fvrC0FCg+yuuU/BRAiMIivBLQBzfvatrWPeOH4ZjHd+pq6troVRAUATSHRiDkX+Rm/g3BUNDKBEQFOE1ZYmIjupubBra1fCjcKLjvwmIICgCWTDv50vOVSxykxMKv5/SAEER2TY60qRBkZanh3Q1fKeu7prHKREQFAEPoJcRBEVkS7L3cFDPrv8pibX9hPmHICgCHkYvIwiKyAR6D0FQBHzsPT99YWgoFKtTPPZpBUO1lAgIihgoeg9BUARy0Nzbl84PJKILFdBFChRUUiIgKOJwhd2YRkTbeqqjLc8M6dzxg1zpPXQcp89fJxuAoAhCI6ERBEUcRjisjLQ9N7Rr248XLrz24Xz5u5MNQFAEeodGxa+VEpcoUFBFiRAUkb+K4zHVxts7qyKtS/ItHBIUQVAEDmHOz56bEwzow0okLmdOI0ER+RMOh8VaOqqjrU8O7tp528KF1zyT72VCNgBBETiEk3/x/LFuwv2IG0tc4oRCIykRgiIIhwRFEBQB7Oc9P31haDAYXeDE45c4QWc+8xoJivCfodF2VUU71pfH2h+p6dlx58KFC1+jVAiKICgCKXfyL54/1nWdBYrHPqhg6D2UCEER3lMZ79GgWHtjaazr+cE9u+4OxTv/vHDhwh5KhqAIgiKQMaf95qnCWKRwgaT5bix+qVNQcBSlQlBE5oXdmIZG2yLlsY5XymKdD1b17Hpw4cKF71AyBEUQFAHPmHv70jFS/HTH1QWO4qeyKIagiPRhOJmgCIIiMlUZHIfGIQ3s6TBzJc1XPHa2gqHplApBEUcu7MY0KNoVLU10byyNdTxfHW29Lxxr/yfDyQRFEBRBUMwpc29fOj8QSMx14+4pjuOepECwhlLJnvHDq5UIBCgIjxkS61RZvHtrSaJ7eUms47Hq7p1/ZiiZoAiCIrIYFGkosuOkOxZPTiTcuYFAcI4bj53uBIPHUCqZM3bkIAohy8oSEZXHuzvKYt0bi+Ndzw/r2nEfW9YQFEFQhIeDIg1G9pz2m6cKI93FcwOBxFwpMEbx6GwFC+ZQMgTFXBB2Y6qK90TL4l1bS+I9L5ZFWh+piDY/tnDhwh2UDkERBEUQFNFPJ92xeLLrOmMdx53rus6xSsRnOcHgOEqGoOhVQ6PtKnRjWwoSsc1lsY7Xy6PdfyqNNT63cOHCFkqHoAiCIgiKyIA5P3tujuM4UxwnMNlxNFdufKacIOmHoJgx1bFOlbjR5sJ4tL400fVaOBF5YlDXjmeYU0hQBEEROR4UaTz8af5vnq7s6S6aJcXHBgLOWNd1JjtyR7iu5joBp5ASIigeqUAioSGJzrhcNZXFu3eF3OjKwnj0xaFd9Y+zLQ1BEQRFEBRpSHJErzmQVZJmSc4YSWPlJqbJCeTdvo8ExT3KEhEVJ6JdpfGeXa6c+op4+/puhV4f17Hphbq6q58ZSJsBgiIIisijoEijkrvm/Oy5OYFAsMrOhSx0HM01Nzo3g2S+BcWh0XYl5DRWxjub4nLWl8U633Jc54Vh3ZtfqKurW5OJNgMERRAUQVBEjkr2SJr/MkPbthbNtzVirOT4ZpFNLgTFZE9gQk53eby73ZVTL9ftqIy1vd0RLF5VEe/YPqRr29K6ujrmDNKe06aDoAiCIrxh7u1L5+8fKKV3h7v31KKshUsvBsXewU+Swm4sUhyPNESdgsbyWMf2uBNY4bpqGtu54ZW6urpl1DQQFEFQhKcbFhoapDhg7hMk9w2akhQYKrlTDlETp0jO8HQFxepYp4JSmyvFDvxnOnb3OKF3e/KK3O7doXhsdU8gvD35axPaN7667xxAACAoAgAAwJMKMvFDTrpjCSUNAACQQosXzUv7zwhQzAAAACAoAgAAgKAIAAAAgiIAAADSoIAiAJAigyQdJ2mipPGSxkiqlTRYUrn96q1HUoukZkmNkjZLekfSeklvSHpLB9lyBuhDiaQTJE2VNF1me6XhkoZJKra/X2jrXMLWu2227m2Q9LqkV20dZEsQHKmRko61beBoW/fKbN2TpIik3bbOvWPbuVftrxEUkTGOpAm2oZwkaZykEfaBXW0byYBtJOP2Qb1D0nZJb0taKWmFbSjzVbUtu/H2g36ULb8q+1XaR+jpktRtw88uW571thxX2a9IjpXTMEnnSDpb0sm2rvXnexxIl6QXJT0r6TFJS2ydzWVBW+eG23pYKamo14OmR1KnrUtN9munpIY8bu9OlHSBpDMkvUdS6DA/48mXm0l9/P5OSf+Q9KSk/7Of6VxWal/yptl2b4Jt8wbZr7DNC2U21MQltfaqfzvt82ODpDX2GdKRB/VvuKT3SzrT1r+h/fgerg2Lj0n6g6SXPfchy8Q+iinaHsex4ecUSTNtYh9pG9ISW3GbbYO5wT6Yl9mvXK6wQds4niXpVPvv1Sn4vlslPSXpb5IesQ1CLhphy+142xMxXdKQNPycHkkvSXrUNgarfVpeRZI+KKlO0nuV2ekrOyX9r6Sf2xcavyuxAXuepFm2XRt9mEFnX+32QZ38Wi/pTfvQac3Bz+1QSf9iv8am+WdFbTv4S0l/si/Zfhey7d4C+zXVPktSJSFpnaTFkp62gXtrjtS9EkkflnSVpNPS0Aa+Iemnku6ynQ8HlYntcbweFB1bma+UdKFN7/15QD8u6ff2Q54LjWahDYaXSfpAioLhocrwr5L+W9I/c6AHYp6kSyWdaxvIbHhC0uclLfdJuYUlfcxe8wgPXM9Dkm6xYchPymxbdrWk023wTidXpofnn/bF73H7Qu1XkyV9UdIVtk5m2hpJ35b0W/lzaHq8pEWSrtPBe/NTLSHpBUn32wDkxzo4VNJn7MtJdQZ+3iZJX5D0O4LigR9K19qbMiXFgechST+UtNSHFXWSpI/asqnN0jW8LOlLMt3kfntAf1zSDbax9IKEreP/7fGyO8E27lM9dl09kj4l6Wc+qH9Vkj4p6d8k1WTxOmIyPTx3yvRs9/jk81sj6Zs25HhhytRS25a87pPyGybpa5IWZilg99Yl6df2fu7wybPjC/azW5aFn/8XW++3Zisoem3Vs2PfdNZJ+kWKQ6JkeuKukJnr9LRMb6UfzLUB901Jn81iSJTMEO2j9muMT8rvEpmhuFs9FBKTn7/bJN3o0XJzZHoQF3swJCY/z/8j6Vser38X2c/u17McEmVD1lmS7pUZor7CB5/fy2Smanxc3plXP1dmWlOdT8pvpQ22YQ9cT7Gkf5W0VmYI18sukJnGdkuWQqJk5kC+LDMSlrUHlVdMk/SMpN/IzNNJt/kywzGPykzi9aL5MhOql9iHjZfu1wKZCbheftAUycxn+0OWw/Wh/Ng25l5SJemPkr6j/s2Zy6QvyvSQhT12Xckg+5AyO8x3uEbIDGt9T97cKm2ovb4HlJ55w6loX+6U9H2Pll+y/XvAAy8ofamQdI+kHyi18yNTodbWvT/JLGbMtmGS/m6fu3kZFB1Jn5P0irLTw7fApvXfqe/Vb9lwtg2xT8uspPKqKltuv5SZ4Oslk2zAXuSDN/6gbTAv98j1vFdm7uRF8o8625CO9Mj1TJH0nLzbW9zbZ+wL8yiPXE+BTO/hKvmjx/PTtvy8FGany+wW4If271Myc+AHeySPXC3TA+u1uldsOz3m5FtQHCwz1+3WLPcGOLZSrJSZpDw5S9fxPhtu/ib/DItL0kdkhmGO9chD5nMyvZ2zfFSGYZnhwE9l8RoqbQ/Ek0r/StKBONDE6lPsff9Qlu/jl23QPsFH9e8cG8xuUvaGd0tk5mCvlln1WeOz8lvpgZe9UpnFNi/7sP6tkFmcmS1zZabZ3O2R0Hqgz8ifM/1CnM2gOEVmQvA5HroJBZKusQ3mAzL7c6Vbocy8zOUyk1bnyp+my2z/8j1lby7HOfYabtWefef8JCgzDHOP9t+nMd31/gaZeXSL7IuTlzmHePm8X6aHZ0qGr+kySa9J+obSv5p5IA60vUu5pB/JzB1bZNumTJgpM3xbL+kOmT38/GiIzPZNf8nCS3OZfUHeILPwIuzD8hsq6WGZUarRGfy5x8n01C32yfN3iEyHVsba6Wytej5FZuy/2gc3ZbHMPKM/yqzWSpVxMivQPipvzl8aiG0yc9vu0GHsA5UCp0v6irw9TH+kNshM+H40zcH0EpnVkFOVeyIyi+L+S2ariXQI2zK8WdLsHCu/Fhu6f2fbwVRtGF8sMzH/bJk9OSfmYN1zbfj4kcwQcLrMsM+Qq33yPD1cXTK7k/xQ5vCCVAvITDv7V0nn+eDluC/XSfptrm6Pc5bMTvelPrspzbbR/IPM3MH+HC1WKzPv60M21OT6WdtbJd0usxXClhR/7yqZHpxP2B6JXPWIDXKp3K2/0j5YPi1vrQI/nIdvfxr0mO2puEtmWkcqtoQ5TmYvzutz8EWvLx0yiw1flNkQeJUN3x2HCNHDZXqHptrP6bEyhwJks8crkeG2902Z4cxHbNkN9OXueJkh2gtyvO2T/azeaz+7z2ngm53Pts/g65TZXst02Czp6MWL5qX9xK9MB8WTbUNd4vMb1CSz2ORZmSHjt+xN663QvilPlunOnm8raVD5Jy4z7+2PMhtNb+jn95kg03t4sX3hKMyjMlwis1/gQzKncBypMpmh+StltltIx9B8Qmae0Qsy2xG9I2mjzF5pzdpz7JdkVlKX2XtYY8PWGPuZmSnppDT1kDTLTJxPfn7X6tDHAgZk5myeJNMTdq78Ozyaam0yJ+YkZHogy2WmMlTZ+5eNnpqozJzp5TaYLbfX2Kq9N3oul1n5fZTMNIXj7DMqnXPU6+1n+WWZOY3v2Bfqxn3+XLHMEOM4+zXZXt9c+6KXDe22bMuUnZ0QttjP7rO2DDcc4rMbklnUOFtmzv85ysyWbuttqH3dXnOj/Yrb7DPS1reT7fNsIG3x1YsXzbs3l4LiDHuDK5W7dttej2Jld45SXGZCeLIxess2RtttY947zA6RWe04xX6gTsvAm9Y2GyZW2Iay3jbi3b0a8BLbgB9tw8OcDPbcdNjyW2t7TertNTfInLPb3OvBGLMPw2CvB2StLcNptjGYn8IHZrdthJbYe7vKXlujrXtFMmezjpF0jL2vc+xXunpxlstMz3jYPpBTIWAfitfbt/90LbCI2DC7yd7XDluOZfZejpLpdc3US0mjrW/1NmB32zDWO0AU2c9Huf1MjLL/zMeX0CRXZqTnVzI9dy0D+F7j7QvVogz3OkVtGKvKUsBukplisFKmF3RVrxDb1xSiQbatG2bLLPmSd4IyswI8+dltkBmq3i2z5U65TE/2qAwG2lXas4n9kXSEVMrsJXmL+nfi1dLFi+alfew5U0FxsMwig1Sk+U6Z+Y1P2CD0jq0gZbZyJpP6RfZBnS92yQzp/9U2mAM5ImmWzHYjdTke7JN22nL7u+2JWKfUHs/1SZm5NrmmR2ZD7h8rvefffkBm2kdRjta/v0i6T2Zot79TNIL2gT3V9jzNkhminJQHn9+/2Aftayn+vmGZAw6+Lu9s9J1qCVv3fqHUDO0mTZbpeb9CWdwoOgOel5ka9OQAv0+5zI4TVx7mn99u28T7Fi+a90KuBMVHZIa7BmKLzIraX+rwh95myexjVid/rgI7lLgNzb+UOcM1nuLvP1jSV2Um/Do5WH47Zebp3W/f5tPp/9mHWa7YIjNHL1NHYZ4iM+w+OMfq37VK73GYY2XmRH9Z2duNIF12yGzn8/s0/5wFMrtglOdY+TXbIPe3DJTfvfLXdkeH0mCfHakc9nVkDhy59gC/3yIzfet3MgdxxKXcOsLvmzKHqfdHROaIrokyZ+IeyfysV2W2/ZggMzQWyZFK2iOzSGSSzIrLv6YhJEqml/ImmVVhjTnWSD4r0/NyTwZComTOx75Zqe2pzJY/25ewTJ6X/pzMUPTyHKt/6T4zfaPMqu85MtMpckXy7PHfZ+BnPSYzP3VdDpXfSzI9zn/LUPmdKDOknQvusXUv1XMDXZmOrY37POv/KLM7wDCZqThPpOl5n/WguMxWyp8e4YNynW3gvqSBbU1TL9MrdozM6rOETytot6SfyMzbu1HmrNZMeFxm/uLzOfAhT8hs3fNepX4l9qF8T9JVPn5haZM5MeNC+xKRaetlhrFu83HgjtgX50zXv1Uyq41/4fOXlTUyBxPUycypy5QVtvwe8Hn712Wfpyep/4sKB/LZvcfHZbfJ1r1r0thx0inpuzJD2dfL7C35QRsWu7P1F8/G9jjvldku5VDzFZ+Q6S1rT8MlTZeZd3KR/LFFTYfM8PJ3sxBuegvKzEn7kvy5ofVa++HLduA9Xd49v/Zgn8cbMvxwOZjzZIZpan1UhskjJVdk+TrOsC+cfto7c7PMRua/Uf+2Jkulq2TmHPttGsTfbQdDtntGL5HZwcEvn90OmdHM76QpjwxILg099/YPmZVRvz3In7lf0vlpvCkrbEqfKTORN+7RCrpLZo7gGEn/nuWQKFtO/2nL7XEfNZAdMnO0ZsgbvaJPy/SwP+2Tt+grZLaW2OCh63pUZoTADz1kDfYBfYoHQqIkPSWzn+ENMqMtXvaWTC/2ZPuyHPPANd1n696v5Y/RqVdk9lw8S94YPv+jbYvv8/hnN2Hv8UTbOdKuPJWt3rRWmS0vLtP+wwd3KXPDcytllqZPkRkWb/PIfVkh6WM2IH5D3psf+JbMBOXL5O15Tz0yJyNMkFlM4qUh382SzpRZEe3FBqhRZsXnZPvi5kVNMj10J9jw48Xr+4qtf7d7LFTEtOe4vI8o9SuGB6JLZu7hAlv/fqbUnoqVqpf4j9i694hHA89LMnvOJq/Ray9PH5bp3V7qsWuL2JeSY+w93qY8l60j/HobJTOccKbMCt5LlL0evgqZockblNlzYpOh5mGZRTfP+Oxl40qZHrvJHrmmDpm5qP+p/TdC96IRMvMXr1D2V5c3ymzT8F2Zbaf85GSZ827PV3anlGy0Lyi/0p4Nxv1gnn14JyfOZ1KnzMKKB2QWS/mt92a2zCrYy5TdHTY6ZM6bvt0GRb94v6QvysydzGZ4vUtmmHmrXwouV4/wO1DYWCSzisgrvXrJRvNKpW9Zf0Jmg9O7bQPptwdzb0GZ4Y2P29CfjQf1Ghu079LANtzNlmNl5s5ekIXye1Nm3tXd9qHtZ5NlVuun87O7ry4bcH4jMy0j4ePyc2RWtS+Q2QvveKV+a51WmRXsT8lMR1qm3NiVotY+N65W5s7+7pCZivGwrYMtPi6/E2WmaVyqzGznFJFZlf1rmd1Don4rsHwKil5WIDO36P0yK56O0cB6fZpktsZ4TKYHdatyz2iZ3rELbOBO54kRa2X21/s/+7DJhe1nJsus0v9wmoNOiy27u+0D282xelhow87Fks5W/04+OJgdMot8/mwf1G3KTQFbJ2fJzC0bL3Nq0nCZY/qq+vh/emwY3CmzOfAmmSkrK2WGuTfmYH3b13j7zDjHBqChKfq+nTKHTSyWOYryH8riitg0KbPP3Its+aWyHWywz99HZHqx/RysCYoeVWM/9O+RmeQ6QWYuYYnMKSYB+8DotI3kevu1UmbV4+o8aCB7G2If1ifJbHU0QwM75WCtDYRLZRaDrMrhsiuUmYCebCwHepyYa8vrSRtsnlLu7C16uA/uU+3LywwbfgYd5v+73X52V8oM6S2T6YWFkTy7O3kMHfY3Rma+4FT776Nt4K6ROXWoQqZnOnkcXYcNMZtkTiBbI3N29evyxqKeTL6ozJLZR3W2zK4lE3ToVefJI/422rJbbp8bOfUMJigiFxXLzP8c2+urxv568rjAFtsjsbtXb8Q6+wFvyuOymyAzDDjb/vs420tRYb9cW2bt9iGTLLe1tuxeyvPyO1DPRa1Mz1iR9t72qUlmzuZ2Wx8BeOtZUq09nTSSWd/Qatu/nfL3FBDPBMUC6hoyrMu+2S2nKI5Ysnf6AYoiZdpFDxjg12dJF8WQfgGKAAAAAARFAAAAEBQBAAAwMMxRBJAqgyQdJ7MbwHiZlZ21MqsTy+1Xbz0yC5eaZRaNbJZZ3bleZnXnW8qv1Z0YuBLtWVk8XWax3HCZDcSL7e8X2jqXsPVum617G2RWFL9q66BLceIIjZTZD3eizKr24TIL5pKL5CIyCw632bbuDVvfdhMUkUmOzIrYqZImyayMHaE9KzsLZXqSEzIrxFpk9oPbLultme0/VtiGMl9V27Ibbz/oR9nyq7JfpX2Eni6Zvcx6ZI732i5zju56mS1pVin3tqIZJrNtz9kyp6KM6+f3OJAuSS9qz76jS+Tdc9lTJWjrXHKPwkrtvRq7R2brrYjMquwmmdWdDXnc3p0os2frGTLbloUO8zOefLmZ1Mfv75TZn/BJmT1ad+V4OZbal7xptt2bYNu8QfYrbPNCmQ01ydXFyfq30z4/NshsRbNCZuVxrhsus9/jmbb+9WevTNeGxcck/UFmj0xvfch8tD2OY8PPKZJm2sQ+0jakJbbiNtsGc4N9MC+zX7lcYYO2cTxLZo+49/RqBAdiq8w+e3+T2Zg0V7dVGWHL7XjbEzFdZu/HVOuR2Z7mUdsYrPZpeRXJHPFWJ+m9yuz0lZ0yx5P93L7Q+F2JDdjzZPaJm2l7IUL9+F7t9kGd/Fovs8/jy/LXMYKHa6ikf7FfY9P8s6K2HfylzCEJubDlSsi2ewvs11Sl9mCEhMzWXItl9rt9UrlzuESJzGEIV0k6LQ1t4BuSfipzwtghN1JnH0UTDk+VOYrrQpve+/OAflzmkPk/5UijmdyI+TJJH0hRMDxUGf5V5gzMf+ZAD8Q8mSOizrUNZDY8Ienz8s82QWFJH7PXPMID1/OQpFvkv02vy2xbdrWk023wTidXpofnn/bF73H7Qu1Xk2XOBL5C2TlTeY2kb0v6rfw5ND1e5rjc65TZ87wTkl6QdL8NQH6sg0Mlfca+nFRn4OdtkvQFSb8jKB74oXStvSlTUhx4HpI503apDyvqJEkftWVTm6VreFnSl2S6yf32gP64pBtsY+kFCVvH/9vjZXeCbdyneuy6eiR9StLPfFD/qiR9UtK/KXPnT/clJtPDc6dMz7ZfNhKvkfRNG3K8MGVqqW1LXvdJ+Q2T9DVJC7MUsHvrkjlb+Zsy05788Oz4gv3slmXh5//F1vut2QqKXlv17Ng3nXWSfpHikCiZnrgrZOY6PS3TW+kHc23AfVPSZ7MYEiUzRPuo/Rrjk/K7RGYo7lYPhcTk5+82STd6tNwcmR7ExR4MicnP8/9I+pbH699F9rP79SyHRNmQdZake2WGqK/wwef3MpmpGh+Xd+bVz5WZ1lTnk/JbaYNt2APXUyxzlv1amSFcL7tAZhrbLVkKiZKZA/myzEhY1h5UXjFN0jOSfqOBn2l7OObLDMc8KjOJ14vmy0yoXmIfNl66XwtkJuB6+UFTJDOf7Q9ZDteH8mPbmHtJlaQ/SvqO+jdnLpO+KNNDFvbYdSWD7EPK7DDf4RohM6z1PXlzq7Sh9voeUHrmDaeifblT0vc9Wn7J9u8BD7yg9KVC0j2SfqDUzo9MhVpb9/4ks5gx24ZJ+rt97uZlUHQkfU7SK8pOD98Cm9Z/p75Xv2XD2TbEPi2zksqrqmy5/VJmgq+XTLIBe5EP3viDtsG83CPX816ZuZMXyT/qbEM60iPXM0XSc/Jub3Fvn7EvzKM8cj0FMr2Hq+SPHs9P2/LzUpidLrNbgB/av0/JzIEf7JE8crVMD6zX6l6x7fSYk29BcbDMXLdbs9wb4NhKsVJmkvLkLF3H+2y4+Zv8MywuSR+RGYY51iMPmc/J9HbO8lEZhmWGAz+VxWuotD0QTyr9K0kH4kATq0+x9/1DWb6PX7ZB+wQf1b9zbDC7Sdkb3i2RmYO9WmbVZ43Pym+lB172SmUW27zsw/q3QmZxZrbMlZlmc7dHQuuBPiN/zvQLcTaD4hSZCcHneOgmFEi6xjaYD8jsz5VuhTLzMpfLTFqdK3+aLrP9y/eUvbkc59hruFV79p3zk6DMMMw92n+fxnTX+xtk5tEtsi9OXuYc4uXzfpkenikZvqbLJL0m6RtK/2rmgTjQ9i7lkn4kM3dskW2bMmGmzPBtvaQ7ZPbw86MhMts3/SULL81l9gV5g8zCi7APy2+opIdlRqlGZ/DnHifTU7fYJ8/fITIdWhlrp7O16vkUmbH/ah/clMUy84z+KLNaK1XGyaxA+6i8OX9pILbJzG27Q4exD1QKnC7pK/L2MP2R2iAz4fvRNAfTS2RWQ05V7onILIr7L5mtJtIhbMvwZkmzc6z8Wmzo/p1tB1O1YXyxzMT8s2X25JyYg3XPteHjRzJDwOkywz5DrvbJ8/RwdcnsTvJDmcMLUi0gM+3sXyWd54OX475cJ+m3ubo9zlkyO92X+uymNNtG8w8ycwf7c7RYrcy8rw/ZUJPrZ21vlXS7zFYIW1L8vatkenA+YXskctUjNsilcrf+Svtg+bS8tQr8cB6+/WnQY7an4i6ZaR2p2BLmOJm9OK/PwRe9vnTILDZ8UWZD4FU2fHccIkQPl+kdmmo/p8fKHAqQzR6vRIbb3jdlhjMfsWU30Je742WGaC/I8bZP9rN6r/3sPqeBb3Y+2z6Dr1Nmey3TYbOkoxcvmpf2E78yHRRPtg11ic9vUJPMYpNnZYaM37I3rbdC+6Y8WaY7e76tpEHln7jMvLc/ymw0vaGf32eCTO/hxfaFozCPynCJzH6BD8mcwnGkymSG5q+U2W4hHUPzCZl5Ri/IbEf0jqSNMnulNWvPsV+SWUldZu9hjQ1bY+xnZqakk9LUQ9IsM3E++fldq0MfCxiQmbN5kkxP2Lny7/BoqrXJnJiTkOmBLJeZylBl7182emqiMnOml9tgttxeY6v23ui5XGbl91Ey0xSOs8+odM5Rr7ef5Zdl5jS+Y1+oG/f5c8UyQ4zj7Ndke31z7YteNrTbsi1TdnZC2GI/u8/aMtxwiM9uSGZR42yZOf/nKDNbuq23ofZ1e82N9itus89IW99Ots+zgbTFVy9eNO/eXAqKM+wNrlTu2m17PYqV3TlKcZkJ4cnG6C3bGG23jXnvMDtEZrXjFPuBOi0Db1rbbJhYYRvKetuId/dqwEtsA360DQ9zMthz02HLb63tNam319wgc85uc68HY8w+DIO9HpC1tgyn2cZgfgofmN22EVpi7+0qe22Ntu4VyZzNOkbSMfa+zrFf6erFWS4zPeNh+0BOhYB9KF5v3/7TtcAiYsPsJntfO2w5ltl7OUqm1zVTLyWNtr7V24DdbcNY7wBRZD8f5fYzMcr+Mx9fQpNcmZGeX8n03LUM4HuNty9UizLc6xS1YawqSwG7SWaKwUqZXtBVvUJsX1OIBtm2bpgts+RL3gnKzArw5Ge3QWaoerfMljvlMj3ZozIYaFdpzyb2R9IRUimzl+Qt6t+JV0sXL5qX9rHnTAXFwTKLDFKR5jtl5jc+YYPQO7aClNnKmUzqF9kHdb7YJTOk/1fbYA7kiKRZMtuN1OV4sE/aacvt77YnYp1SezzXJ2Xm2uSaHpkNuX+s9J5/+wGZaR9FOVr//iLpPpmh3f5O0QjaB/ZU2/M0S2aIclIefH7/Yh+0r6X4+4ZlDjj4uryz0XeqJWzd+4VSM7SbNFmm5/0KZXGj6Ax4XmZq0JMD/D7lMjtOXHmYf367bRPvW7xo3gu5EhQfkRnuGogtMitqf6nDH3qbJbOPWZ38uQrsUOI2NP9S5gzXeIq//2BJX5WZ8OvkYPntlJmnd799m0+n/2cfZrlii8wcvUwdhXmKzLD74Byrf9cqvcdhjpWZE/1lZW83gnTZIbOdz+/T/HMWyOyCUZ5j5ddsg9zfMlB+98pf2x0dSoN9dqRy2NeROXDk2gP8fovM9K3fyRzEEZdy6wi/b8ocpt4fEZkjuibKnIl7JPOzXpXZ9mOCzNBYJEcqaY/MIpFJMisu/5qGkCiZXsqbZFaFNeZYI/msTM/LPRkIiZI5H/tmpbanMlv+bF/CMnle+nMyQ9HLc6z+pfvM9I0yq77nyEynyBXJs8d/n4Gf9ZjM/NR1OVR+L8n0OP8tQ+V3osyQdi64x9a9VM8NdGU6tjbu86z/o8zuAMNkpuI8kabnfdaD4jJbKX96hA/KdbaB+5IGtjVNvUyv2DEyq88SPq2g3ZJ+IjNv70aZs1oz4XGZ+YvP58CHPCGzdc97lfqV2IfyPUlX+fiFpU3mxIwL7UtEpq2XGca6zceBO2JfnDNd/1bJrDb+hc9fVtbIHExQJzOnLlNW2PJ7wOftX5d9np6k/i8qHMhn9x4fl90mW/euSWPHSaek78oMZV8vs7fkB21Y7M7WXzwb2+O8V2a7lEPNV3xCpresPQ2XNF1m3slF8scWNR0yw8vfzUK46S0oMyftS/LnhtZr7Ycv24H3dHn3/NqDfR5vyPDD5WDOkxmmqfVRGSaPlFyR5es4w75w+mnvzM0yG5n/Rv3bmiyVrpKZc+y3aRB/tx0M2e4ZvURmBwe/fHY7ZEYzv5OmPDIguTT03Ns/ZFZG/fYgf+Z+Seen8aassCl9psxE3rhHK+gumTmCYyT9e5ZDomw5/actt8d91EB2yMzRmiFv9Io+LdPD/rRP3qKvkNlaYoOHrutRmRECP/SQNdgH9CkeCImS9JTMfoY3yIy2eNlbMr3Yk+3LcswD13SfrXu/lj9Gp16R2XPxLHlj+PyPti2+z+Of3YS9xxNt50i78lS2etNaZba8uEz7Dx/cpcwNz62UWZo+RWZYvM0j92WFpI/ZgPgNeW9+4FsyE5Qvk7fnPfXInIwwQWYxiZeGfDdLOlNmRbQXG6BGmRWfk+2Lmxc1yfTQnWDDjxev7yu2/t3usVAR057j8j6i1K8YHogumbmHC2z9+5lSeypWql7iP2Lr3iMeDTwvyew5m7xGr708fVimd3upx64tYl9KjrH3eJvyXLaO8OttlMxwwpkyK3gvUfZ6+CpkhiZvUGbPiU2GmodlFt0847OXjStleuwme+SaOmTmov6n9t8I3YtGyMxfvELZX13eKLNNw3dltp3yk5Nlzrs9X9mdUrLRvqD8Sns2GPeDefbhnZw4n0mdMgsrHpBZLOW33pvZMqtgL1N2d9jokDlv+nYbFP3i/ZK+KDN3Mpvh9S6ZYeatfim4XD3C70BhY5HMKiKv9OolG80rlb5l/QmZDU7vtg2k3x7MvQVlhjc+bkN/Nh7Ua2zQvksD23A3W46VmTt7QRbK702ZeVd324e2n02WWa2fzs/uvrpswPmNzLSMhI/Lz5FZ1b5AZi+845X6rXVaZVawPyUzHWmZcmNXilr73LhamTv7u0NmKsbDtg62+Lj8TpSZpnGpMrOdU0RmVfavZXYPifqtwPIpKHpZgczcovfLrHg6RgPr9WmS2RrjMZke1K3KPaNlescusIE7nSdGrJXZX+//7MMmF7afmSyzSv/DaQ46Lbbs7rYPbDfH6mGhDTsXSzpb/Tv54GB2yCzy+bN9ULcpNwVsnZwlM7dsvMypScNljumr6uP/6bFhcKfM5sCbZKasrJQZ5t6Yg/VtX+PtM+McG4CGpuj7dsocNrFY5ijKfyiLK2LTpMw+cy+y5ZfKdrDBPn8fkenF9nOwJih6VI390L9HZpLrBJm5hCUyp5gE7AOj0zaS6+3XSplVj6vzoIHsbYh9WJ8ks9XRDA3slIO1NhAulVkMsiqHy65QZgJ6srEc6HFiri2vJ22weUq5s7fo4T64T7UvLzNs+Bl0mP/vdvvZXSkzpLdMphcWRvLs7uQxdNjfGJn5glPtv4+2gbtG5tShCpme6eRxdB02xGySOYFsjczZ1a/LG4t6MvmiMktmH9XZMruWTNChV50nj/jbaMtuuX1u5NQzmKCIXFQsM/9zbK+vGvvryeMCW2yPxO5evRHr7Ae8KY/LboLMMOBs++/jbC9Fhf1ybZm124dMstzW2rJ7Kc/L70A9F7UyPWNF2nvbpyaZOZvbbX0E4K1nSbX2dNJIZn1Dq23/dsrfU0A8ExQLqGvIsC77Zrecojhiyd7pByiKlGkXPWCAX58lXRRD+gUoAgAAABAUAQAAQFAEAADAwDBHEUCqDJJ0nMxuAONlVnbWyqxOLLdfvfXILFxqllk0sllmded6mdWdbym/Vndi4Eq0Z2XxdJnFcsNlNhAvtr9faOtcwta7bbbubZBZUfyqrYMuxYkjNFJmP9yJMqvah8ssmEsukovILDjcZtu6N2x9201QRCY5Mitip0qaJLMydoT2rOwslOlJTsisEGuR2Q9uu6S3Zbb/WGEbynxVbctuvP2gH2XLr8p+lfYRerpk9jLrkTnea7vMObrrZbakWaXc24pmmMy2PWfLnIoyrp/f40C6JL2oPfuOLpF3z2VPlaCtc8k9Ciu192rsHpmttyIyq7KbZFZ3NuRxe3eizJ6tZ8hsWxY6zM948uVmUh+/v1Nmf8InZfZo3ZXj5VhqX/Km2XZvgm3zBtmvsM0LZTbUJFcXJ+vfTvv82CCzFc0KmZXHuW64zH6PZ9r615+9Ml0bFh+T9AeZPTK99SHz0fY4jg0/p0iaaRP7SNuQltiK22wbzA32wbzMfuVyhQ3axvEsmT3i3tOrERyIrTL77P1NZmPSXN1WZYQtt+NtT8R0mb0fU61HZnuaR21jsNqn5VUkc8RbnaT3KrPTV3bKHE/2c/tC43clNmDPk9knbqbthQj143u12wd18mu9zD6PL8tfxwgerqGS/sV+jU3zz4radvCXMock5MKWKyHb7i2wX1OV2oMREjJbcy2W2e/2SeXO4RIlMochXCXptDS0gW9I+qnMCWOH3EidfRRNODxV5iiuC216788D+nGZQ+b/lCONZnIj5sskfSBFwfBQZfhXmTMw/5kDPRDzZI6IOtc2kNnwhKTPyz/bBIUlfcxe8wgPXM9Dkm6R/za9LrNt2dWSTrfBO51cmR6ef9oXv8ftC7VfTZY5E/gKZedM5TWSvi3pt/Ln0PR4meNyr1Nmz/NOSHpB0v02APmxDg6V9Bn7clKdgZ+3SdIXJP2OoHjgh9K19qZMSXHgeUjmTNulPqyokyR91JZNbZau4WVJX5LpJvfbA/rjkm6wjaUXJGwd/2+Pl90JtnGf6rHr6pH0KUk/80H9q5L0SUn/psydP92XmEwPz50yPdt+2Ui8RtI3bcjxwpSppbYted0n5TdM0tckLcxSwO6tS+Zs5W/KTHvyw7PjC/azW5aFn/8XW++3Zisoem3Vs2PfdNZJ+kWKQ6JkeuKukJnr9LRMb6UfzLUB901Jn81iSJTMEO2j9muMT8rvEpmhuFs9FBKTn7/bJN3o0XJzZHoQF3swJCY/z/8j6Vser38X2c/u17McEmVD1lmS7pUZor7CB5/fy2Smanxc3plXP1dmWlOdT8pvpQ22YQ9cT7HMWfZrZYZwvewCmWlst2QpJEpmDuTLMiNhWXtQecU0Sc9I+o0Gfqbt4ZgvMxzzqMwkXi+aLzOheol92Hjpfi2QmYDr5QdNkcx8tj9kOVwfyo9tY+4lVZL+KOk76t+cuUz6okwPWdhj15UMsg8ps8N8h2uEzLDW9+TNrdKG2ut7QOmZN5yK9uVOSd/3aPkl278HPPCC0pcKSfdI+oFSOz8yFWpt3fuTzGLGbBsm6e/2uZuXQdGR9DlJryg7PXwLbFr/nfpe/ZYNZ9sQ+7TMSiqvqrLl9kuZCb5eMskG7EU+eOMP2gbzco9cz3tl5k5eJP+osw3pSI9czxRJz8m7vcW9fca+MI/yyPUUyPQerpI/ejw/bcvPS2F2usxuAX5o/z4lMwd+sEfyyNUyPbBeq3vFttNjTr4FxcEyc91uzXJvgGMrxUqZScqTs3Qd77Ph5m/yz7C4JH1EZhjmWI88ZD4n09s5y0dlGJYZDvxUFq+h0vZAPKn0ryQdiANNrD7F3vcPZfk+ftkG7RN8VP/OscHsJmVveLdEZg72aplVnzU+K7+VHnjZK5VZbPOyD+vfCpnFmdkyV2aazd0eCa0H+oz8OdMvxNkMilNkJgSf46GbUCDpGttgPiCzP1e6FcrMy1wuM2l1rvxpusz2L99T9uZynGOv4Vbt2XfOT4IywzD3aP99GtNd72+QmUe3yL44eZlziJfP+2V6eKZk+Jouk/SapG8o/auZB+JA27uUS/qRzNyxRbZtyoSZMsO39ZLukNnDz4+GyGzf9JcsvDSX2RfkDTILL8I+LL+hkh6WGaUancGfe5xMT91inzx/h8h0aGWsnc7WqudTZMb+q31wUxbLzDP6o8xqrVQZJ7MC7aPy5vylgdgmM7ftDh3GPlApcLqkr8jbw/RHaoPMhO9H0xxML5FZDTlVuScisyjuv2S2mkiHsC3DmyXNzrHya7Gh+3e2HUzVhvHFMhPzz5bZk3NiDtY914aPH8kMAafLDPsMudonz9PD1SWzO8kPZQ4vSLWAzLSzf5V0ng9ejvtynaTf5ur2OGfJ7HRf6rOb0mwbzT/IzB3sz9FitTLzvj5kQ02un7W9VdLtMlshbEnx966S6cH5hO2RyFWP2CCXyt36K+2D5dPy1irww3n49qdBj9meirtkpnWkYkuY42T24rw+B1/0+tIhs9jwRZkNgVfZ8N1xiBA9XKZ3aKr9nB4rcyhANnu8Ehlue9+UGc58xJbdQF/ujpcZor0gx9s+2c/qvfaz+5wGvtn5bPsMvk6Z7bVMh82Sjl68aF7aT/zKdFA82TbUJT6/QU0yi02elRkyfsvetN4K7ZvyZJnu7Pm2kgaVf+Iy897+KLPR9IZ+fp8JMr2HF9sXjsI8KsMlMvsFPiRzCseRKpMZmr9SZruFdAzNJ2TmGb0gsx3RO5I2yuyV1qw9x35JZiV1mb2HNTZsjbGfmZmSTkpTD0mzzMT55Od3rQ59LGBAZs7mSTI9YefKv8OjqdYmc2JOQqYHslxmKkOVvX/Z6KmJysyZXm6D2XJ7ja3ae6PncpmV30fJTFM4zj6j0jlHvd5+ll+WmdP4jn2hbtznzxXLDDGOs1+T7fXNtS962dBuy7ZM2dkJYYv97D5ry3DDIT67IZlFjbNl5vyfo8xs6bbehtrX7TU32q+4zT4jbX072T7PBtIWX7140bx7cykozrA3uFK5a7ft9ShWducoxWUmhCcbo7dsY7TdNua9w+wQmdWOU+wH6rQMvGlts2FihW0o620j3t2rAS+xDfjRNjzMyWDPTYctv7W216TeXnODzDm7zb0ejDH7MAz2ekDW2jKcZhuD+Sl8YHbbRmiJvber7LU12rpXJHM26xhJx9j7Osd+pasXZ7nM9IyH7QM5FQL2oXi9fftP1wKLiA2zm+x97bDlWGbv5SiZXtdMvZQ02vpWbwN2tw1jvQNEkf18lNvPxCj7z3x8CU1yZUZ6fiXTc9cygO813r5QLcpwr1PUhrGqLAXsJpkpBitlekFX9QqxfU0hGmTbumG2zJIveScoMyvAk5/dBpmh6t0yW+6Uy/Rkj8pgoF2lPZvYH0lHSKXMXpK3qH8nXi1dvGhe2seeMxUUB8ssMkhFmu+Umd/4hA1C79gKUmYrZzKpX2Qf1Plil8yQ/l9tgzmQI5JmyWw3UpfjwT5ppy23v9ueiHVK7fFcn5SZa5NremQ25P6x0nv+7Qdkpn0U5Wj9+4uk+2SGdvs7RSNoH9hTbc/TLJkhykl58Pn9i33Qvpbi7xuWOeDg6/LORt+plrB17xdKzdBu0mSZnvcrlMWNojPgeZmpQU8O8PuUy+w4ceVh/vnttk28b/GieS/kSlB8RGa4ayC2yKyo/aUOf+htlsw+ZnXy5yqwQ4nb0PxLmTNc4yn+/oMlfVVmwq+Tg+W3U2ae3v32bT6d/p99mOWKLTJz9DJ1FOYpMsPug3Os/l2r9B6HOVZmTvSXlb3dCNJlh8x2Pr9P889ZILMLRnmOlV+zDXJ/y0D53St/bXd0KA322ZHKYV9H5sCRaw/w+y0y07d+J3MQR1zKrSP8vilzmHp/RGSO6JoocybukczPelVm248JMkNjkRyppD0yi0Qmyay4/GsaQqJkeilvklkV1phjjeSzMj0v92QgJErmfOybldqeymz5s30Jy+R56c/JDEUvz7H6l+4z0zfKrPqeIzOdIlckzx7/fQZ+1mMy81PX5VD5vSTT4/y3DJXfiTJD2rngHlv3Uj030JXp2Nq4z7P+jzK7AwyTmYrzRJqe91kPistspfzpET4o19kG7ksa2NY09TK9YsfIrD5L+LSCdkv6icy8vRtlzmrNhMdl5i8+nwMf8oTM1j3vVepXYh/K9yRd5eMXljaZEzMutC8RmbZeZhjrNh8H7oh9cc50/Vsls9r4Fz5/WVkjczBBncycukxZYcvvAZ+3f132eXqS+r+ocCCf3Xt8XHabbN27Jo0dJ52SviszlH29zN6SH7RhsTtbf/FsbI/zXpntUg41X/EJmd6y9jRc0nSZeScXyR9b1HTIDC9/NwvhpregzJy0L8mfG1qvtR++bAfe0+Xd82sP9nm8IcMPl4M5T2aYptZHZZg8UnJFlq/jDPvC6ae9MzfLbGT+G/Vva7JUukpmzrHfpkH83XYwZLtn9BKZHRz88tntkBnN/E6a8siA5NLQc2//kFkZ9duD/Jn7JZ2fxpuywqb0mTITeeMeraC7ZOYIjpH071kOibLl9J+23B73UQPZITNHa4a80Sv6tEwP+9M+eYu+QmZriQ0euq5HZUYI/NBD1mAf0Kd4ICRK0lMy+xneIDPa4mVvyfRiT7YvyzEPXNN9tu79Wv4YnXpFZs/Fs+SN4fM/2rb4Po9/dhP2Hk+0nSPtylPZ6k1rldny4jLtP3xwlzI3PLdSZmn6FJlh8TaP3JcVkj5mA+I35L35gW/JTFC+TN6e99QjczLCBJnFJF4a8t0s6UyZFdFebIAaZVZ8TrYvbl7UJNNDd4INP168vq/Y+ne7x0JFTHuOy/uIUr9ieCC6ZOYeLrD172dK7alYqXqJ/4ite494NPC8JLPnbPIavfby9GGZ3u2lHru2iH0pOcbe423Kc9k6wq+3UTLDCWfKrOC9RNnr4auQGZq8QZk9JzYZah6WWXTzjM9eNq6U6bGb7JFr6pCZi/qf2n8jdC8aITN/8Qplf3V5o8w2Dd+V2XbKT06WOe/2fGV3SslG+4LyK+3ZYNwP5tmHd3LifCZ1yiyseEBmsZTfem9my6yCvUzZ3WGjQ+a86dttUPSL90v6oszcyWyG17tkhpm3+qXgcvUIvwOFjUUyq4i80quXbDSvVPqW9SdkNji92zaQfnsw9xaUGd74uA392XhQr7FB+y4NbMPdbDlWZu7sBVkovzdl5l3dbR/afjZZZrV+Oj+7++qyAec3MtMyEj4uP0dmVfsCmb3wjlfqt9ZplVnB/pTMdKRlyo1dKWrtc+NqZe7s7w6ZqRgP2zrY4uPyO1Fmmsalysx2ThGZVdm/ltk9JOq3AsunoOhlBTJzi94vs+LpGA2s16dJZmuMx2R6ULcq94yW6R27wAbudJ4YsVZmf73/sw+bXNh+ZrLMKv0PpznotNiyu9s+sN0cq4eFNuxcLOls9e/kg4PZIbPI58/2Qd2m3BSwdXKWzNyy8TKnJg2XOaavqo//p8eGwZ0ymwNvkpmyslJmmHtjDta3fY23z4xzbAAamqLv2ylz2MRimaMo/6EsrohNkzL7zL3Ill8q28EG+/x9RKYX28/BmqDoUTX2Q/8emUmuE2TmEpbInGISsA+MTttIrrdfK2VWPa7OgwaytyH2YX2SzFZHMzSwUw7W2kC4VGYxyKocLrtCmQnoycZyoMeJuba8nrTB5inlzt6ih/vgPtW+vMyw4WfQYf6/2+1nd6XMkN4ymV5YGMmzu5PH0GF/Y2TmC061/z7aBu4amVOHKmR6ppPH0XXYELNJ5gSyNTJnV78ubyzqyeSLyiyZfVRny+xaMkGHXnWePOJvoy275fa5kVPPYIIiclGxzPzPsb2+auyvJ48LbLE9Ert79Uassx/wpjwuuwkyw4Cz7b+Ps70UFfbLtWXWbh8yyXJba8vupTwvvwP1XNTK9IwVae9tn5pk5mxut/URgLeeJdXa00kjmfUNrbb92yl/TwHJr6AIAAAA/wlQBAAAACAoAgAAgKAIAAAAgiIAAAAIigAAACAoAgAAgKAIAAAAgiIAAAAIigAAACAoAgAAgKAIAAAAgiIAAAAIigAAAMDe/v8AR5VErtuwDOsAAAAASUVORK5CYII=;" vertex="1" parent="1">
          <mxGeometry x="460" y="285" width="80" height="80" as="geometry" />
        </mxCell>
        <mxCell id="sNEKoTjBMUW5g9Me4UbA-6" value="" style="shape=image;verticalLabelPosition=bottom;labelBackgroundColor=default;verticalAlign=top;aspect=fixed;imageAspect=0;image=data:image/png,iVBORw0KGgoAAAANSUhEUgAAAMsAAADFCAYAAAD68QZDAAAACXBIWXMAAA7EAAAOxAGVKw4bAAAAIGNIUk0AAHolAACAgwAA+f8AAIDpAAB1MAAA6mAAADqYAAAXb5JfxUYAAH3GSURBVHja7P15vCXXVd6Nf/dQVWe4U8+julvz0JplyzICYSFQbBzMmzgxGBMnhsQEYyDGvPAL8IFACIMDNqPBxNjBwTivE2PHxBgbZMvCsoWslrrVaqnV6m61eh7vfM85VbWH3x97V51zb0ueepKaW/oc3b73nntOnaq99lrrWc96lvDes3icg8PErxosYHAAZPFrF4dEQnxkPUDAdAZ7js+sns3LsXa7PSmdt0vTxokNKvy+kxZIKdFS4/GAQAPCE97IheeRLN6Cs32IRWM5R0e8rF4EqxEG8Br04HM8xjikUMwk8HDBbX93vPemv9n7xJv3TJ9YlugmvjvE5avWHb33ujUf/u4x3v8tsFN6C8IjvAfrQQhQBXiPE20EArF4B876oRcvwYXcqgRCCKSCTgFf+tJjr/v8gaPvOJyUuJai0+kgcs3BgwdX3398zztXXr1x/yuvvWRnsEUP3iOECMZSvR4Cj180l0VjeekcVpQAqOoHKi5eG7931dWXTBv4gxMzv/lHve7PTGSrYWwMOVvinIPGUo57z/GZQxw7Ofu7m8bZ8R1L1X2jGJBgEFgknnZ8+eDJ2ou39qwfcvESXCiv0g/V9u+fGduyZcs9vV4P2m3odvHeI6UEG62r3ebkyZNs3br17ulePu+lHA6LjTnM4rHoWV5yu5CIqUvYj7rCAYZU+3DRuwqk5JmM9n/L89/8jFC3wUpU0YSeR+aGLMvwjRk63uC1ZqYzzB91xM+3O8nEj2b2t5tCIxA0vMeXAukBGfe/xQR/0bNcPNuUhBL2HChu3rp161sRArIM2+0ipaTdbmOMwVqLL8tgBMPDzM7O8sgjj9zb6/UoyzKmKiLYiAygAc4tXt9zEQwsomHn6HDhuhYyeBhZ5igFVhoMHscQx+fgX+x67shj+6ZXO5ogBEvyHGst00NDcTs7EnOdsf5re/i5y5e86x03rPnZ5RVcXG17yiwGDYue5aW4FfURKSklQso6t/DAjh3H7jx27NhqZ0zwCN7X3uJrHbt3777xuSOz6yrjqW20ynEWj8Wc5aVy+OhR0mrtCwlWkJQNZJbyMcG9v9Y78mcHizboFIxEas3s0FwIuUwacYAhlAfhg8coZROATxZDr5YTvO/XVvK9y1NsyjQOhyPDIxhavAWLnuUlZTB+YNcXAoxBpinOwrbtO+86duzYapTqJ+WASJL4h1/LaQmefvrp1+7dO3cDgMXiIjtgERVbzFleUoeNdqKL4BF8qpmI6cUXT/Kqf/PkI5+fOilIGcFai5XRstoe8pykbIBXNZpmVTcaggYUJAkUBf98ub7vx++64idvFG7HUu/BiGBsqVq8CYue5SViLI5+Dd0Eg0mA2RweffTJ75yanAQpKYoi3AilAoplLaivY6FHhOzZZ5+95+mnj9xee69ud16utHgs5iwv+iN1FoSCtIdNHYaUDpJf6/X+/K97/k3t2fX4TNORU7gkRQpAGuguQUqJEV2QFghJjxc+bG1VMbO0JDLh8fYYfzgx+e5l3TWHvqvJZ0dFe/HiL3qWl9gx4B1kvMxzBeqpp556+dzcHM45vPeQJEgpsUVRe5evKzTWGmMMaZry3HPPjT355P47CgukMdZbPBY9y/nLziOM5RO8gDJGNooy8L18XJEuC0+rbSMP4VeRgYRZXTIjUmaQjQ88N/6rjx1Ir+plS7GRNdYqAtTbGW6GNS5mw0v7FOWSQL0HTFZG6nIODpKyifOermrSTdfzvonxX16lNhz4V44P6gQKxtFoGp0RsFAMR49XToHWIJp4ZG1XPnLKdPUDubg0Fj3L+byyHlIRIOB9U+Obt2/f/k4pJfYs1EJElZd4D1IyOzvLAw9u/3+63WoX1M9/l+XiLV80lrN+uDqeEQT2sIrfWUTIR4QKvxSh+Up4EKjgZqQBWeJoM0577HcPjP/BF0tJJ7c0KEnsLImdpdM2dNqGbFaSzcrg7KUGZbAqj+9mw6lYDVYhnEJYh/YanASRMGsS7tt75HX/X48fPg40fEbDpcy2oNOGtAiPQrUpRDN+EoeMD1WHGXox4Fg0lgsRyoWKx+79Uzfv3bv3jizLsMYENvGZmrJzaK3rmoxSCiklW7Zsu3e8y7KKIzYvfaka0hbrMIs5y1k9hOt/dRJVLbQYy1dtwkISfmcHYn1B4GgpyUNw43ufnvqtp9VVeOFgqEOHDlpVOY8EFLl2KKdQZfBfNsvDVmYBrxE2JkWiiqYqeFiA85SiybGxjP893XvD8L7i1C9d2Xhbqgc6AWRwlCUSD2QYwCJqc8rCkxbtaNGzXAivArBz7+zLjxw5cpsvSyiKUEw8C4VgIQTGmNhSHFA01+2ilGL79u13Hjs21z7tBvt59rZ4LBrLWVrr6PiQ+JisE/OSkNGE/xQGvAnoWHyOFTApEj7d1Xf88ZHjv/nM8ErIM/DDgIE0wSiFkYosV2Q5kBhsliO9RHoZX88hPfEhw7kIhRcKowyl6oEtgBKUBhrMtpfxJT904389PvuBLXBN20DbgdGGPMvJgFblalxSPwokBYBy4bF4LBrL+TM22Lp1692HDx9eVhQFpAEV4yyxgoUQKKWClzImeJcso4w1nCeeeOINJ070NtQqM7DYl79oLOfmsCTxEdMRP+BdHEg8ggJ8DuTxKxTCcxz4X13e/MEJ8csdP4JLAD8JbQM9SAqJKNvg2uRakyegTIkyJWXiKBMHLkGYfrujEy68sfKgPKWylLJAyB5C5GDngiHKjCJLeby1kt/Zc+T3twuWdSR4SlI8Or4MXoaEy2vwuhZlMnQxdBcXwKKxnGUMABEWqDGhfuE9UgpyYOvWna+amppK6mq8c4F1LGW/RnIOD+ccR48eveqJJ/bf6RYRsEVjOZeHqj1M9CyDvCwfKPE1HCYEqIy5VLAf1MdOdN/x3yfStxxXY7hE0RAGZAfcNCkgCon0MV+QAqREuvBAliA8yqZIn2IkGGXwsgy/qy01eAYvYp3EOZQr41dHITJ294b5jdmTH/ik5XWSFvgMbAnC4QXhIcND21C9twPA3uKxaCxnCezyoX+kQqN8sKXxrl39la985d29Xg+ZJOF5zoXnCMHZquB/zRsrJSjF8ePHl23d+uSr6vDSmMWb900ei3WWFwqxXLg4Vpr+tuJ0Db9KkeHxWO9QKmEKeBZWfPRY/s6/7SZ4mnghKTgOQpE4ifeenk5wGJTooABnwy5f6sAx02VQgbG+GVA4VckeuZBrlKGfxQtVu0ArABe8ocAGBoGRpCrhqF/Fn8wV77h6mi3fO8KHlycpCFnXV3oi7JeNuG1mvl3FmIvHomc5uzmLiTu1AA6Nc9XWrVvfYa2te+qJlXXvPdba4GXOAz+r9mhC0Ol0eOSRx++d7JB8Xb0yi8eiZ/nGMuRqOxlIjEUJPiBUJTJ4hqxJDhwpaf/tM8fe9LcuA9VGInHWkapwiQvpgSQSyATSzoWwSEpC9Tx4lsyEn88l0QKlC2xjF/hbqcnAJ+QqCR5FAcKCdFgP+AQFSFEEAEIOUZZj/G9z7M0rJqcO/Eo2+gvgwmcBymi4QkCGgl405MbiElj0LGcZAFAE1aO9e2dv2LVr149KrcG5gHgZg3Mu5CjOhep9VRs5D56lrsP0euR5zs6dO18+cWrqvLz/RRlJLPbgP/+RVyMiTFSp97LvaaTAAh0cBslea9f95OfHv/DwzKnLSxWNolte2A8Qz1dlAtvrgU1ptdr8m5V88P99xYYfWsYcTaCca9NsBmQsrIi5GFYudlwuepZvZL19jdpEkMuDXbt23Xb06NHLhQgwMGV5wc9daA3GYMsyeDOt6Xa7HD16dMOeY9M3A5S+pNnsC1g6NwCJLx6LxvL1XxiLwgVkyclAyFXQi0VHiWMMzRcK7nnfoew39+gJnHBIoyB/McQMIY/Bp0BGKiDNe3whF/f84eGJ9xygPVyKMZAlUpehLcd7BCNYWosLYNFYvoG19jVGAjnv8Hi2bdt714EDB65Jm02MMaF//kXQjeiN6edI1uK9J0kSiqJg7969r9q9Z/wWDfjoVpz1NbPALWolLxrLN3JoQHvqTkgjoRChu9DimBCavz7Knf/t5NAv7m2uoEhboA2qV9JwL4YiRQHSIG0CNsFKS6+pmGksZ5tYz+8dKX//AbhdCAveIJlDUMTAcxFeXjSWbz55Oe3oAQ8//PBrpqenkVkGvR4ohYjTvC74UfW4REZy3f8SPd/+/ftv3LHzxJ0IEZKVyDCoBPsXj0Vj+foPo0LFXliQtqaFGSwdcv78KD/zvmL052ebGpckQBtchkh8PfXrgnpGa9HOgbKggrgrOJAZkPBMY4jfP9V59990mrfPqXaoK3mDlIvF+0Vj+YaTFjH/a2VDGApX8Nhjj91dFEXYlXs9aDZDJyScF+7X17R1Y0KdZVDpUuuQxxiD0JpDhw7xxBNP3RlPOhiZWuwsXjSWb/bKuJC4KEo8OUdptn/v2d5vfbQ78urJxjD4Xui373ZBJRTSY5MLf1kTmeFKQMyCLlEkKCNATELWwXuHE0t5z8H83f9zjjeZdIjCayQGXL54/xeN5Zv0MLFwK5EcmDh65WOPPfbOl/znioiXMYavfOXJe6em50h0gvMOJRcT/EVj+QaOnsuxykVdLkUHwQFc8l+PifffV6yo+1pCH4gBmYdH1SBygY9SpZQqpVVYWkX4LOHzdMPDS5yAcTXCh4/pN//RtP35vZAYkbJIGVw0lm9uA7bUXuXJ55585dNPP31bs9m8CO68DGhZ1FZ+/PHHf/V4XmwAKMvFKv6isXwDR0MlYC2mAcckfAV5zXufle9+zq1mVjfIbElmy4iS6boe8+I5goZmpTkZdMwMWZmRlRlQQCJxWPKW5jNdyZ8emPnPO2FFL1kMwxaN5RsO60NcrwU88vSue48ePXpbjS691A/vEWkKUmJ6PZxzPPnkk2987oS5dvHOLxrLN3Z0LYkIuo0PF5N3/ME+/e6n08vAOASSPOp+ORHrFz4JD+n6apYX8EhKSVJKeq2EXluQFCVJUZKLYXIxDE4jygLaJaRzdJMx9k+N8alnDr91B1y+uAAWjeUbWG2xyct7tmzZcs/MzIwyJjRh+Yuhj10IXKcTcpcswxYFQgh27dr1pueem75mcQE8zyW7WPtZfJyYFWrvGl2tbxG3CDGJ85auGMGTMDRFmGPXysmxKFrkwPt6/MS773/0dw91Q1I/LDK63S6mVcTXUeA1uhc1vqJXMSIL75VMAMHIEgtpOQwuw4iMQoFPu4ElQBEQNqv7KYegrw5pLMpCYgV4TU+HJ+koIFnNVZnLKlHmr+7dtNaYakSf1mEkuDFkQ0MsX76ch24YFcOtoPTiMCyP1xMTrkM4TYOy1fslIMHK2Xj6F9+85H/UnqXicAmYh5YKBB7Ic3jkkcfvzfOcikNVlmWojL/ED1OW4TNFfYCwGiRlWTI+Ps6jj+686zRZpOp5/0jBsosWUBexV15XOYWWlcsBoEcDgaBtE/BhhokH2kaTAns0yacneMvnnjvy2qnG8ppoKKxHSUnuVH+/8TJ6h6DxFdCBNLxg/TyHEeB00DG2IlbJfRk8D7ZOdZTTZEX4u05UffXCYQXYlNCTLzVgMeWAxwRI4osU8muhFzXBsqLpoxTOWrozM/xm2fuAz/m3r8m431uNVRoVnDROVrxkXW+3PvLhlB+afz6LnuViitd8bUN24PvxOdY89NDD7xNC9Hfeav6jvQi21qg6UxuOD/0sQgbRwPHx8cu3bt15t13QnnOexGkWPct5PeJm6VV1Z8sqrwUUvpIviTO4g1C+YC7RdC38+SHz85/oOIpll2DmLDiP1CFkESLkDcG6VJX8hR1fxfdx0cPYoCJcqT9aGUW+vI1eLkcN2p7XeBRFPG/p5nsOK+LM8L4bwgxESH0W5Fdf0ZU802CzmncOISUqTdklV/PeU+YXrzjO1u9ZxcdHooO22uCRKBv+Jo+OM6vaQ13Sz7kWPcvFAgDMR4YG+yKPHOkt27p1611aa8per66rOGMwxpAkyUXgUH0dfkmlgkeJP6s2hOnpaR555JHvykN/WFwwEvePdBzyRUwCCje0iPuBDtMe6z2iZcNu7ZMSISQNG3rtP5dw4/tPTfzaA655jRhuQnc2UNu9QZU+zDkRedyNVZDg8iC9nfe+XncDShYndxkpwq+qk4jzXIRXoZVERkV7wpxKm1bTkuM0LhOQryzmIka5vm6YjA7SQxI3+FJ+bWN5HsQjhloOaGKzFn+W5z/aGKfzzhF+epkGhUU5Vy8dW6FkLouzNC/eFfWPN2cRz5PwGjg5nq998sknX5umKb7XC/UWrevQRWtN+SJQbzlLcCB4H2Dj6GHkINInBEVRsGXL9nt6vUXa/sVrLCoHldeULRkneVl0SDViaUP4EH7kiWa7ZNmvPPn0R3ekKyiEjF2FFkwX7bt40aGUBS4TobghQ5HDV7NTkCgTet6RNry/708yDuhYeCRWQ+4QtPC+ASoDPFJ6krxgzdwUS04dQ3VPohMLdDFNidMK4QWNUtIuZMiJvASp8UqjbIKyyTdmMBHEcJFYGXIQjSocc8PD/G2R3PwbR06+fxe0yU1kVQdxZYVEo0Am8ecmInyLxnJxRWkqZsZxgTz++L67JiYmhs9HodY5R5plOOeCxlfsuqzQNuccS5YsIUkSzNQUNBrQ6/UVZM7xUZZlQMtEmEGzb9++H9534uTmmhs3AInVOYycH84t5iwvkaMq2KdVAXxgW1DV/wR4myI0/KXjdb82ffzPDpejIBtBW9gTUCthgvcAvNBxYlYcNCkMSCgIQ7mES9GASbrx+TFHEANDjQBlBJnKKCjxXgWv4nOWz8zw8pHWg69fs/H32u325CNF/pm/2b2bnW6SXKX4RJCLFNEJr6edxAjCnBegV9WTzrBy6EU0gdyDE/z1XMr0VPk/rh5Lr16VgKQkwZOZUE8qEoOUPvT9O1eHrovGcrHkLNYjtMBa2LL1iXtOnjw5TLY+Tvk5xy5dyqC2oiUYg2pkiKIkTVPuvPPGT377Mj5qIGnAtx4bHn7Htq2PvJ60GTJ57DkPCurczDtEo4HvTrN79+6rdpflzauv3bAVwDobzkJEdE34i7oQc9Eai6bZR50g9HQAacWZkhLvBcck/K9JfvS9M/lPdLN1JCZU2F2FDEUuTK0FbKNaY13nKMNiUWBQqDLmC9b10azgSuodX1lQQmFNCYkE6WmYaVbOneT7N61/179ZxrtWGQfel2sT9WB7TXtmamfz9Q9OjHO83QTRpJcm9eRk4as6i4pK5WchDNMWhEcWltSU9IaWc2Suy3tOzP6RuZafvIbk4ZUyIYkOLBVJeGMpLtow7B83N0zCVI/2I488dk+32w29HcacF92vurgZaSdFUbBkyZKjd9xx/acUhDmVQmA9rGix/447bv9prXVYiOcjxIl6Y1pr8jxC5UKwb9++O554+sCdUWksSiidjrAtepaX0pH3kxYrbD+LsfFji4SekLxvcvY3P97zr0euB2/JmEa6HqUcCk5BJv19xSvwGYkFRQkiJ5dFfF6oh9iYymCSkPPUya8L/DEf5qg4kSG0D7pe3rKiZfjuqzd+8HWSB7Cz0JgEBMPFKNe7oUk1yp/sXrrmlk+cPPSmiVRh0gTvVUVJi4tWxhpIPI8z2kkMeEehm2AcIxMFoHkyW8XvjHfevXGGp1YM8zdZ0gPnEXkTnCRvghHmotTg/0eMhjmmpjxPPPHEncaYsJMWRaCun89+FaWgKFi+fPmpG69c9wAe5k3nSgL1fUgz84pXXPHpdvs8LcOowo/3EPMXpRRZlnHkyBGeemrn7T1LDT0PYgrqIpV/Vf/pP/2ni/KDeT2L0CXQQHqNJMUWKS4tmZYlR1RT/cYTB//0/0yPvKbXE+C76FZGz0qs1GHHx9YqLmHsnQNR4FSBUTYgbD4L1WubBgVLLAiL9g6BwyQiEI+9DXRdkyJthpOCRCiSuQ6XScGv3zT0mn86vOQ+ZW3gh8kWgiEoU5AwKh3X0Nm+x9vLjhyavKnZW4spFKYxAylACdYgaSGlxnGmBp+GOpMvQBhMq0NPd7FmKZ4xdnbl3WrNEnNHU/+9QgM9yDyFsHgcifXgBV6GCyjqCxnUMQssBofGhaGYVoCFjgosvhcjoeii9SyhJ8XX4bMxkKZBUVKheObo5G2HDx9+S6/TqeeXmLIMkHGansMTC1rI1hi01jjnuO666+7fuGbjU76K+eP5O19PVcVZS7PR5OYbLr9/5cqVR+vcSso6v5FZFp3muedudbtdHn/88LdOTUUbiPUXfxHrWV60xuJoAUN15VyKLogSwyiHaA//wZFT7/77XJP1eiSi8hApCIsTZ07B9z62ZIocZAFCoF1CwzgS5yFRTPmCV2Tj/OhG99NXIk8EVq/D6+BdZKlBGpCGWeWZQPIG+OBPDbXfJkf24tJJ0mIUiiGwCV5qrJ/Gi9kzPv+kkCSFhKSExCFsE10OoXxJ4kpmfc4Xpg68+r2nJn95tyLBBA0C5T0pEq8SvJKUhEekXIPVKKuRKCQKXyF4MmwM+kWcSF+0xlL3nERFb6U1xhkUsHP3xO3PPvvsnUVRkFZexNqwSyuFP0fcr4oS770PVXvnuOWWW/5o3Ui2y9UYge8j3lrWvSYajYlgwU03rfv8pk2bDmmtw+esdvXIAjgfnZxKKay1bNu27ReP99hQ5YFaXLyY0UVrLD5EwyGWFl3AoIXjfrjzdw93/2CH2MhMcyndhsSpMCFLugQpLVXvyxkZqxJ91oD3Yb69t5RCUwpozY3zqiVmx9suMT91LWZmqAuJAYOkQFE1eBYqx8gCjWQUydLZLtenbvIn12Y/fqsYxzofeWVDQfk/MXh95uefOEniZGRHO5QZAtcEUVLqLkUmOKmb/I1o8l/3nXz/yRQKrdE2QRcSF6+iH0SWB7hxafQtFokhtl4qR4IhwSway3lFLtTAaMeoviiEZMdTx+44cODANdXPTFmGDsHYUuucQ52DfpWKz1XNb1FKccst19+/tLm0V5qyzmjrmD96xKrLpnRBeqNSnblizbrHNmzY8Mkatap4XOerk9P7IEJoDM8888xtew/ObKgdmro40bCLGjoWkqCCbx2zss2nZpp3/u7J2d/am43E2SsZCI/B4bUDadDeoZw9C+8dOGXYDGyGVaGgKIWm6RPetIoP/uhQ8dPLnCW11XMtCRoZd1onQaARaNqFIDVAVlLKWW7H7fuF4ewHXzk2ty+x0xEYSEBkeHvmoVA3MRTKkPWaZL0mRjpM4rCpCWUqmyBsi1IPsUMvHf6tI8f/2xdhcyX2oiykFlIcKZGZrV0llBnySPpCnrYGZirkbNFYzmMYFmaNVLE0wPbtO+48fOgQ1az6euZiNb8k9qWfq34VKWX9eNnLbvvb0STtUXmLKmeqFk/8tu7f1BLycF6JSrDOcuWVa2Y2bdq0Q2s9v2p+HnZ2KWXotNQaej327dt37zP7T94sJbji4kTELt4wDIPEUOoEm7b5i2ne/N4T7jdRK3DCQzoHcgplJcopUD0QHbwRaHHm0HHiBfSKAO0IATQpS8WK7hRv29D47TcPFR9ZQYETjeDhkgS0R/uw8VodZlgqm6FsFl6nnQBNoIl2Am0M/2G5f9u/GJr7OH4KTAclR0Jt5kw3G5VjkhxhWwjbgjT0B9VqNoVE+yxw4cqEx9RS3nXw+Ac/K7m9bAooLdgSUeQImwM5hpyO7JBLgxUuyKL5+EAy39csGst59Cz9mSpTUx0efvjxV8/OzoZe8/Px/t6TZFksZvrALG42Wbp06akbb1zzwBm/QWQZrB0b3X/99dc/mDabkCTYojhvnqVS4FdJgrWWiYmJ5IkdB+90nvkI48D9UKiXbC3mIjaWhBzNXmTjD6ftL/5/E803TiVjJFKFXS/OKanmlrSKklZR1nNNztizGYUoBGgDbhqFZ92c5adXyh/53gafrCPEWLzGSXASKxwOh8IF0kjcaGtUqSIWNBROOdZg+OEx99s/OOQ+uqaYIylKpD0bYWR4o14i6SUyqtFYRAmi1JRS4LQiKS1NL/Aq5WQ5yp/vO/wf/0/Ja6cbilInQAZOIaPHNDgsJuSJ9NGx/geUL9plefHWWWKSfnhm+vJt27b9coVAOefOL4XcWkhTlFIsX7786K23XnLf2dhXBaEV2DjDcGuYW2659r52u11qrc/PtGTvQ03K+9iXo0Frjh8/vuLRR5+8p/CQJKpmF1TX/KVc4b9ouWGzQrILVn/wcPc//9WBEzfOqTbGhn2NRNMoQFuNSUMvvTIBhzEqi52QZ0gZkZIkSSlnZliawjXdOX78xjU//F2jbEmLHKMzQqkRZFV/AIwMyymJk1WMCBO6VGgvwaqqBd6hRPh7hWdDKrfkpyayg+OH78qVJj/T4qD0cYGHGc3CCYSLMJZwwWNKgXVBaVPLBG0Esypjr/WvHF41enJpI9meaGkyq8BohBN45ZEIRJwbM+g9wy7g6+1g0bOcx2PfsXzzU0899SbvPTbPQyyvVD2Z99w7FYuMvSpXXHHFp667tPVQhX6JM1wMNf8r9sinwB13XPV/lyxZsu+8qM8MzKkRUiKiEkyapszOzvLoo4/+wRSsVIMeNnpE+xIVS75ojWUnbPrU7iNvfeZki1k9Cs0uDJVIPFjqOSVZUZIVJb22oNdK0KVEl2d+WYw05PRoJQ1uSTbsevul/NRm2F9ID1KgMUH53kavIoOH88j4CEG8tmETr0J5xRyKObQWWCcCbOYyRoE7JA+99srV71+fds9CnCdBSDLbIXMd0jIjLTN84vCJA2fCpOZU4VNJlndJTU4nGWU6W8unZmb4+HOHf+wwNPBAoaHQpE6hvY6fMfbdiEHv4uBFKuJ30RrL03tO3bZ37943CCHCLpxlUBS4oiA5l6zi/tYfhLad44Yb1j+4YcXyXT6ic2cTcavuonNBNOOWK1bfv3bt2p3nJRerWM9RQilN0/Bz78nznKeeeupnprssq5V0XBU+vjQr/C/i+SxhdzQ+9NLrCuHRxI5FiSlBpXMIIZkiwUa+6uEZxr7z8VMT4+PjlJ0OJEkg/pUleI9K069NCYkqKe1OTExVBysg11FPzKaQJDRmT+Ex5KOhnVbOrAkUfHUEkgl+uGh+5OfvufNfXTqEpfQULYEDGhUCFNX0K9F7SVaPZvl6QrFK3LssS5IkoSxL9u3b17hjd6/b7ZS0e4Y0aXHENvHNBMRs0DyrNQICrV+5PGJgw/Ou/ze/DTdBSv7dRj789ps2/uSlcGrYAz4PPKQsOpyY8Gd5oPGYzMTb/OIjZL50PYsHnfRnrFQ7tgWeeOKZOycnJwNKE8cqVEk3UmLPRidk7DWXUvZZvrHuAIHl3Gw2ufXWW+8bHo5BeirO2kWvRPEqFnNlNEmSsGbNmt7mzZt3GWNqRoKMHqC+Duf6iHy1p59++k2HpuaudBWCZm3Nb1vMWc5aGNME18SKEivK2Asf1R6dJJehU9HSovQZQ0iWAPfN8drfnph6Xz47G1ThI7xpre2Lxn1dzVEGMPQST6E81ofzCXUDELaAvEMnc3QyydC0pjWT4Bs5tpGzqneSNzZaH733suaHRnSMxQXYqr5Qx+oqPCJpSn+dIykrKLz6txwwgKGhIX52mfyhu5KCk1Ix3sgQSQ/sTED5DEFX2WsgR7i8vt6IufA4482ki8qn2GLG+LOnu790DBpzUlDoVryXswhm8SR4EkwWnJx2Gu30orGc1RMXct6/nQvefevWHXefPHlyHVLWKE2lOlkrqpyFnVVG1flBj6LiwCOAdrtd3nrrLfc1oHRVs4q1Z7XOUDGYq3/byAIGWNNmzy233PJ7g8+pc4zzgQZG9nOapuzcufPVu3aduq3WAvSLFfyz7FmIcro5ipxCOgrd/7nDktMLvCIHcxI+eczf+745+c59zVXI6OoHIdZ6nMLXYyzCxmleBiehkAm5TmoPkPoeKRGORiFIUbKBKqbI/DHetLL969/X5k/WeWh4D7ILOkcNoj0SEDo8qh7BrxMMGhTVqEO/AZrLjXD0J5aIn7x3NHlY5ZOYpISGRxQFyvu6Yq6NRjmNVaGGU13vM48TC5LEM+1HebKxjt98rvuBL8AdCoMXHsMQhiEaFhoW5oBpCLmUXUTDzvoxmAR2S3jkkUfunZubq4WuvbWhjyV6GTh7u5q1to9Gxa/VAl66dCm33nrDfXIgv/HVXErOThV7sEo/CFYMhmNjYy1uu23zfVnszUdKfFGcl07KKjS0USvg+PHjV23ZeuSe0rx0RcPli/rMJGgaaBo4LI6y3hFTZ1F4SuE5nnvee4xf/WPTfGepxyBp9eckDlI/vhEaiEvAJbGXL8cnJqhKRo9TaEspLTpvQpEx25TMZj1uZpZ3Lm391L2aB0a7ZXBOzuCFAiH7PeYDnKj5g5W+PiisWvCDyf28jcTlDNsebxvh535kiX5PIkEUgG5ROl3nZPiYLCQ5JDnSJkh7FhJwoSmRiLRB4TzPjozxrlNTv/rJbu/eqdijo50OfTzCkIVsMIQJatGznF0wLO7mzjtmZmaSxx7b9qqyLOu+FAAxMG/EL6g2n7lb0xBfS0aUDSlZunTp1ps2r/88EDouY6+MTFOcCzmLOAtUjkE0rDKWeWWAyIFrp3DjjTf+fZIkeGtJms1zpjEw7/zie9TQdlEwMzXFU089dUfnJepcXrzcMF8CjhwNQkU+kUBF7WAhoex0eSZtjv3Rwcn3/I8jvX9WNptIL/BF2Z+iWy2gAQP5empL2jSRNsHLLl740NcuyiggUWHXTZwNnDJdzHK57vIrN1z2vd8+0tySueghpAClQWqESELnuQ8aWaHOEpu94ukpaeIgSfl1JfeDhj/4vRcSIRVZMcONQ25nOVXIXfsnvn2qNRbPpYw2FXKySnFTyhRzFnTHtUywHYsfSsN1S3qgSnbkrbubK1cXd6V8EedBK5x3sUrmsDLBAkoscsO+gTAojmaoBLpxQUfL93+ftVrsPX7kxp07d761Yra6skScjx7wSq9Lqeg1HNdee+0D69Yt2fNiuHw1cyECHddfv/HBSy65ZH9V/6iQQaF18L6RY2aMOSs9PypqsWFMH33znqmpKbZu3X3X7ORcPSajrgHFnE+Ixeavb9BYSvCGnJwcSI0mswleFfjE0NEpzwqtfn3K/9lnZ1OUl4gyEK3qWShncKSxh9xqhU0IE0it6YfUNo1N8l0cJ3m1sPy/Q2P/7gZhTiW+wEsXxkHKOMHCM79vY0HbRlVpsfG/M/fMcUZlzIG+J+Ozvzic/cBKU5J1p0mK2KKip3DqFEnRQpXtYEjJmS8LbxKUSEGMg54K5+NGyOUIH50xr37fKf+OE4q6r8UrhdXqrIWp/8gS/H7FeXA6bgUFS2D7E3vufPbZZzfpLAs94WUZdtLzoMhY9/DH2Py22277L2vWiGdfLDtjJfjicNg4HPbaa5c/tHHjxkPOufmFzIjsJUnyDRRtvza0XReBBxjKNJtgLY8++uirTs0G/fAKIZPiPCnTXHTGohPQCRKJJk76NVCKBsfQ3Ad3/u6x7u8fmxnDDi8jK0uy0oC2A7NQvvmj0F0K3Y2xfEJSZCRVmRmNFCCtYah7gn/ZsJ99+zL9C5sEpYkzsGv0jjhT0vVzFKTBqjI8qvEt0WPJ+N8Zh0HxJUpaGNEmywsuazv7H9bYt71Sd1nSsyhvIW2DzPCiE2pBznE2HJvTllIZKA3SOijaUGRIr8EZPuay173rmPnAU8hlXZ3RReOcDrMszaKxfDOBN/WE+rgxaRXu5eNP7bvr2LFjN+IcPs+x1qIHNbTOR6TY6zE6Osptt9123/Dwi+zSSXDW969fzOOuuKS99corr/yIEIKyKEJ8GKvtNjKGz8r1q7xJ5VFiXuQqhU2t2bp16xv2Hzl4TfUn1tpaL23RWL6Bo4MlJ0z1bRggKSAtyYGHT3LPe8Z7v/ZkYwXDpaQ1VdKTmrksC7mFOAthRGMO05gL2rxFhrJNlG1iRYIVCR4J2vPmpSve9QPD6l2JnEORI0XogJSxEi4W9Jh7cnIsHQwdTKBpCeq6i/AK4c8coPACrLCkJaQGZrRgUlmuhf0/vtT+5FWr9c7MapgbgnIpZMcps+Moo2m4s9DCoGfCwy9HFktIRUmmHarMUH4pc0NjPJbM8MFDnV9+GG5r2ZIUE3t7Fo3lG9sZY5JXszpiHtAt4Ykndtx54tgxfOyhSCoWa+wLPx85i5SS4eFhrr320ofbKWil5533iyKSVRqMr/O+am7Kpg0rT1xzzTVb2u12vy8l1o0G88IzzumkJEmSmsg6j9Da7UKS8PTTT9+zZ8/BG6s81RUv4kDnXPWzVJ85LWKcrg1WQC/62BYitFu7WFBT1QlFhWLhkEhSemAtTo4yJ+A3p/m1D3x+9388Wqp4fadBGFw1TZjl8WadWT9G4hphxHY6FXpbrEVkGfJYkxW6hfB7+Zd3XPYnv3Hpkh9pqjQgT8ZhE4MUEnHB+zEq5nAWzq1e/4H39bjPl/325/7hfR+dar6+YAQnU3SSYMsy1KGi8ddaBLoijQq0geE83LeudvSSCB8KQyjSEHp+AJxB2DA1Wllde825sWhQvsMtI9mJ99x5/d2vkOxoFEHgopeoIJRIgUbUwYInCTWpSntwgS61jzq452LLetF6FonsQ6hK4T1Mz8C2bXvu6na75/z9rbUkSYLSumYF+E6HoaEhyrJk/fr1h668ct2WVKdRGwzQMjCgvePFfozqkVM33XTTA41GI/TkaI3J89MKnecyH61qK+Pj4yu+8pW99zoXo4N6Rk1YB4L5Q10vFNh4zrY/teAfVkjswBsKM99Oy8HMlDCzURUGRAOcZndG+0PjE7/4hcnjd3Zsg1SaeR8jjxuZys/STEU5h/USK1MoVdAsLiymOU4yfJSfHrrh334n/M0Umkxa2jXyFWaUXPhoTFawVPD08T4k8YasAX5gbOXv7R45fvMnDhx/y5FlqwCPNBrnfKi6A2lkAOeyf39MAp2opFeo+EFduA8q3teoelY1tZLLoHUsbIJykMwIhGhQiILnxBzvHX/23SvNZfu/Tycfyzw0TAlCkCuNIfLG8AhZ1aOqhZP015kAK85dp+WLGg1T1VReAcdyd8m2bdt+xlp7XlizupoEFmcq4hzNZpNer8fGjRuPXn31yi3VGqnzFGsDB+0lMtq6kcHtt1//NyMjIz3KMoxG4/zUiWr0Mt7Lubk5tmzZdu/zBQ0eP8/jXHQJvsKgMHUBwUTVEoEkQ87v2xhQXKweqvTgFaXUHE/hXfsPfPDvUHREi6KpKZTFStvXbvQKXIZ2Dn0WElSflGHqVZkgfBNURtd5blOn+A/r0rfd1DInlvZ6DBN0egsKcpkjvHxRiJOYoB/TZ2lToijJ0eRo0i6MTcP3N/nom9c2fqVlplB5gREWm0q8NChvUN6hvCOxQZGymkSWNwx5avDKgrRxqpdEOk1iNZmRZEYOKLcEtRivHEZJEiOga0A2QC3jeHMZ75sef+ufzfJjxytatrcDCyQuEnI8vThPzPXXUUQcHWVd3/rH41liJ6KUsHef2fTMM8/cbGN/yvnotCvLEp2mYEzoi4lThTdv3vzRK9dueKzyJAH19Xh8mHoleLEq+SyEG+uY+NZbr79vzZo11g3ws871kWUZRVH073VZknc6PP74zrsm52gMnqZYkLGfj5mZz+sAzh3r2A78S8VkLYrKD3KjlAPp0cSH9WgvQmxsFQ9qNr/nqf1/9MWevMpV03u9hNTilMMJiUOTlAnKSkrlsNIPKBt+s67F4VUaJhFLScNOc8to79Dvrl/57TeMZuNedhGpQJmUxAQpeIFCCI31560u+sLGHuc16sp4vUN6cDLcC6UdKI8uLVcgD2Udf2DiyInvPaB93W7glKwjAlBIr3AiZtjCRdXKuK17j3JBWEB4EWkLHpvE/M2ZiKyFVZ83kzBRWelAuS4F2rc54P3mqSWrN1wzJj41JBKXmjDWJRiVC1rQAiSxHjXY/+PD0hDISuvyH4dncaVHa3jmuamb9+3bdw95HnKHqtf9XB9J0p8/Emc3XnfddQ+tX7+k9N5jbNyB8zz0tUSlxarU82I/XMXB0gFWvvba5V9euXLl/VRdlefedde5IM4h0xTvPb1ej61bt7+5YzsjZWkHE5c6opAXaNmeQ88SiVBeByfi40YEeOEohA3KLZQILNLk4FSc1AXdhuQ+uP0Xnt75yZ2zQilWoKwmEQpbFPjUhd0r7oKJCWm2SUx4ozON1MoEfBri8XKSN44Un/zZ69b90BphewJQqg2kkEqQHmkTlEsoVNgoXwz6JBKQIg/dnS6FWJaUAgpp6IqcLDbUrBDy5MZ07B+efObpt5/0EqtV0AZQCicSnNfgFcKFWZDOi+gp4vg/B16E3h4rwVQenuhRpEV4j/Ie6X1QtRRhnSgrGO1B5lKm2gkHhWPaFNdcuWb5368tmQmu0IESGBSeBB37mvI4BFn7sB6k1OfEq1xQz+Ljf9W8egYYsBCmQmzffvDbTp48mVQdgdZaivPVQ17pjRlD0mpxww03PLikkU4Sf3YxHIPwqhKwciUHNm/e/NFB70qex3mcof5yvkQZ9+zZ87p945ObAej1+2HgwlHH5LkzhirWZT5iIaDEUVBS4MLu51xk8ya4JKPTUHyi4A3//dDJX5owDXw2QqNUNI3GSwFaokpQA+Nw8xRyTT1d94wvjDekZcnK3gxvHuEjP7KkfNcaDF4JyJL+nBQGxooo0Lh6TvIFNYQodA+hx91oMDqcrLCOBpAi6AnIVchjLk2Y+3drlv7s9/j8s62pGRrWxpDA4pXEKkVqE1SekBiJGihmeeHxwtWPSrtZ25CHUrfXOAQOVRhUEYibVntyJclVmFGDTfiHbsp/Pzj1i094xmZGFFZJjFAogo6BjwCZxWDpayOcS6nkC+ZZBjlUUkZPYQxSCQoL27Y9ddeJEyeGSVPQut7RKq7ROT+/qMO1dOnSuVtvvea+oeYQHk8v73GxHJb5OmYOWLOCfTfffPMDSZKQ53noPxnocVFRtPCcG3ua8vTTT9/55JMn7qjm6F5oubFzlrO4eBtkVUiKH9RK8LG+q5GBO2aboCRzieSgQP3Pydkf//29J3/xVJmiRBthJF5YCl9ACtaWyAiD+D6pLOYwpg+LnMEx7Ltc0jvKD65f8itvvnTZ7w57h0CQIECm4XNIkDagP0aGKV464kdwgbP86MULKWN3ezirQPEKuLEsFUJJZJwQ7FzJsFBcqcTfHz02c93Bk0c3q4ag8GVokBGO1IjQDSw8RhEGQlbDipxC+UBQCTIFIt4niRMCfJjJIgDpwrMCNdBTakGpQVmBdAKyYU7mcFS525ddtnzXUsGeNqCNCXJr0kZyqEQh8EIjK8HxczSWUl64ezngKyN1QgDjJau3bNnyu7OzsyRpii2KMJs+7mguslnP9VEUBevWrdtx881X3h9qZK7uuX8xd/N9Q94zip9XnZRahhxmbExzyy3X3j8yMkKv1+v3uMSeF3kerr8tS8gyjh8/ftUjW/bfa7nwxAh5bre2qOs7MH8jlFg0CTroxdsGmKB2cggaf3no0E98drZDka6gbA6R5oohK+mlBb4VZtSnAqyWWC1jddmRGENiTJ07nOmxLunxPVet/5Nva/DgGIBJMXmYCqaUQzGLYravb+ZAO4cnPC68JYRcpYumiyYlJyOv70MZvbwuDZnxaCfRXpIxS5NZvmMNH3nd+nV/uNzOoOQcqDlQHi89FosTPuSklQyUCBdCWxUeTiK8xEiNkZpWL6XVS0ForNSUiaRMJMqGqWZVjlMnHSZFqKXsao7xx7PH3vkPJ3i18xEAcjmeHEkezttJSqAHYSqByF9qxvJ17B5x7mPVHXdqmtVPPfXUz9T6X7EvXAgBcQpvpRp/ro81a9bsum7D2ENxpEhI3htinmzqRXFUMx+txxpX5zBtweR116398tDQUFl3oGqNjjWnc58gqKCpYC3T09Ps2PH0K3s9Lmjicg5zlnBBVR76gPOkxEpHgkDhkaVFCkkpHL2GYqdi2R8/tf+3/+JY64ZethZsCcZSKk8h42q1QQ/LDZDJvAi5ghMixMVx6u/Xhuv65LyaOOgcUimazSbv26C+85VLl2xJoi0r6cCUSBW5XzLDk1AKga0mDgsRuyQrUWZPgcfGmpOE00lwGGoelHfBI8zjZ3+zniXs9g2gAbG/pq/2okTcKZMEpAIlkEogyJCkDPspXtYw22cnlpv9z4zf4+UQRjh6ooPNPE7p8EKRE4ZMAtPBdJCUAdkS/Q9aqvBY+PkrVKtyKPX3pofQPpx9spKnpo5/u16+vPuypc0HC5VgkDhShPDgLYkt0QK8SCGoNlxEnqXmfkkcsO/k+Obdu3e/kUYjeJFzD3c9bxBc1XO63W47N/Pg/VBxrnbjeTC5r3XNFuoYLxSg8A6wL34VeSUUxhluvnns8xs2bNhS9+hXYdc5h8N0f1JBniOlZMeOHXdMTNk4rWMQTZU1beJcUgfPmWeRTiC9xCceq0XEvxQJM0ABsoGVmo6UHDQM/9et4+//8kS50SYOZ03d13IuoeHqqtaeZeAq/+Vk44fuE0t+6AuGf7IDNh/OxMikFORSzlqdmHzghikgRaK8QFpBaCUPW7jyJZIuTsxRkNOTBYUSaCGjMmXwhF4prFQUeAwCfYHRNEOCEU1Waw42pT3xpf37vq9UCcZVOYoNdZQyQXqJoIN0JblKKM9G0Vg28S5y0IoZhNScHD91bW/NymzFaGPHOidntRAV7hYmKXuJUQ4viGzEs2y/F+pm+IEGqd27T9yye/fuu1RrBFMU6KSJOY+7b6XO6KPRWGspfcmOHXs2PD17ZMMTonj1ZW3BZRlsXjv2r69bteShtcvH9iRp26YiQQBlaZFOhel68zZfUavUDHqiF/vhvUeKMNLvisvHHrv82OWPnzx44katNaU19RjBc3gCoe7W0ChSTNHDe89jjz32H+9c/u2fvKkhjlZ5rxACFb13rWZzLjbYc5YslyFUmUqCPY7GnNBEhXQVF82nUXf++mcP/NlDk+XlACKdDKFQnCV5zm9IhEVrKkd1PbLZ8O/CIXQLKTLsbIFQCSsaw6weGz51zZKhr2xep7980zIeuBy2roLJBtC2ObIXCJa9Zoihq8qzKGN8nhCnE0fB8ihfWZWHxAU3lngbxQwljgdONO749c988ctfHF2F7xlUhJlt3BVG89BDMjUUiZjFGSKCrgFCkMnZcB7OkSQJrjvNd99x4wO/urH1vdfApM7DoCqaofWc2Cl5LjQQzh2RMlZ886j21qj0DqSvkyVjDJ/YMf6DDzxz8F/OZENYa2m0fOhzEOn5WRUL85a6wDYX4mCdooRGCI1Sadi1CsPkyeOtyYP7rzi4e9/dx/cc+Tez4xPHU2NnWllyYjTTdV4WEmGJdyHBF7VgOAMJcBXSidpKXizGgjAIJK7dnNpdZBu2zHRv7Bcbqb1xo2o/TuNnP9PIwOvQuVnO4pxDJwlFUZAITzF1cuOd7VUf39SWh5SP90uLiNfEzeccpOPnzrO4sNP0ZOiRbjhTR35WwKSA+6em7/13W49/ZmrC40qNkBKVzoZ2XtILskhqFfooESSE749o0LrGRISUSCmRziKKHMoeS1sNNl5yyf4r1yzfcud6/uoq2HIVPL7GgqowC8XAPMnw70gzAwypW6COcqGOIp6b7uKRGBT7Ds+0f+TJA49sGzfXzKpWQABV6ANudUcA6Azl/b8/k/sQ+7+8nwmWmw0HUmczg26X79k08uCP3rjhp1/jeAgJJjU4HKmPsr/q7K+fC5azlMD27dvvnDilgTGU1tiyPK/V8dowBsIvX/08VqyFlsjY4+GcwzuP1BpnbZANkoJWmqITSZ532bVr14Yjz+zacKDV+2d3rl7+LnnJVXZ0pLFjWC8wkhc9HBYuhkTS8yVKJKxfu2TuGtfe8viXd1xzPu6Nm5sjGQlcQJPn0GhA7CN66qmn7jyxZvk6RlqVmsW5Xy/nyrPkrkBLjTKxmIhECFXj6b86xc///kOP/+pxOweiBa6BSjPs1AxJllH6C1v8S0zUExEOhMXHWNhWC77O4Be4e2HCIutoMidojzou3zi0/zWXrP3vd46qj18PW5sxZQnVGB95cuE+5BhCtSNZENX2B8ieD7oJPgi+2a5EZQpkiReCZ2e1+u0vbP1v73XmLfgM5gyNbIiei5QYZRFC4s9wHJ7AxOuv40Tn6kJ4EgOSDlcuSybfc/cNd79CsHXYdEApjPNo1Tg3CO85g8mlPm2nqOxyerzL9u17v3VmZqb/hLhTc7Ymc13gI01TpJTMzMzw1FNPbfjMZz7zi399/xf/7RN7Dt/cK2194et+HphXp6kUHKvNTEqJUgop5XlhEdRDXZP5MPDYEPaWW26+T0clmCzLKCOPiySBosCfh/MTQjA+Pj726KN77ykH9nut9Dnr0T9nCb6P8YaQYL3DC4UXgmMCPnTY/MR7Dk/8uHESVCsos8gZkDnKtBBe4sSFJSs6rUPjpjI4YfAqwFgCg/YW6RzSgnQeaUMCL1xg3uIVJjOUqcXKJrkc5SAZD+X69v9b2n//+anev5pMx5JGi0MjMJUQ/lYJGUCy0qCStG64qm7+YNh4zr1LZCQIJHgohcJ5yRBwXWK3H5uYvPLwxNSNHbEEU1pk0kVS4E2GkClwhgYjywCA+GYo6YvAJtfOgnA4EqbKlN1u+t72FeuPv4LkEbymJyWlECTn4JKcsys+qMpYDsww3H9wbtPjjz9+F9VuFGfUVyrrUsqLg9XrfeC3WYvQGtpt0JqJkyd58sknL7/vvvt+6/P37/j+Zw/Mrq5Ivc5aXFnWY8nne2VfG406T03+YdKanw8SOmg0FC9/+bWfHhsbmzPGINIUZwzWGGTF5TsPni9JU6ampnj00SfuKaLe2LnUFT9nnkXZCN4JSU8n5Eieg/ZvHMg/9Ikj068rJSjRxOcSXIJSXbAOqxpB9/gCd/oIOgjyyN6N/eJCAQnONwIvyTcQPiEoh8WuT2+R3iOdD33pqgSXgzEIl5GKpZTJcnaZFp/vJd/1uTn/9mf90Aa/REwMKXlgSIWZNNbZ/uCmgdC0ylvOfTIr8VYhtcVLi4plPy8KnPBcJuT29Gh3YsfUydc6USKExcsU5zzembMAYug6qwOH8AbhHU6GbigvQidLrjL29rrXDS1be3L9iPiKJnDhzoXBnDtfXnUUu0A98MCeIwdv3r1796urRVD3plRs4oG59S/1o+77SNMQywuBdw5jDEVRIGOP/6FDhxr333//Wz/72cff/PRzszd2uy4qxKig2LjAw8jzdG0GVWrCfJz5oaAWcNNNGx5Yu3btvjKKiSulztt8HKkUJr5vp9Ph0UcfvXs6Z1hy7nr0z11RMs5QlLZHgufzTt3xJ08d/I3PFzMbjRpD2jG0S0h0gcLibRPhW3g9GYoSNrmwq923oy6AAh+xKx/yEeEFykenL8LDSovTZXioMJTHeUi6jtSmJD4lQYU++FTgVYFrWMohzclMsXWmc9vnTk7/6EOtla+aXib9TcZsqzyKcw7n3HkzFOhPKguMggLHNIguQrTAKRoeNilOWPLpQ0ePfe8BPYpLUrBddCJw7kxdS5iwhuwhYn+l8BqvNEiB1x6ERRcNRu0SdtviuvHV7U3/T5p9TItz0yh27nKWKu2IsyGPHj1x6e7du++qaKFChN4Q51yN/CRJMm+W5Ev6qOYzDuzGplK3rOYsliX0erUhzMzM8Oijj77qY5/a9RN79+5tTE9P12HYIDJ23nI63+85UlIjF5BbvYdrLl3x8KZNmz6LUmAtUuvz0/NT5bwxNC2KgkcfffQ7T52aOIeh6QvlBr5/QSCQTMMiKPFAx5ckIiH1UW+2Fm7OsAoKZugiyWnzeM7tP3Pf9r9+ZjZb1rUZotGg1Q16VnPDc4Ctp3XpXvAoJglNSdJJKEPIpkkDhu8UVgSDczKOqJZxPosPhqdMhSbFGF+4mCSHXEAlYQHWYy2k76NA1ecXgwrxIKyPpD0RakYQ9LMG/tDXe0QRimmI0OtRLbTqgkYBPyEc3hehriFE6Bb0nuHhlO+46aoH3rq0+bN3wEOjOGRpgDj7pYxbXcPQIygACxJG6sE4ZyEyGPwaP+ZEVNdf0nUgEtCSh4+7Df9i+33PHZxOUNklcdxeL3qoOJpdDVwn70/fp8WC7VuUcV0JlIsVXa8CawDCdTI9ZJqQ5AVNWzAsJNdddeWWt9w6+kvf18s/BZCnWWRJOCw5wzYINRodLpA28b1VBKF8Mv98zoZnScRAmFQ1Ebgwp97Hyq/HY4Bt2w59W6fTWVbDKl9f0A+xECelRGtd1xmEECRJUvc7+LLEFQWuwvidQ2tdhzBlWdZeTA5Mo6p2/XkU/eqhVKSii/oxmGiXA2yDweS7Cpms7SfoDBI0B14P58L5VjuxlMEjpSndbpfPfe5zd33m8w+95fCp2TEAoXVA1irIx/V3/pppe75wEdmXuVq9Wu6/6qqrHpeRAvS8dZbq85+tfpiY6w6CHWVZcvz48dt2TPLKag2pSCeSSBLiJOtvMkb7KhX8uXjt24Tp8iZaV6g4i3LAAgX0lBlAMaDRCw7jLzyv+89f/Nxf7CxFGzEMLoldcibG/ZXBNcFnODcUOuX0RPhQPqBKEhMgVGITEhEc0Comy8FTCBM9iLILti05sJCSMKFKaFTc8b0X8wzIiaI/vF6IoIASv4bJWNEz+ThkVPZvIFIGbpSPREnnBnaqcMEkAu0TcB7vJc6HOVcOi7cChEIjSXzJtWuXHf13m5f83N3L+eh6zFxKDyjDRCw/1u88FEBk6cLQGa3F+m76fv4JUOh+GcBiyWwD6eGLE1z1O3+/9b1/7abu6apR0KEskERPV8oYknpBImRAzICyoqq4sF6S+D6lrjrvZPQs8T1FJJuqyjsDRU7Dgyh6JEJywyUb93zg1lXXL2+GtnxJyVg87ZlEolC03HyP5sXzO7qzk7MMXMAXhAk78Oijj94zOzvbrr1PNUnra0IPqt4Bqnh9sJotBvIbV5bYPMflOTZ6kHrhVou3qnuUZSDkVVyw+LrOWrwxeGNwxsz3MvG5tZcqCowx/dxBqX4XZZ7D7GytIVDPa6weVdIeOw8HKSz1QylUfADs3r179ac//dAHtmw9ek9RFKf3bPjBe+AHEsZzDa+L+tJesoJdt9xy8+cHuxYHvW7lXQbrRWcIN9abafU+SimKouDQoUOXP/nks3dURq9QdaSizqCp7gU9i6cbL0gS132cBIVE+yxKaQTQopBQ0sPhGLaASDghE/7XAX74P2277/1d16ZXNMC10KQ45yhaZUyE8lrjChe0dPEaH0XA8fGiYPrq7RAo4FUPPWmQDLNBPT0REmOOI33Q8EqcIXGWNp6mMPXXEaUYbihGkoShTDGcKJJGQlsmDHck3kmc9FgRYuWuF8zZko6DydIy2Ss41e0yXRhyBKVOcN6TS8VxMRy0xarcKnq6KqdKtMa7CJk7GXRwItqjlMKJYPxNsxSlFLO+R3OkxeuvWv3xf3aZ/sN/IrkvROIzIbxAAhmNInrQMyQXFnEnTJ2sJHnm+Z1ZYZFIWi7B5yElmzkFP/7kl//3/5qYfH2ndUlAzTphc+gpH4TWiYztmCvaypXYIGesbdh08vhztcCubNXeQCxk+1D4RSukA5cXZFJz4wp96B13Xfe21wo+2QakyxHOx0ly/dy72lZ0RF+NGoyPTq/8fLPbykClNywKhYpsVcHELI1HH33snl7ZoxQpSrWxLiBCaZpSfK2BM9XuU8X3lQwO0Xikrp8TFpyPkVnIa9rtNs1UMTLUnls+3D60bKh9eNVQtn9pi6OjmlNLGhxtw0wD5pownUGvCTMiFLXmRuFE3KelA2Ug6UG7Gx7DOTTmYGwGlsxYlk52WXl8hkuOnxhfd3Kus07lyTVzRU/NdefI87yuu1RexJhAuKxyJlGlNtZinANlUY0GMi42lTXonjrFl7/87D9bsn/piRuuu/zBtauTXhI3s4KClOz8M5qtRSQKChgegdtvv/3Tn/r7L76+E3f9SvOtYnLXRdUzza2qfLICYpyLKjwKPBw9enTdtm2Nu7775ss+aZ1FSdmfnePOumeZj4LZgQ5HvAxCJCJ4FUdOozoDn+F6kh+Y5tOf+PvHXl0mGldK0M2BuoQAXyKsQcf3L7UKDT82i+L4M3XMKkSCsx6sQwvBEBrKOYbsHKPkrM0kq5uSDe2EFUtH37Ypa+y4frT5YEMnttFokGUZiUpCZFZR5P1XD1B70sY4VcwHaap/eRclKef/XV5AWTqOu7nGie7MukPjc1c+N9m99rnZ/N2H5gwH5iwnCkGRNIMagQCbKkQqolpnFeTHcLUVQ7lZC1kLmqPQ7fLqtRse/r4rGr/9hjE+mgJ5OUGapAjaZ7gLwjwIMJwUc/EF27aqL4UwM/RepWEIsoejGbz7K4+9+4+Py3d0C4HxDiFTUp+FMFa7eBNCTpIVZuDdNOVgu3LMl5TvZ1GuUn8RhNdxFWgkwVQCjAJsh1WjKX900+bvfNky7huVMAIw40K+2TIxF/fRg8ZGI/HCa+KbvqYvBCiYPGdqwrNj56E7jDGQ6IDw2HiRGg2YmYHka2+BVZ+Jj0NwtNa0Gw1GdYONay/fsTLzBzYtUU9duZQtazV7VsDhFkwvhcllfsFbLFT9iAbjB5LjgRD4tD7uSvVfxnxBinBhbWU3cU0HMEuynOHe0PDwnrUr2XMdPHQSPrsfrtk1zm0Hprlq95HJm4/OzW06OTOtZkyOLaNAYDRSkmasxcyGBdBqQ2HDtcsyHn/88dsvOT78upsuX/fA9VePHG0kDTwe6y1KnCexC+cQicYUJVom4CCRcNNNN/19+oWn31E6j4lU/XpTriY7n6kH9L4KaeLcHtEfqxe92MTEBNu3P3nny1513X0lZQB2+Obf+6vXWfzADqzmbzhd6eOCmiFD45xEkbFDMvY7W46/9/2Hnn0jNGh3g8eYa+t4sgEdSuYK0kzhlCU3JU4EuFd5j+4ZRs0sQyanIRxrUrhmxSg3rF3xg5cvG9m6PHGHNiwdm0yjBpmo+3TlC0aL8rQNwyzwoW7B1+YLuNqFz3uBpxm9YFG4OnzwEg7PlpxwasWeyc4tjx46/pltR8d5tlsybT0zKmFKWUTaREmNFRrvgyUnZeWJc0hyrh1tzr31tht+9gdb/OGIhVTGTkVxhkmLrcLgcL6d+OMWIJzrgzQR3LSxBdTHi/CeHfk7/+Thh39rz0oJsgU9HRjZlWhZjFSGuuE+zCWE6nxdj4qXTIQ6nlhwf/y8Amnc872qb4BUHucLlvgp3vbtt//6/29p8nNt4uv4vha1lwGGq+SEVZG9YJ3qm/Ysvl6k4d9KKryFvQeKG/fs2fNG2kktzu2cC1pg3kWBaREm/+ZzFEVei06bPCdtNlm2bJQN7ZW7rlyxdOvl6xuPX9pk+yrYvwIOLIFT4UObF9TxOBsb17k+xoYSJJxojAw9uHzD0PXXctlVO7u8fMe+4pVPHzvxcvKZ9ky3wHQ6oaiZZHV9wlc1LeDQoUPtz01NvPFbbnrFX912SbbfFyVCqQuuS37lldnWjcc2Pr6ns//Gmq4sNEIneH/u0TpXlshUYnLD9u3b7xy/4VbaS89ZBT+PFpxgARMtrxFncpQqApiug5KKHhnP9Wh/3/7Z57Y9unNZUySh0o5HioR8OEC9SeFolIak10X1JtBpyaphzeZEc00j46r1G15z7dqRr6wbsafaBN+hCAQ95ZMwtmrQRYiBHd/38Y1q53lB4QIvvwaw7r56ZRv5/NXu2pUNAhhxGLx7Ho9dIU1x5EthSybzDl/aduTeRyfzex6dnPyZPSR0RZsJpZnT8Q+1hrykYQzL8jm++45rPvzWq5f/7MsMh6qZ8GfDs5goOFLNdfR1LdLET+ajnxb9772mIwSffrx779sPPvCZYyUgR0AMo7o6wslVvBtyNNMg5KyF7Ffo513vSgVnPuGifx/kvIKJxaG0x5qCRMEv3HT1L73xsua7VkMvdUHJSdnqOjls9MiqbNYe8+zlLLHDT8XdzgInT7Ju7969y3SS4MuAemilEKiwsxQFZW4R1jHaarFp48pdmy5bteOy1erJGxQPXAo7RuDUKPQSujFLcEhCBT9kd4SxYKlaUB1+8WtxzV+M8erLgcIYodNvuDXMt79y9LNrYM+aafZ86Vjxuif3Hb9jfGJyGc6FxCj2AGVKYTvTTExMrJhl+Zi1HJIidhNc4OPqq5tbLksv23ds555NoW4WRhwmjcY516vWWmPKTsxFBY899tgv39V++cdWr0p2fLNv/cLGEuksAocG8hrqzcBV05cESFVH/9LM2iUTh8hZTq+5NCZzU2CmWTo9x1VScvPI8IdubLYeuOWKjfdtaDX3LRlWNEsC10kTQFoBNuYMtXyQG1hYqZpXea2G44bcTg6sRvA1ki7nJe79iq2c50dqpVYnn7/CK6p9tOzveOL0V/DxDyuUx4dBlAgixK5lDYd76xBOomMhNomSSDfDnleOsOfft5M/eXa03Xj4UPc1n9t/6vu3nOi8YUc2TLvdxs1M0nZwd7bkozfDDrIyvvOZsbarsTdqgaMVohp6EK5PxcJQA9w34aFt4AbFqZ9avvZH/oDnPvOFfBwtNL7RwHlPw4SznGtERDGibJmJm68yWDGYm8h598Ei+8xvwFW5ZPzqVUDHFEM0fMqnuh3ymckP/NKqFd93lWKfA1qy+nOJcs1A8kheWHfsjBBGIaAasqCApUuHjq5bt27fiaNmE0UgBqbtBmuXL2Xz8pGHbl+69NO3jYn7boAHG8BYdbEt86bRAhSlQylZI4EvGE0NeJR57v3FfvgYsykVcozqx8ZgjEE2AxhflhalFGtXLul968olH29cf+XcqpPsK/ZP/tj09HRbKrh1/SWfvfLK4a3V9XDe19HqBTtiY8lly9uPX3311R9+4Okn32R6PYZGljA73eGcCwvFWToKRZ7nKKV45plnbt+TtW686pL2vrOas5gqNK4mWCdlxMWTfsydQK5yLJaWD2N6//JQ756t+/b/3aFTp2i1WlyzdPhHbl+3/m9ePjK0nwxIDEb4CMt7Wi4IQJv4fVIJNtSewCKcD+JpQuC8CS5cqjpi9oEHjF7IlB3MRfwLpB615/DzPIxeoC5Te5YYtAsxYMHPdwnLARQxShqHp0aVGEwIL2uiU1hh1fsrGxQt87hTZlb04zYPzxjXOHDgwFWNLJm7esPaPcvqNy0CUqVGzmitVRNOsro4zPxccCCHsQOV8KxiPSdd8A4r2jx5hGU/tnvblx48PHOVG1sNczktE4yl0yxjrhDzEB9+LuOMlTChQIXL7vXz3M/q/AzzkhrnIyu6Cb0eIk1odHvcvUk/9PZXXPuO19B9KHj2Zp03egG5DJzIRqxXnfUKviT2oMiE6zeOPLhk4/U3zTrGUklvLexZA6fI4+eyFqFVJWdR92r09YADLcLFWFMiELLvMQbrG4P5kxh0TP5rE0u9f34Pdb780vNxlLwfMMqKdCUG3Xi/jWCsIXtjV258XNQbqQv0tMEWxwuakwUKijWwfi2nrk2u/cqjE9uvmut0IG2GAuI59WwykGUxkCSBme4ce/fuvWPfmpHNbFj60NlDw870iNwx31iw81jTD7usBZ1CIihE+GypjEzXeieLMWn8LzBtI2tYhtylB/RkqJwY4AQsm4AVJ2HdHIzNWUZmSpaOz7HmZKdYO1PaJTN5PmaFSqwIM4bnLWSHbcnOzLDOTjWbjbmRTJ8ayTi1LOPosoRDS+BEA+ZWwIE2zLWij2n7+ErWIrU4zZM57xBx5mLfmu0CF2fjrijqkykGPF5CYM3i5Xz0TfQLhfViuZCHA9cDmQQmxsPJ8IY/+NwTz/318Uk6fgidZswZiYstCdhpcAUNEYYlleIMO2XjxjHUC8LhM7F/Jc08q9Oc937bTd/6ygYPNnBkxqBiYaXEobUcqOvIPvhyQS+oUpH6ED9fzNvLApL09JxEVuQTa2sOkHOBUzmXw8nZ3opjExMbDvbyq7adPPUXx+ZypmammSktXQ+FUBRaY5OMubKsCZLPYyw0mKXhJUJA6gUZjmEhGUkEo1KxacVSLhlp/+sNS8d2rm019ixpZaeaDR304JTC2TJ4zYEETwoZAAhPv69CDkBhFQ1Aigs/mvdsbO4pdZGxCXMvf/n1b7vv777y3l4RuHG+arQa4AFW/UBnXCeKdAw/2EfkHEVR0DEdtm/ffefLXn7FgxlROyBu4DqRWOvR6jx6ll694fUr5SrujcrXU9dCSOVKrOuRKt1fTD7rx0QmzHAvFMwCE9B+Dq7Zabn9yRNzdzw73d18eLpz+cnxubGp2UCfb2iFMSbkXirFK4GxFYFPQZqcVlKRHmSUcDJp0m9os9VkrvAkjUNYQ+Y9mXYMJ5qlI+2jq1cs27dmzZJnV41y4FsVH78Ctjag1wbSIoAZOnYWmPlVmHlxeO1UfHSVAx4kT6qn5oChMUix8Bl5XJzZhbaUsheG1cqEMn6MOeBXHtjxgU8/d+It+7Ol2CSS9bwHmwYisewGGv+ZCsOnSVDUKQOB1cvQFiFcSdM6Lmn73s9+58t+6A0tPhKUFkqE9+BTnAWZuNPqaRfMs1RjCoUMlq1kGvMOhzAOVNYPL3RwJFOzlh2Hj9z8xMmTdz4xdeoPnu2W7O8WjIuUrsqwPsXLBkmSYMoidlmGfhYnwo7vhQSh4wiu+Ys0UNH86eGMkKFwEZvWsLETM/a0dE3J4dmp1UcO7l+9fbu+Y0hLjjfNz1zXGv7Jy9eu23rVylVbNo2KuSQSAI0Fq+xAX0oEtPvT+njJC9yoUFuzkVlSZZ2veMXmTz00ve01B3tytRMCHzWlq12i6ox1Z7qHL+yEFSK2BkiwjsnJycZjj+181T+97ZqPKO0JU/8EzkTs6HzmLAVBbCH1I/XYxAr+99JRMltTZjQNcDoyjMPOelLAJCQH4aptXV71D0cnX7P1xPSr9s3OtbtzMrgZ51Hx4gptQRgK0YsLfWnfMwzCWVIGozG2ZrPKSGgaxO19hLM8oSHLydB7Ulbcouom+zg6jtAwppQkTVPyPAfraGaCtaPt8poVyx5++fIVn71tGZ+9TvPQUsIYDimCRytsicKQVB2XLuvPqhyA19JQhDh9bqYGLww24lj6edCc83uEfqhZ0yTRkHmDzXPyRpsPfWXvW37uyP4PTOYt0BmeLOwUUoLpRuH1M40BVR8gEYKGyaMmQiOIpfiCVjvjV2/Y8JNvWJ/93gpyUqDoZqQZfQYBfRT0gnkWSyXcJjHWBFJLvP9lCcdni+FtR0/e/aXndv2frSeneQ7JyWyEbpqBaYJoIZRC1v3uBUJaSCKV2JR1v7eQMhARXWgB9tYiVDWkUyzIkSMlX6ooxh24bfW4EUk9tNUrhYr9Mx4ZuycNvV4v9PljKcuco0ePJnP799150ok7D42MXL5/dMm1L9u47rOrh5uHVizXKAWJTsJoN39xTEP23iFEqJPVgWKW4YBbbrns86tcPjd1YLbtjIEkjIhloAfmjIWHBp3AYHdmxZaSkm63y5YtW+757mXf8qcrmqGPPs0uBBqGizCY6299EnJdnbMjwSFiY8wJEvbDui/P8NovHnH/7G/G9796dqbETndIjKLlk6DuEUvLHWHxmcbrCA/iQmbuPdKGID8I9w24ZCnRIjRTlXF+jK8o8QsqwNKF93M1jTXi/DLGhVXrcZVkiAGTEyJ05FmLjE1fQUmxBJ2DLGi1FDcsGd1/17pVH3vliqFPbYYHV0MvA5Qr0ZGrZAiKlwLdz2EGwbMF250wFzrAjhueNUGk2wfPLWIfvTWzqEbG+549+ZYPbNv9gYfN0kixt8HjlxVsXp6hsYh+Z6336DiqwiRxhkGchNAqDvD2l9/8nh9bOfRTqxtxfI73YQryi8WzDKIWnbk5dp6YveYLByZf/9DRmV/d0YOpJUnI6n3g+VAG9Q4vCMouwoeOQmv7fBgfFrDz/Q46IeQ8/a66B/xr1GGcDaMThIzi3ML3UayqpbWf6Mzv6BzwbLVIno8IT9w9O7Oz7DpxbEPx1PZ3HB8ZesfJ1av/9R1rVn9qw4olp0YS9ZL3LMFQXEQAqRuzVNS3vuHSNQ+sODz1ECflHcT76Ov8UJy9gtfA+PZ67k4l3RV1EB577LG7p+64bdmKtHVKyUoi9xx7lsHXEj70zPeEwmLj/gjCOwQJk0KwF9Z9eY7Xfnpv/pYvHTpwx9TsDF73EFLS7A6H3EfFZr3BZmwXtHj7P1IYETlG1Trz5Xzi8EKWcWUt0s/3+HJeijB/p1qAjsxDsOi/HIDV07HFplKyjP0cts9p8hi8tAhZ0LaGdUPNuVuvu+6+uy9RH/02+MRKmFPAkOv3hDkBTtroqRzSO1KhqEaKlX1M5ILXWcIFqRS7A9fPyjLW3RL2H3Dt793yyMk9XdUw7VEoClSSYI3pV+K/ySOJ6jFGVcIkcQVWyImw4aKaEiFKfnjl+o+841vW/MglmJlmXFN6gSjIWZVvFQMW7E0g9Fmpg9A1BRqJijSR7c+d3PB3Txz8V3/z8K7fefzwsfXTApTWOBnoLNUwIRtpCAOc7FChR8yjabtKIkcO3C3/PMax8PuFk7jEgpt92i+e3yUt/K2XeXztqilNxkJiaBrQWuF9kH5DWERRUMxMpSePHr362DMn/nk6/ezeUd0+uGSo1Ul9DK8ikCekJPc5WmiUEHE+pwuSqVJ8NSrdeUxaFsSFsabihYtIuEJqUT46vPxbdx05dYXVaUDDjIlcuTMzFhXRzj4OUrUNi/6eZ4tQEDU5y8enbrg8G/3spcuSfcIbpNCImK/Wa/tc1lkc0HJB9C6XKdMSHoK7PvH0zI997tDJNxyZ7pD3epC2EFriCxf2RK1BjA+sPj2/IuHCVVA+5D7znE7MOUolB7xcuDrK9T2DWOAp/ILlZdXcfIcy/8WexwYXWFc1EzJKnNVGFOsg0ktUYdHGo3UDpyU5AqOihBITbF6+ZOY7Nmz4yHesTT7y8pT7VzqCDpcGrx0GT6fqIQ8aNygX/16lLw7PIkIe2IuuOiPrN5t6eKzjV//G5x754EfL1qvRmqw7h9aaOXVmvrFh40zTqpzmWyE8tAE1NVkQN5R6OX6mS+q6fNvlq7f+/B1rf/BG2DEUb3W/ZuzPnTC4AXplTjP2XfRKx5bdR2/+v1t2/cgXdz7zg0dKhxEKl6YxVHGhlqGqPunuwGJc2OBDvUML/HynUxEiB2i3FcoVnvf8GNhCj+Gr5q0XcEinf7/QiPTAuQ5q7PUr9hqBJiB1xju8VLg0aJ0JXZKfOJ4d37nztrnnjg0v9dmhtUNDB7K02hQsFo8Xuh4HoQBZ6WlJ9SLxLGHVmbpZQff3Gw+2KWZPDa1Z/XdHJ++lLMni5SnP8Px1VVyuXyaJm5QPw5BkYCX7UiGtJ5UOZsZXb3AzT9y4asUjKeCdQ8qBUR/nrM5SGFKtOSphm+P2v95rf/ivdu1567O9yUCki/the9ZjjEegSJKEmYaLcqZN+luzARm0kavOuj7tNUJCXgfUKKIuPsmf/+b5+TKnwp8esCinUQtU4N0Co/AL+lxOi9p8I3gyYVEuhgXC1mFJR1vIdOhrMQZKD04giygC3tCxbyfoYmXac8vSsX3fe9n6P/onK/jQZXB0xPexDSstRkmKaJbDL5YoLF6YTtx8WlHJtGIiaGB2Gv7DY0/977/ae+T1eXuYXDcoz5DvUnV2mpq3Es6oUebR44ioJtSIyqYG3DS3N1r7/997r/l33y357EBNHM+5HGakAsC+45jd9PEHnvixL+7c9e+PGUe3ldbsYyxkTpEkQfDbOUcpY5GvxkQrCVUb/GKlzTQvHOrnBfXiVy9U1RILvjs9B5FeIhfEX1589STl9C1HB08mfMQQfDz/GCbK6vvqTTWohIzQsuASBUUPXGDNurJH5/Chsd5zh7+rd7wzsy4b2zasZS/R/bzLC1lzVC843WVB1FrGz504FcPkWNW3QQDo2OoVw1sPT75mvNtTXqc4cWZZVxVtuAVUCB2rnSZRoeNWN1Fa4/M5UJbG1PToaM+cvHPdks+kUWlJxnDsrHiW53uNHUKM/dVhfvSTO7e99dHp6U1FpkGMQJ5C4ViWNOh2u3ToQKqhESnpTqK9RBfBg1ihcEIHjVs/MId+sJ9BBFQJaeqrlPQa88KyusNOuK+Wpw9Y+/NHV6dVzhdaUW2s031D9tXK0LFeE6VprY+onUdKF4CRCF3KIiXLMgospswDFVtrwCBczjUjS+a+fd26j33n5Y0P36T4/Aooh0uQvhs1mRoX2LOYOi4AjY4BQZGGn6dRz9nIwBnrAf/7gR1vffuEfR9eDbryb9JKVR1thPsxC96ivEE6aNoV5HlOviLGtXOn0E4hZcqypMX/2ew2br780v3VUjjroMmgJvEDW068/otffPjXDh48uKnWvzUBTtZJwtxcSKDTRqOvf1yWMKg+fzEfVVFTKVQ1EYD56Eutp1xpKQ9IEB09erT9wAMPvPkv//JLn3lo29F/OjFTac3JczPJ5xzU1zCuDnM0cP31mx9sjYycl/P33of6nTFQlshms1bLnJmZYdu2bd823cm/vjpLsRC3Zm4gl1XkohHa4fMB9EPBB1Le+D/3dn7m/u07bvZehcKhr+oASexBSQbaOFyITESlqh/dpHJfl3tfOFZF+ErStVlDlQHd8l8jwBYod3ojnpURt60KHRGSFh5UVDFUNu5gXuPiK5Tp7ICnUacXcsR8iFswkNsMxPTB1QzWB+gH+66A3iwj3nLl8uVHb7/yqk9ffwkPXgcP3YTbkdVIn0F7QSpC050xBq37A5KCobqq6QacC2HKQEjpI+C7EA6RLwAS1m4l1tvQYh7q2KHEUzJUFXVtUP3/laeP/eJ/e+KJXz6YrrmgtrxMe/75yzZ/+OfW8oNrgMzMvLBn8fP+HYb+BGXIqqtxwEji9rBvn2t8bsuz379169abB8c3zJtJUlVVF48zO7pdcI6s0UBKyf79+1d//vOff8v/vW/n+//28fE3n5w+2eiUnRqBUkLVvUHVrMrBGZW2mhNTTSU7LUUT3+DOPeBBnsdTdF23P6tSiDBwyMKVV67aumTJkgt+ecuyZPfuZ28eL1jtw0V7Yc/Sp4m70JBfqMDtalQh/RwOh2cYC/wW/OLffvnAm57dd+CqU10wo8tju3AkNIk4gEOEOSu25sXLuHOJfo+1V2RmPgo1+LXWupUvnHCLOE7ciwWwzGn3bWEffaBDVOouVoiozPJC24mJ4IMbAM2Bsj1//sxCFZmF57WgXtTnqEU3Ej2Ui0xk2dQ40wMbeHGpLZFFToqjKTRjY2O9a9ZtfPhVl7Y++rJh/nYj7FrpIXPhRZ3oBp0yBCL2XwokOn4UKcr5NB6+KtJ+2vd5rI2lldepFCbjfpsnPbQUqIrF7VtYC19IuPE//Z8vbft7O3ZBjSW1BcvKLv/+lit/6QeuXf7rlwf16RdAE2QlxxXYo4ML08XJMwpFCTz99PTqLxzf/fpnnp28SsiEkZElnPoq3sMP9pYvHt9czS/PY2ElbMlSSprNJtIUlN2CiYmJxmPHx++aetzfdXDp0t+7Y92KT922fOl9lyxRVjdD16mLymyV4VcpT61M/3yRQDVnJ/nqRUMz2JMzOGwpPrTUuAgQu7JEhtE1HD3e3VSW5YuAgkDFG/vl16y9578zKvd/FTTMhPi1jMm5iHXDGHaZBCYF/Bbmtz76xe3vfPZYitI6jG0bUF+pL7yX/Ulag3tsDQUv0B6WyfOjUf75v4rToEO34OfueT2KFQsq+HXru/uqkORg/cUKqBOe6iYXel5/TP/zzn/dvqdZqJAZtXetRHpQbv555ljI0tBpaEzAYFWkdHgPciiSPsPEyUSVbBpulDddsubzN68Ye+C2Yf52DTy7HE4sIXQ2aNOXGjaqfzlUtdB95Gy50z8H9XWsir5lPM8qwQql02pwWCmg4y06UUwDXVBPwR3/Ze+OP9/y5OFNRbHughqKkqBNyVh3hh9/5W2/8PYrmv/la3MKanZt9MqqH4o++eyeax46duS1hw9PgV+PTNNgLGUJ2QLFyMU85aweSbNJWRahBULHVlJr+3PoyxhGyTC9wFrL8ePHk384vP/eZ8vevftWrvjVq4eGf+r61asevH758oeXD8nQeGZj2081TnMgGhAV49pRJ+wv7FlM7PMReNx8GV0LugENFHPOMWnL4T1Hp2+8/+SxL+469gxleeGrREIIyrIkTVOeeeaZW8wVN75wzjJHD4WiEWdAelXTnMhL+Iuct/zRlt3/ddt4bxlJBibgZ9qEolpRoUFOhS5Ip1BOI5yaF8u7WNV20mOl6XsaV1XA/TyUqx8iP7+nqBM03a/wi4EdXlZi5fMq8LFPZR6p0p5eP3HhD0WcGaJcHwXyAzmVG9AJ68NEpp+bPM8ld8SJZ9U51Ofv6rE2g39nvAvXVsugDOFdMBChEWmKF1MBpi8V2ihEVIBEK0Sq6dg5hCxoJZ7Vw9pes2zsK5tXL/vypuXtHRthxwbY2YKZBGzFGE/jVU7pj3WUp32OuMea8P5WZfTIMMF7UABHYcMhuHJPyY07D/VevvvE9C1HD89cc2i2YDYdCmNJyhMX1lpiW3SiFOu15uN3XbbyBT3LIPrhbT/B7fRKjh7tte/btv37j3TtMpLRKGkUXsp0S9IsW9z6z/EhlUKoBCui+oeSiGYTnMAXRSjhD6ibVPMpS+cout0Qd0XU58SJCdU7sO+OA5R3jKUZa4Xk1rFRljSzH1yyZMmJlaMj+0fbjRNLmo1TrUyTfgMTp2eLWU52ZpLJuXLl8Tl7yYmJ3rp9PbP5yakTv/z01BRF1uZEIZAMoxsjQce517vgUwCwFtluU546BWNjTEz4lS/oWWbohKmuVuBtCinkHn4d96v/8wtb37n/eKthycALnASbhoq1LkOs7l2QzPQ6uHDj8nBj5SCUHOstZajkpDJDeIm1FtOc68fu1tdzOhBh2q21ti+07n2cnidQKkEpxYqZ8dCmKwXaC6QSEW2KHZQyhCaGwNB1SAofmoEsntnWcPQOLuYlA33FIqpOyCRsKtEjCHRUTvQDyU016WiAhhuBE+X63LQqZ3FE9E0uxGDN8+Y81Y+kl0in67ctkrzvpcQAg4ABOM4Nvv7C4Y0FKEWSSEazhLFWo1zWbh0ZbjXHh7SabGbpXEPLuVTR81G4Rwhs6WiUBYmccS7vmcYeaW4+UebrTna6zM7OQt4N2X+qEA5SN9+z1pCTv8CFad2IOZ8nkQkfvmLla17QsygUPdejJdu1GOK+fRPtLx7c/j0TE2UjjLX5KtBbmmKMoSiiPGeUvbHe9ee+KwkyQepQeHPWzS9uVer4EfuXInQwlmVRT/TVWqO1JtMZaZqSZU2bJElvc/Oyh7SQpUp00Ur0XJrRa2pmlMIKgZueY2lZ0ugUZbtXunanVwzP9DrLut1uu7CmcSA3YyUOa8sw8UvJGgzCOVSa4r3E2/5N9W5gvFg1R1CJ+cG/e4nkbmkK3lOWJZPdOWZOlclx7zYo/IbMh3bwTGl0HKlOFPYw3mFKT6uUOCs43E7opBqvk354o5KXhtZAXH9SSnq9XvsFjaXlM1pOY2Xg73zE8Yb3j0/82iOHVl6eC0PgUhdo2wvrwIcd1kRNrNyLSLdPgsRMhaJICalAeBeH8viQP/gCJ30tWTM6p8gKh/MlLV8yksDKVLGiJVnWVKwbSVmRqH+9aqS5b/Vwc9+SZnp8OFG9hgIhPCpCm1qAEDas2YE0041JrLOUSJyD0mUYo8jLBiVOTUz1Vh+d7W06MN69au9U94b9hX/H0VJwzEhOes2csxid4JMwq9JSYL1FikijcIGranzMj2rh877SuXue8k3FZWvkcTKVcFgJVsroKdz8XChKvloRmsiMCMyCrAgFMSt98PzSBMRx0DPJWL9xgV0hnKq5bUGbwCCEBt3EqDLYubB0XdB6k1JiRaDoVCo4SIHVFkYqZC4DEpp5BTMWOCXIY5d2LufL9QtbzkcnLxg2HyFAVzIiOySI3gsaiytLZJIgBRw/NcHDzxx49c49By+XyRVBKe7rCqxlH2y3ZX92uYrV5Aqx0RoZY+qKn5NlKauXjp5asXLs0Lqx9JmVwxxa12bX2iZ7VsGBUTg+BJMNKBsx6UwBXQ3qjBQNOa865PAuxPFCJWF+jJAIqUK3Q5rGChJ22SiH1sGhzVz64CSsOAQf22O4cecJXr5vxm/ee+TEjafmOo3JTieo3idh5qX3gc8lfGBRu4pZXKGKKjKkjX1x76plkMYL0ZqIkXOlvRVCO1EVbGGesTgZfy5kPVMnKOV4nCsDvS15kRfaBsTbpJSMjY2deGEV/TwALX+XcPMf733utz771OF7ZnojUGTIVoukmARhyLN406uJSbFeMlKmWBOo2C7TmCwONHJRn9CWDJc5o65gOO+ypCxZ30jZsG4dNywZ+RfXNexDS4bbx5csGyuHMjXQXu9OQ8PCmIXYzlzNRRnoU5HidMzMniYELuJsRI93gtagCr6knuRVOkMXy9G5vLF7onfztkMn795+rPNru6cKDpcNppMhtNY01AzOObpKYJKUXEmsrwaCJAsm8YKL163SGsjytI+uyUH9MPe89ZjTQcFKmCF2lHrB89HtbExyrDS1JwugWavevMJjAbt8sJJfMTUGws007yCEIFdBvyyJ96dodiLTOmheVx4wflyEn4mg0tILbCyCRGpUb5zr2u7oh+6+7doX9CxaBzR4y7N77t22Y8c9BaMopbCDGkxf1TAd3guc85iiiHR0H+KiRCJQtJIW68dW7rthzaoHb1rTfODyJlubQXB7/yaYUQtqj26gGOYjji+F7E8PBkxM0lP9/BR1X1erxfMggPH/g9xHMb9WpKQiRbFseKiXDfPQmg3r9l0LX94xyZ2PHuDuHUcn7hwfH2846zDGUDpwUiG0Gpj16vrVvxfpYYri9KtToWDVWOfB78V8QGKesqf3fdF8XQYCqH6RS24O9MGMjo6eGhlJJ1/QWHYpGn83w5s+8uTkz+zOV8LIMOQd5JDCuVnypAk0EXlUK4kqHhaHlzA7HEMuYxjNe4x0eqzCcFmrwWVZyi2b1r7m8tGR7ZesGjq0NAGchbJAJ9VJZrHg7xAVK3be+o5NZMKDU/XaS4WMCSQLdL2++pThWmfKBaMw2tXSqvEuo0SgiTR8UJNc5mGdd0dv0PLoq8e4vzdm/8vhlZ3hgyenrvqDI8t+90C3d+fE7DRTeZfcWlyS4JREaIWPA3AqzQAvooRLhPjy5gB65emr5nuFcoNMgmDVphL2qBdpf43bKPhRT5yvaEwDoF2fqxZDj8QO5LmRAzOIpsXwSp7GoIis61ZEDa2EUjHkgmeZFg5EGviGXqPKFpWmXGBOZPHzXFg0THmPspYl2vDy1Us/O8pXUcw5MuEvf+CBB98/OZvTWrqCTlmCCiqNIZ77OpAE7xFKsXTpUq4cHd1y46plD96yRt53nebLIzA+FgteVVwoZRIyBu/rqQvihUR/K7aqGMiZfZ8sIOXADriQixZDi/q1/YDydqWL+7XURawHJdBKVh3BJCguWbVuZuWqdVu+bzO/vb3goSefmbtj1+Ejtx2dmWt0rYXYa3/hCwlfIzKoEMuFHDFfzclRX30uZBXzRwlda8M9rlRBX+w9N0HNH7Jmxvr1q58BEB1TkKgEXYaxdj0teZTy8h98pLf7+LFxep0uWmc4F8IKr6JYmbJ4EyYUJUqTeI8vQkPTsNfcPfMYt6655Kc3X3PNQ1euWb1lRTPtjapoYwN1iHjpA7jjBuIuzUv8CAyGHg12zxRjDz134rVf3Hv4z7dOznHIp0y3RihIQUUGYewjQVikUGhTRCXLBMOAULaMvTW+F3ORSps5xZL1VWWYPJ2BgBrINZ5H/8y94KC0835kkZxmY77mF/bz+ErqagG3sEIJVeyUtAJlB9V1wvNtXcuKvUJSQRnaFNpaIuVR9MxBfvbqb/vZt92w8V3DBnSiEowz6LgLF7bgoS3/8Nojx1bR65Rggx5VrQkWVRatN8gkCSPsrcNZy/DQEOvWrj1x6bLRHW9eecN/vEQnz4wknBoaoEjUxEr+EXDFokdbOdyafOX1Gz+17PqN37nyKK/ddmL2rgf3PHeb9TpoKFsbFm/Uy3KlIUkS8jwPtJYkQyRp2Mm9WeTZnaUKfUB1o2CI9HWXaa/Xw7lZXnH11fuuvHLjliQGPMLbcPF7SnMc+P0Zfvd/fOErP3FsdgSdJCEhw2BVGYpuEZNXFtodyxKTc1XD8fKVzXd9yyWjn3zZmsaDS4aXMBmlZ2pYt3ImVWVWujjuTtYgjvADKtIv8ZELZSWuL4IjqEZKFAamC3jk+JHbP7f/8Pc/eOTIO56VKZNpm26vgaBF1mrSK8fDdKdU1FKjOBkkbWUCPo0dlJWnKMEbdNQINrJd78DChaqOnMeC9vPQr4WomrnQAIQqT8spRWQoSN9H+eq597KfSkE/lyrrVt4oguKyWOe2KCwNN4PWGuscvZ6hTIeg3eb2ma382J3f+i9evW7Zx1YEmQd0P8CHwyfZ9OAjX3pdt2vQybLAvMzzAPW1ZN8ikSiVcumlG07dtmHovles4VM3JDy4AfYsocQFncV6JsdpzsRaLvw43fMGpswDjpIEhlO4fmjNw9lla3pLZjjx+f2H37D92PjNCElZKHqdDrqdglYYX0Aeb3jWRssEYxY9y5k7/dDLY+J0aKU1aZpSRubCt3zLt/zRleuWbRUD9094E3hVT2jGfudLs+/900Mn3hhm/O0J7E/fRJWOzDqWdeBS7dg8JD/43dde9qebh9VDl440LA0Pvgj0iETHGeK6n3q4QXQmUkJCSR27AJ3qp70v8aSlntgV1f1FWVd4sB5cGnY5Ad0C/mHSbP67ffve9OCxvf/xqcJxLFsOMkU4SWaTMCJQCHrKYV1eo2bJvNZLHcXp9AAVzfXfdyC29/IFOkfrhpYL7Fnk16DDVHU0sUCAccGszlavyn0shTL4tEILs+COREpqBUl+giXdk1yzssV3rl/xs2+88dp3rVPRwSlAVr2fDp54onfn008//UaWrg4ThYeG8MZAUeC8ZGRkhM2XXvLwt21KP/HK5XzqMnh8NUQSZBn7qEPNw7Gg8WoejMtLQ33krLoYh7VhB8sSFZLJbg5JSMazDK5Yr3ek66/407HeFSfaB06+4Yvj5R1T49P4qTmMF2gZBpNa5RCJYNG3nI1QTwWBQmtpKMWaNWsOvfzWqz78XaubH2o9z9oVe7xXXyh5wy9+5Zm/OHJ0Fq8ynDE0uz1W24IrRiV3rlnyK3dtWPqx25aPPj5SDZv3YQczA/GGdA7p7XyjqB2H7M+uVoENbBlU+TQLwNSXtmcpIhoWJLB1RLdjYdJJvAqCeHl08WEuCzW5+LGJYvWDB4697u+fO/C+HXMFB7MmPTFKIQNNR/oSsFiVz8s9ahazZL7nOG2SFbHPKHDJBKBsXze+py9wnSPWW+o6VKWuU3kcOX+qQvW1JuK6oMnp07mgClpWFPVmmPOTxJi4c5wN3Uleu3bZB39g89W/cduqoV1NR1+qKtYAnfZoCfbRR5+458iRcZxv44suotFg2bJl3HbJ2s/efX3zo7fA/WtgT4YH34vTgsPslMHWarlgPuBpyNBC3P4iPhwOWUsReRw+jOSO3sb5UMXXoq9ANDiIdd2q9Oh3rLrkI2tedsm+v3vWvulv9+5708FTpfJxjolc1DA4syNNoddjeHiYb73t+k/+k0tbH7oUdqnBiGCgDV4KifiS85f/9if+7/u+2CnuSZKEG0STb1m56he+/6q17xobGimHhxP0ADjlMGFHmzcnXCHR4WZXrRt1zDmAjw/wteyCmy0riFy4iwMOG5jAFeaRxIv+AgwCVY8t7/umUCtQ2J5k9/hU++Fj46++//DhNzwyOfOGAyR0Gkspkwzn07rXp7p+menGPiLwUuC1rIc5UVq0TBaCTfG+yAXb9YUKX9U8byHx852j7CuNhglvoQM1iYTO2VYAkvRc2MSLTIf6oO0gzTTXdqb4lqVjH37tVRv+5M4r1j8wpD2pcyGl0/q01AhADwtOXXHFFVsPTneuXL58+eF/sm7Dh759iI+uMJRNvcAxVFKoixHz+YmnvcfkOVo1uWTd6Fy2bvRjzZsunVkxyYG/3v70Dx/qirHxTi8YmErmQcLhJRRSq9Bj4iJ1VIjYQvBSL5NUYZmIfU0J0oXCeFmW0LPQbNJuZ2EYbq+HF4KkqRkZGuOVN1334Xs3Lv3QrQ0eaAA90w36avqFR3UI4z2zPcdMt8vQUJsxH3e3xAxYcICCVT0GQJ9WU/Ri/g6azvMZvGDHvPALYuuF37/UHUvJfGZCGnarYgD9UwMft/67IvzQJy768Qo0ERjrOdlzPLzv6L2f23vg+58YL95ySDY4kYwxJ9pYCVK7QFnxNlT1kzQMoi0NFGXdZuxE1IrWPkQDVa7SvcA5YzbX9yxGk9qozAlB+TNLKCu5IWf7zXYyAE2jtkev1yNXCWjNmm6Pa33Oa9Yt+6l7Llv+kavXDR9tqtCSIfEIW9HLg5aBaWTzcuoM0N5DsyERSZtUBe8fxJzcALuUWrlw8ThfSU+E12PQa7xBColGk6iE0bbk5Zsv/eyyzZceunSc7fftOvb9EwcnbreFRacZxnbjKAUdINKiCEVlpUkaDVxZvqQvT9nrhaJtIkOiXhdEYhDbLSItSzEyMsKt11730HdvSt7/bQ0+sRFOpRicdxjvSGUUai9NsJfk+fu1RO4KUkGgTTtHoZvI6Dmiqiah/adcgHHHrrrTFArnj8v1p0EWC57u53N+7MCOezH4FhNHYSj6opx9tDAIffYzP4MowxXLk0qNJkG5fkJvZcXwtwgCothDcMzS2Ht06sbHd+3+tkePTvzW551jVqUBdUta5EkCLqGW4S5l7KdxSB+LQsLUqJoRF9izJJVnkWHmTqwjeRHXXFKRZAvwJdoaUmeRztEwhoZWXNJo810r2v/l3o2rP3Tr8vauZqLr5sKaCxzrTs7Z+LtGyO2roUpVQOBB53mOzqKK+4D3OA3MGuwDOZvTZBePr57nxlnycawIXlS3SQyAA4JhRe/qdWMPL1v3skNrptlbjM/+2O4T4zfvP3xo2WQvMgCkDi9kLMjmS/vC9HrBA8jQVmHKEi1gqNVieaMxc/nGDY/ffunQp79L8eENsE+5vvZ2EEbX/TlBgNR9fbyicCTZ6ZGUKH01QSN8LcoEraGI7MwUGVCIGm3hNB2x/s4YpxQPeJbT+0jsgtwkxKJeOCy6flb6El/kA90j8zxmjVwio8q8rC+gl9CJv297cNbjsLF9YUFOV+kZxOvrfBkb4GI/DBl7TjD82MFnv/Mfjh579baJibfusZ7prIVpL6FrCVVsqlqYn8divtAFfBWnB/T13aKEsAjMbKEcraJHqzfLkk6XjUpwy/KVvOyyq15z/ZrWg9eOMoMPqGugquQIN79hzbmEQomBuZGgsGgvgnghA8iYr9koDmMNWuk6XBODsxcXTvRd9Crnw9qQSiDrcMjhXVS/qWZGeo/zYQiSFPK0m7NmBTOtFZd+fC2X7tk0x44H9h9//eNHjt91pGNe8giKN4GZvX75+hO3rlr9dy9f0/rb64d5cBU8OwYlZZDdqpn9Vfhm7YDuQ99QXKXShXhBVvc5mym5eFxgaNW72oCcC7lOD9h9Ymr11iMn735k/8G/2D3TZX8OE1mLjh5iVmQgG5CmNPO5WkNNyRQvQ7OXqTrsZLWoQkesjJGI9zYYL1UnKDFyCCiWh3qIU2gMswgvELFCL3zIHVzaDlV0a1jiLG2TM9abZZV2bGxoLl8++nM3rVv7wLWbVj20IsMGxUw/wARJzvo1XTSWixVMwxP6PYMAh5UhWe0Ap6B9Ai55suCVX9k/+12PHz911/7J3rpjBWFevRBkZShqOgHeSWy142oVZjBKgbMWfBghIjChi7aiO/lq7J+IrQRxpEi11VezYCotp5hoV0Vbl8RR3N6xUgrWD7f237hy6YM3rW/df/UIW5bC0ZVwKDS316OyQkruLEo2Fo1l8fg6j6LqHKzaIUxAe3Tg9FkrUFLR9XCy6zkwM3353uPjN+49tO8vn5mY5HMjy+iWjqIo8CpFqhQrNKUFYwWotF/3iHy1sKBCEm3VQOuw9UHNxfmQE+BQ3pF6ixaGxBiEL0mlJ0kSWlJwdznDpcuXv+2Sdet3rVu25JkVI61DS1JskzBbVwuiDrQZYLHHlME5UNmisSwe34CxuKgmrmQgHnqPdTbIzKJRUlGI4G1mgtdpz8HwMdj0CXj78XG/7tixY5vGp+dWd7pFo1s6urkhLz3WS3w1jFboSJp1A8CN6evGOaLHEcEghKehFQ3haaaiHEmSU2MjreNrVy7bs2ZNY99qxb5XwqeWwaEUelGqkQahOJh4kCZ2jVZaC2LBDBKZLhrL4vF12soASqmhVuPv43IxDJK+nhc5iN6polG3Hc4Zw8nZDscmpzacmO1eMuXcshNznUtm8X+QO08X6FlH1xTkNniwJUaRSkWSKBo6QUvJkJZvb2jVaSk5vXJ0+MCSVvP4irH2gWXtpm1oSH1U1JE2KGzS1yJxLmpb1zrZqt8p6oNapx0QsD8XVaJFY7lIj5yBsRAeMEUQr62a76rVVFHgAestLiJCSdGK7RThRQoRDLAgjI7ohrLhWA7NLgzn0OhBuwgqUXKZ53AiKDSU0Tv0mjCXRE+hqRRE+6MsdKV1rRylCBrTCoE6bZQhUdhc4oRHkITzFv224nNhLP//AQAgoDPP1243jwAAAABJRU5ErkJggg==;" vertex="1" parent="1">
          <mxGeometry x="766" y="290" width="68.01" height="66" as="geometry" />
        </mxCell>
        <mxCell id="sNEKoTjBMUW5g9Me4UbA-7" value="" style="shape=image;verticalLabelPosition=bottom;labelBackgroundColor=default;verticalAlign=top;aspect=fixed;imageAspect=0;image=data:image/png,iVBORw0KGgoAAAANSUhEUgAACcQAAAmjCAYAAAA7gsrfAAAACXBIWXMAAAsTAAALEwEAmpwYAAAgAElEQVR4nOzdsavvcxzH8c/3OGSTEOUPkI3JYrTKYnEy3hxlcGO6f4IUN9sRk9sxWO6iLIrNaDBYjUrZLLq/j0Vxl9PhHn3u9+nxqPf++gOe9d4GAAAAAAS9ffb5C0djfrl6xx5sc1z/4M2TW6t3AAAAAMC9Ol49AAAAAAD+C8djPngY47HVO/bgsI2HV28AAAAAgKtwtHoAAAAAAAAAAAAAXAVBHAAAAAAAAAAAAAmCOAAAAAAAAAAAABIEcQAAAAAAAAAAACQI4gAAAAAAAAAAAEgQxAEAAAAAAAAAAJAgiAMAAAAAAAAAACBBEAcAAAAAAAAAAECCIA4AAAAAAAAAAIAEQRwAAAAAAAAAAAAJgjgAAAAAAAAAAAASBHEAAAAAAAAAAAAkCOIAAAAAAAAAAABIEMQBAAAAAAAAAACQIIgDAAAAAAAAAAAgQRAHAAAAAAAAAABAgiAOAAAAAAAAAACABEEcAAAAAAAAAAAACYI4AAAAAAAAAAAAEgRxAAAAAAAAAAAAJAjiAAAAAAAAAAAASBDEAQAAAAAAAAAAkCCIAwAAAAAAAAAAIEEQBwAAAAAAAAAAQIIgDgAAAAAAAAAAgARBHAAAAAAAAAAAAAmCOAAAAAAAAAAAABIEcQAAAAAAAAAAACQI4gAAAAAAAAAAAEgQxAEAAAAAAAAAAJAgiAMAAAAAAAAAACBBEAcAAAAAAAAAAECCIA4AAAAAAAAAAIAEQRwAAAAAAAAAAAAJgjgAAAAAAAAAAAASBHEAAAAAAAAAAAAkCOIAAAAAAAAAAABIEMQBAAAAAAAAAACQIIgDAAAAAAAAAAAgQRAHAAAAAAAAAABAgiAOAAAAAAAAAACABEEcAAAAAAAAAAAACYI4AAAAAAAAAAAAEgRxAAAAAAAAAAAAJAjiAAAAAAAAAAAASBDEAQAAAAAAAAAAkCCIAwAAAAAAAAAAIEEQBwAAAAAAAAAAQIIgDgAAAAAAAAAAgARBHAAAAAAAAAAAAAmCOAAAAAAAAAAAABIEcQAAAAAAAAAAACQI4gAAAAAAAAAAAEgQxAEAAAAAAAAAAJAgiAMAAAAAAAAAACBBEAcAAAAAAAAAAECCIA4AAAAAAAAAAIAEQRwAAAAAAAAAAAAJgjgAAAAAAAAAAAASBHEAAAAAAAAAAAAkCOIAAAAAAAAAAABIEMQBAAAAAAAAAACQIIgDAAAAAAAAAAAgQRAHAAAAAAAAAABAgiAOAAAAAAAAAACABEEcAAAAAAAAAAAACYI4AAAAAAAAAAAAEgRxAAAAAAAAAAAAJAjiAAAAAAAAAAAASBDEAQAAAAAAAAAAkCCIAwAAAAAAAAAAIEEQBwAAAAAAAAAAQIIgDgAAAAAAAAAAgARBHAAAAAAAAAAAAAmCOAAAAAAAAAAAABIEcQAAAAAAAAAAACQI4gAAAAAAAAAAAEgQxAEAAAAAAAAAAJAgiAMAAAAAAAAAACBBEAcAAAAAAAAAAECCIA4AAAAAAAAAAIAEQRwAAAAAAAAAAAAJgjgAAAAAAAAAAAASBHEAAAAAAAAAAAAkCOIAAAAAAAAAAABIEMQBAAAAAAAAAACQIIgDAAAAAAAAAAAgQRAHAAAAAAAAAABAgiAOAAAAAAAAAACABEEcAAAAAAAAAAAACYI4AAAAAAAAAAAAEgRxAAAAAAAAAAAAJAjiAAAAAAAAAAAASBDEAQAAAAAAAAAAkCCIAwAAAAAAAAAAIEEQBwAAAAAAAAAAQIIgDgAAAAAAAAAAgARBHAAAAAAAAAAAAAmCOAAAAAAAAAAAABIEcQAAAAAAAAAAACQI4gAAAAAAAAAAAEgQxAEAAAAAAAAAAJAgiAMAAAAAAAAAACBBEAcAAAAAAAAAAECCIA4AAAAAAAAAAIAEQRwAAAAAAAAAAAAJgjgAAAAAAAAAAAASBHEAAAAAAAAAAAAkCOIAAAAAAAAAAABIEMQBAAAAAAAAAACQIIgDAAAAAAAAAAAgQRAHAAAAAAAAAABAgiAOAAAAAAAAAACABEEcAAAAAAAAAAAACYI4AAAAAAAAAAAAEgRxAAAAAAAAAAAAJAjiAAAAAAAAAAAASBDEAQAAAAAAAAAAkCCIAwAAAAAAAAAAIEEQBwAAAAAAAAAAQIIgDgAAAAAAAAAAgARBHAAAAAAAAAAAAAmCOAAAAAAAAAAAABIEcQAAAAAAAAAAACQI4gAAAAAAAAAAAEgQxAEAAAAAAAAAAJAgiAMAAAAAAAAAACBBEAcAAAAAAAAAAECCIA4AAAAAAAAAAIAEQRwAAAAAAAAAAAAJgjgAAAAAAAAAAAASBHEAAAAAAAAAAAAkCOIAAAAAAAAAAABIEMQBAAAAAAAAAACQIIgDAAAAAAAAAAAgQRAHAAAAAAAAAABAgiAOAAAAAAAAAACABEEcAAAAAAAAAAAACYI4AAAAAAAAAAAAEgRxAAAAAAAAAAAAJAjiAAAAAAAAAAAASBDEAQAAAAAAAAAAkCCIAwAAAAAAAAAAIEEQBwAAAAAAAAAAQIIgDgAAAAAAAAAAgARBHAAAAAAAAAAAAAmCOAAAAAAAAAAAABIEcQAAAAAAAAAAACQI4gAAAAAAAAAAAEgQxAEAAAAAAAAAAJAgiAMAAAAAAAAAACBBEAcAAAAAAAAAAECCIA4AAAAAAAAAAIAEQRwAAAAAAAAAAAAJgjgAAAAAAAAAAAASBHEAAAAAAAAAAAAkCOIAAAAAAAAAAABIEMQBAAAAAAAAAACQIIgDAAAAAAAAAAAgQRAHAAAAAAAAAABAgiAOAAAAAAAAAACABEEcAAAAAAAAAAAACYI4AAAAAAAAAAAAEgRxAAAAAAAAAAAAJAjiAAAAAAAAAAAASBDEAQAAAAAAAAAAkCCIAwAAAAAAAAAAIEEQBwAAAAAAAAAAQIIgDgAAAAAAAAAAgARBHAAAAAAAAAAAAAmCOAAAAAAAAAAAABIEcQAAAAAAAAAAACQI4gAAAAAAAAAAAEgQxAEAAAAAAAAAAJAgiAMAAAAAAAAAACBBEAcAAAAAAAAAAECCIA4AAAAAAAAAAIAEQRwAAAAAAAAAAAAJgjgAAAAAAAAAAAASBHEAAAAAAAAAAAAkCOIAAAAAAAAAAABIEMQBAAAAAAAAAACQIIgDAAAAAAAAAAAgQRAHAAAAAAAAAABAgiAOAAAAAAAAAACABEEcAAAAAAAAAAAACYI4AAAAAAAAAAAAEgRxAAAAAAAAAAAAJAjiAAAAAAAAAAAASBDEAQAAAAAAAAAAkCCIAwAAAAAAAAAAIEEQBwAAAAAAAAAAQIIgDgAAAAAAAAAAgARBHAAAAAAAAAAAAAmCOAAAAAAAAAAAABIEcQAAAAAAAAAAACQI4gAAAAAAAAAAAEgQxAEAAAAAAAAAAJAgiAMAAAAAAAAAACBBEAcAAAAAAAAAAECCIA4AAAAAAAAAAIAEQRwAAAAAAAAAAAAJgjgAAAAAAAAAAAASBHEAAAAAAAAAAAAkCOIAAAAAAAAAAABIEMQBAAAAAAAAAACQIIgDAAAAAAAAAAAgQRAHAAAAAAAAAABAgiAOAAAAAAAAAACABEEcAAAAAAAAAAAACYI4AAAAAAAAAAAAEgRxAAAAAAAAAAAAJAjiAAAAAAAAAAAASBDEAQAAAAAAAAAAkCCIAwAAAAAAAAAAIEEQBwAAAAAAAAAAQIIgDgAAAAAAAAAAgARBHAAAAAAAAAAAAAmCOAAAAAAAAAAAABIEcQAAAAAAAAAAACQI4gAAAAAAAAAAAEgQxAEAAAAAAAAAAJAgiAMAAAAAAAAAACBBEAcAAAAAAAAAAECCIA4AAAAAAAAAAIAEQRwAAAAAAAAAAAAJ2+oBAAAAwMXe+fj8xpzjrdU7YIceGmM8sXrETvw6xvht9QjYnW376sM3Xru2egYAAADwl+PVAwAAAICLzbE9MsZ8evUOIO3RPw/4Zx5fPQAAAAC4m5epAAAAAAAAAAAAJAjiAAAAAAAAAAAASBDEAQAAAAAAAAAAkCCIAwAAAAAAAAAAIEEQBwAAAAAAAAAAQIIgDgAAAAAAAAAAgARBHAAAAAAAAAAAAAmCOAAAAAAAAAAAABIEcQAAAAAAAAAAACQI4gAAAAAAAAAAAEg4Xj0AAODvfvno2Zfm3J5bvYPLOcyjz568/sPPq3cAAAAAsF+vv/fpM4c78+XVO7gi2/jp/Ma1L1bPAAD+vwRxAMB9ZR7mq2Mbp6t3cDlHD/z+zRhDEAcAAADAv3aYd57ftu391Tu4Itv4eowhiAMAlvEyFQAAAAAAAAAAgARBHAAAAAAAAAAAAAmCOAAAAAAAAAAAABIEcQAAAAAAAAAAACQI4gAAAAAAAAAAAEgQxAEAAAAAAAAAAJAgiAMAAAAAAAAAACBBEAcAAAAAAAAAAECCIA4AAAAAAAAAAIAEQRwAAAAAAAAAAAAJgjgAAAAAAAAAAAASBHEAAAAAAAAAAAAkCOIAAAAAAAAAAABIEMQBAAAAAAAAAACQIIgDAAAAAAAAAAAgQRAHAAAAAAAAAABAgiAOAAAAAAAAAACABEEcAAAAAAAAAAAACYI4AAAAAAAAAAAAEgRxAAAAAAAAAAAAJAjiAAAAAAAAAAAASBDEAQAAAAAAAAAAkCCIAwAAAAAAAAAAIEEQBwAAAAAAAAAAQIIgDgAAAAAAAAAAgARBHAAAAAAAAAAAAAmCOAAAAAAAAAAAABIEcQAAAAAAAAAAACQI4gAAAAAAAAAAAEgQxAEAAAAAAAAAAJAgiAMAAAAAAAAAACBBEAcAAAAAAAAAAECCIA4AAAAAAAAAAIAEQRwAAAAAAAAAAAAJgjgAAAAAAAAAAAASBHEAAAAAAAAAAAAkCOIAAAAAAAAAAABIEMQBAAAAAAAAAACQIIgDAAAAAAAAAAAgQRAHAAAAAAAAAABAgiAOAAAAAAAAAACABEEcAAAAAAAAAAAACYI4AAAAAAAAAAAAEgRxAAAAAAAAAAAAJAjiAAAAAAAAAAAASBDEAQAAAAAAAAAAkCCIAwAAAAAAAAAAIEEQBwAAAAAAAAAAQIIgDgAAAAAAAAAAgARBHAAAAAAAAAAAAAmCOAAAAAAAAAAAABIEcQAAAAAAAAAAACQI4gAAAAAAAAAAAEgQxAEAAAAAAAAAAJAgiAMAAAAAAAAAACBBEAcAAAAAAAAAAEDC8eoBAAAAwMXmnN+NMc5W74C92bbtqTHnK6t37MS3c4wfV4+AvdkO4/vVGwAAAIC7CeIAAADgPnfz9OT2GOP26h2wN++enb94GEMQdwlzjFs3T08+Wb0DAAAAAO6Vl6kAAAAAAAAAAAAkCOIAAAAAAAAAAABIEMQBAAAAAAAAAACQIIgDAAAAAAAAAAAgQRAHAAAAAAAAAABAgiAOAAAAAAAAAACABEEcAAAAAAAAAAAACYI4AAAAAAAAAAAAEgRxAAAAAAAAAAAAJAjiAAAAAAAAAAAASBDEAQAAAAAAAAAAkCCIAwAAAAAAAAAAIEEQBwAAAAAAAAAAQIIgDgAAAAAAAAAAgARBHAAAAAAAAAAAAAmCOAAAAAAAAAAAABIEcQAAAAAAAAAAACQI4gAAAAAAAAAAAEgQxAEAAAAAAAAAAJAgiAMAAAAAAAAAACBBEAcAAAAAAAAAAECCIA4AAAAAAAAAAIAEQRwAAAAAAAAAAAAJgjgAAAAAAAAAAAASBHEAAAAAAAAAAAAkCOIAAAAAAAAAAABIEMQBAAAAAAAAAACQIIgDAAAAAAAAAAAgQRAHAAAAAAAAAABAgiAOAAAAAAAAAACABEEcAAAAAAAAAAAACYI4AAAAAAAAAAAAEgRxAAAAAAAAAAAAJAjiAAAAAAAAAAAASBDEAQAAAAAAAAAAkCCIAwAAAAAAAAAAIEEQBwAAAAAAAAAAQIIgDgAAAAAAAAAAgARBHAAAAAAAAAAAAAmCOAAAAAAAAAAAABIEcQAAAAAAAAAAACQI4gAAAAAAAAAAAEgQxAEAAAAAAAAAAJAgiAMAAAAAAAAAACBBEAcAAAAAAAAAAECCIA4AAAAAAAAAAIAEQRwAAAAAAAAAAAAJgjgAAAAAAAAAAAASBHEAAAAAAAAAAAAkCOIAAAAAAAAAAABIEMQBAAAAAAAAAACQIIgDAAAAAAAAAAAgQRAHAAAAAAAAAABAgiAOAAAAAAAAAACABEEcAAAAAAAAAAAACYI4AAAAAAAAAAAAEgRxAAAAAAAAAAAAJAjiAAAAAAAAAAAASBDEAQAAAAAAAAAAkCCIAwAAAAAAAAAAIEEQBwAAAAAAAAAAQIIgDgAAAAAAAAAAgARBHAAAAAAAAAAAAAmCOAAAAAAAAAAAABIEcQAAAAAAAAAAACQI4gAAAAAAAAAAAEgQxAEAAAAAAAAAAJAgiAMAAAAAAAAAACBBEAcAAAAAAAAAAECCIA4AAAAAAAAAAIAEQRwAAAAAAAAAAAAJgjgAAAAAAAAAAAASBHEAAAAAAAAAAAAkCOIAAAAAAAAAAABIEMQBAAAAAAAAAACQIIgDAAAAAAAAAAAgQRAHAAAAAAAAAABAgiAOAAAAAAAAAACABEEcAAAAAAAAAAAACYI4AAAAAAAAAAAAEgRxAAAAAAAAAAAAJAjiAAAAAAAAAAAASBDEAQAAAAAAAAAAkCCIAwAAAAAAAAAAIEEQBwAAAAAAAAAAQIIgDgAAAAAAAAAAgARBHAAAAAAAAAAAAAmCOAAAAAAAAAAAABIEcQAAAAAAAAAAACQI4gAAAAAAAAAAAEgQxAEAAAAAAAAAAJAgiAMAAAAAAAAAACBBEAcAAAAAAAAAAECCIA4AAAAAAAAAAIAEQRwAAAAAAAAAAAAJgjgAAAAAAAAAAAASBHEAAAAAAAAAAAAkCOIAAAAAAAAAAABIEMQBAAAAAAAAAACQIIgDAAAAAAAAAAAgQRAHAAAAAAAAAABAgiAOAAAAAAAAAACABEEcAAAAAAAAAAAACYI4AAAAAAAAAAAAEgRxAAAAAAAAAAAAJAjiAAAAAAAAAAAASBDEAQAAAAAAAAAAkCCIAwAAAAAAAAAAIEEQBwAAAAAAAAAAQIIgDgAAAAAAAAAAgARBHAAAAAAAAAAAAAmCOAAAAAAAAAAAABIEcQAAAAAAAAAAACQI4gAAAAAAAAAAAEgQxAEAAAAAAPzB3h3z+jnGcRi/n9N/RWIgUZImmrBI09VkMdlYmwgSlqYMiEXULu3YdFGWxoDYLexiESNKDELStNJFDKLOeQzewEnPn7vn6ufzCr7bk9y5nvwAAABIEMQBAAAAAAAAAACQIIgDAAAAAAAAAAAgQRAHAAAAAAAAAABAgiAOAAAAAAAAAACABEEcAAAAAAAAAAAACYI4AAAAAAAAAAAAEgRxAAAAAAAAAAAAJAjiAAAAAAAAAAAASBDEAQAAAAAAAAAAkCCIAwAAAAAAAAAAIEEQBwAAAAAAAAAAQIIgDgAAAAAAAAAAgARBHAAAAAAAAAAAAAmCOAAAAAAAAAAAABIEcQAAAAAAAAAAACQI4gAAAAAAAAAAAEgQxAEAAAAAAAAAAJAgiAMAAAAAAAAAACBBEAcAAAAAAAAAAECCIA4AAAAAAAAAAIAEQRwAAAAAAAAAAAAJgjgAAAAAAAAAAAASBHEAAAAAAAAAAAAkCOIAAAAAAAAAAABIEMQBAAAAAAAAAACQIIgDAAAAAAAAAAAgQRAHAAAAAAAAAABAgiAOAAAAAAAAAACABEEcAAAAAAAAAAAACYI4AAAAAAAAAAAAEgRxAAAAAAAAAAAAJAjiAAAAAAAAAAAASBDEAQAAAAAAAAAAkCCIAwAAAAAAAAAAIEEQBwAAAAAAAAAAQIIgDgAAAAAAAAAAgARBHAAAAAAAAAAAAAmCOAAAAAAAAAAAABIEcQAAAAAAAAAAACQI4gAAAAAAAAAAAEgQxAEAAAAAAAAAAJAgiAMAAAAAAAAAACBBEAcAAAAAAAAAAECCIA4AAAAAAAAAAIAEQRwAAAAAAAAAAAAJgjgAAAAAAAAAAAASBHEAAAAAAAAAAAAkCOIAAAAAAAAAAABIEMQBAAAAAAAAAACQIIgDAAAAAAAAAAAgQRAHAAAAAAAAAABAgiAOAAAAAAAAAACABEEcAAAAAAAAAAAACYI4AAAAAAAAAAAAEgRxAAAAAAAAAAAAJAjiAAAAAAAAAAAASBDEAQAAAAAAAAAAkCCIAwAAAAAAAAAAIEEQBwAAAAAAAAAAQIIgDgAAAAAAAAAAgARBHAAAAAAAAAAAAAmCOAAAAAAAAAAAABIEcQAAAAAAAAAAACQI4gAAAAAAAAAAAEgQxAEAAAAAAAAAAJAgiAMAAAAAAAAAACBBEAcAAAAAAAAAAECCIA4AAAAAAAAAAIAEQRwAAAAAAAAAAAAJgjgAAAAAAAAAAAASBHEAAAAAAAAAAAAkCOIAAAAAAAAAAABIEMQBAAAAAAAAAACQIIgDAAAAAAAAAAAgQRAHAAAAAAAAAABAgiAOAAAAAAAAAACABEEcAAAAAAAAAAAACYI4AAAAAAAAAAAAEgRxAAAAAAAAAAAAJAjiAAAAAAAAAAAASBDEAQAAAAAAAAAAkCCIAwAAAAAAAAAAIEEQBwAAAAAAAAAAQIIgDgAAAAAAAAAAgARBHAAAAAAAAAAAAAmCOAAAAAAAAAAAABIEcQAAAAAAAAAAACQI4gAAAAAAAAAAAEgQxAEAAAAAAAAAAJAgiAMAAAAAAAAAACBBEAcAAAAAAAAAAECCIA4AAAAAAAAAAIAEQRwAAAAAAAAAAAAJgjgAAAAAAAAAAAASBHEAAAAAAAAAAAAkCOIAAAAAAAAAAABIEMQBAAAAAAAAAACQIIgDAAAAAAAAAAAgQRAHAAAAAAAAAABAgiAOAAAAAAAAAACABEEcAAAAAAAAAAAACYI4AAAAAAAAAAAAEgRxAAAAAAAAAAAAJAjiAAAAAAAAAAAASBDEAQAAAAAAAAAAkCCIAwAAAAAAAAAAIEEQBwAAAAAAAAAAQIIgDgAAAAAAAAAAgARBHAAAAAAAAAAAAAmCOAAAAAAAAAAAABIEcQAAAAAAAAAAACRsZg8AAAAAgP/CrXW9fmRZPpy94zBY1/WH2RsAAAAAYBsEcQAAAAAkXXrlhR/HGC/P3gEAAAAA/H+cTAUAAAAAAAAAACBBEAcAAAAAAAAAAECCIA4AAAAAAAAAAIAEQRwAAAAAAAAAAAAJgjgAAAAAAAAAAAASBHEAAAAAAAAAAAAkCOIAAAAAAAAAAABIEMQBAAAAAAAAAACQIIgDAAAAAAAAAAAgQRAHAAAAAAAAAABAgiAOAAAAAAAAAACABEEcAAAAAAAAAAAACYI4AAAAAAAAAAAAEgRxAAAAAAAAAAAAJAjiAAAAAAAAAAAASBDEAQAAAAAAAAAAkCCIAwAAAAAAAAAAIEEQBwAAAAAAAAAAQIIgDgAAAAAAAAAAgARBHAAAAAAAAAAAAAmCOAAAAAAAAAAAABIEcQAAAAAAAAAAACQI4gAAAAAAAAAAAEgQxAEAAAAAAAAAAJAgiAMAAAAAAAAAACBBEAcAAAAAAAAAAECCIA4AAAAAAAAAAIAEQRwAAAAAAAAAAAAJgjgAAAAAAAAAAAASBHEAAAAAAAAAAAAkCOIAAAAAAAAAAABIEMQBAAAAAAAAAACQIIgDAAAAAAAAAAAgQRAHAAAAAAAAAABAgiAOAAAAAAAAAACABEEcAAAAAAAAAAAACYI4AAAAAAAAAAAAEgRxAAAAAAAAAAAAJAjiAAAAAAAAAAAASBDEAQAAAAAAAAAAkCCIAwAAAAAAAAAAIEEQBwAAAAAAAAAAQIIgDgAAAAAAAAAAgARBHAAAAAAAAAAAAAmCOAAAAAAAAAAAABIEcQAAAAAAAAAAACQI4gAAAAAAAAAAAEgQxAEAAAAAAAAAAJCwzB4A3L4bF0+dHsv6zOwdANu0jPHkGOPx2TvYt8/WMW7OHgGwTcveOPfQm99dm70DAGA/Xnz3/ePrzs752TsADuixMcZTs0ewNdfGGF/MHgGwTes6vvn4nTOXZu8A9mczewBwEOsTyxgvzV4BwF3tWX9YADXLZvfC+PfxHgDgjre7jPt3vBECcGc5PnybgJhlGQ+MMQRxcEg4mQoAAAAAAAAAAECCIA4AAAAAAAAAAIAEQRwAAAAAAAAAAAAJgjgAAAAAAAAAAAASBHEAAAAAAAAAAAAkCOIAAAAAAAAAAABIEMQBAAAAAAAAAACQIIgDAAAAAAAAAAAgQRAHAAAAAAAAAABAgiAOAAAAAAAAAACABEEcAAAAAAAAAAAACYI4AAAAAAAAAAAAEgRxAAAAAAAAAAAAJAjiAAAAAAAAAAAASBDEAQAAAAAAAAAAkCCIAwAAAAAAAAAAIEEQBwAAAAAAAAAAQIIgDgAAAAAAAAAAgARBHAAAAAAAAAAAAAmCOAAAAAAAAAAAABIEcQAAAAAAAAAAACQI4gAAAAAAAAAAAEgQxAEAAAAAAAAAAJAgiAMAAAAAAAAAACBBEAcAAAAAAAAAAECCIA4AAAAAAAAAAIAEQRwAAAAAAAAAAAAJgjgAAAAAAAAAAAASBHEAAAAAAAAAAAAkCOIAAAAAAAAAAABIEMQBAAAAAAAAAACQIIgDAAAAAAAAAAAgQRAHAAAAAAAAAABAgiAOAAAAAAAAAACABEEcAAAAAAAAAAAACYI4AAAAAAAAAAAAEgRxAAAAAAAAAAAAJAjiAAAAAAAAAAAASBDEAQAAAAAAAAAAkCCIAwAAAAAAAAAAIEEQBwAAAAAAAAAAQIIgDgAAAAAAAAAAgARBHAAAAAAAAAAAAAmCOAAAAAAAAAAAABIEcQAAAAAAAAAAACQI4gAAAAAAAAAAAEgQxAEAAAAAAAAAAJAgiAMAAAAAAAAAACBBEAcAAAAAAAAAAECCIA4AACKPr2sAACAASURBVAAAAAAAAIAEQRwAAAAAAAAAAAAJgjgAAAAAAAAAAAASBHEAAAAAAAAAAAAkCOIAAAAAAAAAAABIEMQBAAAAAAAAAACQIIgDAAAAAAAAAAAgQRAHAAAAAAAAAABAgiAOAAAAAAAAAACABEEcAAAAAAAAAAAACYI4AAAAAAAAAAAAEgRxAAAAAAAAAAAAJAjiAAAAAAAAAAAASBDEAQAAAAAAAAAAkCCIAwAAAAAAAAAAIEEQBwAAAAAAAAAAQIIgDgAAAAAAAAAAgARBHAAAAAAAAAAAAAmCOAAAAAAAAAAAABIEcQAAAAAAAAAAACQI4gAAAAAAAAAAAEgQxAEAAAAAAAAAAJAgiAMAAAAAAAAAACBBEAcAAAAAAAAAAECCIA4AAAAAAAAAAIAEQRwAAAAAAAAAAAAJgjgAAAAAAAAAAAASBHEAAAAAAAAAAAAkCOIAAAAAAAAAAABIEMQBAAAAAAAAAACQIIgDAAAAAAAAAAAgQRAHAAAAAAAAAABAgiAOAAAAAAAAAACABEEcAAAAAAAAAAAACYI4AAAAAAAAAAAAEgRxAAAAAAAAAAAAJAjiAAAAAAAAAAAASBDEAQAAAAAAAAAAkCCIAwAAAAAAAAAAIEEQBwAAAAAAAAAAQIIgDgAAAAAAAAAAgARBHAAAAAAAAAAAAAmCOAAAAAAAAAAAABIEcQAAAAAAAAAAACRsZg8ADmBZri7L+Hz2DIBtWsd6aqzjxOwd7M+6jK92xvL77B0A27Ss9/4xewMAAAAAAHB7BHFwiD38xrdXxhhXZu8A2KbfLp68PJbl7Owd7M+y7L1+7LWrX8/eAQAAAAAAADCGk6kAAAAAAAAAAABECOIAAAAAAAAAAABIcDIVAAAAAAAOqb3NuLWzO36evQPggO4bYxybPYKt+XOMcX32CICtWpYbsycA+yeIAwAAAACAQ+rTt87+NMZ4dPYOgIN4/sIHzy3r8snsHWzJMr786O0zT8+eAQDcvZxMBQAAAAAAAAAAIEEQBwAAAAAAAAAAQIIgDgAAAAAAAAAAgARBHAAAAAAAAAAAAAmCOAAAAAAAAAAAABIEcQAAAAAAAAAAACQI4gAAAAAAAAAAAEgQxAEAAAAAAAAAAJAgiAMAAAAAAAAAACBBEAcAAAAAAAAAAECCIA4AAAAAAAAAAIAEQRwAAAAAAAAAAAAJgjgAAAAAAAAAAAASBHEAAAAAAAAAAAAkCOIAAAAAAAAAAABIEMQBAAAAAAAAAACQIIgDAAAAAAAAAAAgQRAHAAAAAAAAAABAgiAOAAAAAAAAAACABEEcAAAAAAAAAAAACYI4AAAAAAAAAAAAEgRxAAAAAAAAAAAAJAjiAAAAAAAAAAAASBDEAQAAAAAAAAAAkCCIAwAAAAAAAAAAIEEQBwAAAAAAAAAAQIIgDgAAAAAAAAAAgARBHAAAAAAAAAAAAAmCOAAAAAAAAAAAABIEcQAAAAAAAAAAACQI4gAAAAAAAAAAAEgQxAEAAAAAAAAAAJAgiAMAAAAAAAAAACBBEAcAAAAAAAAAAECCIA4AAAAAAAAAAIAEQRwAAAAAAAAAAAAJgjgAAAAAAAAAAAASBHEAAAAAAAAAAAAkCOIAAAAAAAAAAABIEMQBAAAAAAAAAACQIIgDAAAAAAAAAAAgQRAHAAAAAAAAAABAgiAOAAAAAAAAAACABEEcAAAAAAAAAAAACYI4AAAAAAAAAAAAEgRxAAAAAAAAAAAAJAjiAAAAAAAAAAAASBDEAQAAAAAAAAAAkCCIAwAAAAAAAAAAIEEQBwAAAAAAAAAAQIIgDgAAAAAAAAAAgARBHAAAAAAAAAAAAAmCOAAAAAAAAAAAABIEcQAAAAAAAAAAACQI4gAAAAAAAAAAAEgQxAEAAAAAAAAAAJAgiAMAAAAAAAAAACBBEAcAAAAAAAAAAECCIA4AAAAAAAAAAIAEQRwAAAAAAAAAAAAJgjgAAAAAAAAAAAASBHEAAAAAAAAAAAAkCOIAAAAAAAAAAABIEMQBAAAAAAAAAACQIIgDAAAAAAAAAAAgQRAHAAAAAAAAAABAgiAOAAAAAAAAAACABEEcAAAAAAAAAAAACYI4AAAAAAAAAAAAEgRxAAAAAAAAAAAAJAjiAAAAAAAAAAAASBDEAQAAAAAAAAAAkCCIAwAAAAAAAAAAIEEQBwAAAAAAAAAAQIIgDgAAAAAAAAAAgARBHAAAAAAAAAAAAAmCOAAAAAAAAAAAABIEcQAAAAAAAAAAACQI4gAAAAAAAAAAAEgQxAEAAAAAAAAAAJAgiAMAAAAAAAAAACBBEAcAAAAAAAAAAECCIA4AAAAAAAAAAIAEQRwAAAAAAAAAAAAJgjgAAAAAAAAAAAASBHEAAAAAAAAAAAAkCOIAAAAAAAAAAABIEMQBAAAAAAAAAACQIIgDAAAAAAAAAAAgQRAHAAAAAAAAAABAgiAOAAAAAAAAAACABEEcAAAAAAAAAAAACYI4AAAAAAAAAAAAEgRxAAAAAAAAAAAAJAjiAAAAAAAAAAAASBDEAQAAAAAAAAAAkCCIAwAAAAAAAAAAIEEQBwAAAAAAAAAAQIIgDgAAAAAAAAAAgARBHAAAAAAAAAAAAAmCOAAAAAAAAAAAABIEcQAAAAAAAAAAACQI4gAAAAAAAAAAAEgQxAEAAAAAAAAAAJAgiAMAAAAAAAAAACBBEAcAAAAAAAAAAECCIA4AAAAAAAAAAIAEQRwAAAAAAAAAAAAJgjgAAAAAAAAAAAASBHEAAAAAAAAAAAAkbGYPAAAAAKDn13MnH7zn7yMnZu/gzvXXZveXR85/f3P2DgAAAABaBHEAAAAAbN3R3c3pvWV5b/YO7lxHd5dXxxiXZ+8AAAAAoMXJVAAAAAAAAAAAABIEcQAAAAAAAAAAACQI4gAAAAAAAAAAAEgQxAEAAAAAAAAAAJAgiAMAAAAAAAAAACBBEAcAAAAAAAAAAECCIA4AAAAAAAAAAIAEQRwAAAAAAAAAAAAJgjgAAAAAAAAAAAASBHEAAAAAAAAAAAAkCOIAAAAAAAAAAABIEMQBAAAAAAAAAACQIIgDAAAAAAAAAAAgQRAHAAAAAAAAAABAgiAOAAAAAAAAAACABEEcAAAAAAAAAAAACYI4AAAAAAAAAAAAEgRxAAAAAAAAAAAAJAjiAAAAAAAAAAAASBDEAQAAAAAAAAAAkCCIAwAAAAAAAAAAIEEQBwAAAAAAAAAAQIIgDgAAAAAAAAAAgARBHAAAAAAAAAAAAAmCOAAAAAAAAAAAABIEcQAAAAAAAAAAACQI4gAAAAAAAAAAAEgQxAEAAAAAAAAAAJAgiAMAAAAAAAAAACBBEAcAAAAAAAAAAECCIA4AAAAAAAAAAIAEQRwAAAAAAAAAAAAJgjgAAAAAAAAAAAASBHEAAAAAAAAAAAAkCOIAAAAAAAAAAABIEMQBAAAAAAAAAACQIIgDAAAAAAAAAAAgQRAHAAAAAAAAAABAgiAOAAAAAACAf9i7exU7yzAMo++32TJTCCJT5ARsJEdgp4VVWisjkiopLPypAlpMY6nGnyYgTKGmkfSCJ5AyjRA8guCQImAURzOfjUU6ZQx5s6+sdQR39VQXPAAAAAmCOAAAAAAAAAAAABIEcQAAAAAAAAAAACQI4gAAAAAAAAAAAEgQxAEAAAAAAAAAAJAgiAMAAAAAAAAAACBBEAcAAAAAAAAAAECCIA4AAAAAAAAAAIAEQRwAAAAAAAAAAAAJgjgAAAAAAAAAAAASBHEAAAAAAAAAAAAkCOIAAAAAAAAAAABIEMQBAAAAAAAAAACQIIgDAAAAAAAAAAAgQRAHAAAAAAAAAABAgiAOAAAAAAAAAACABEEcAAAAAAAAAAAACYI4AAAAAAAAAAAAEgRxAAAAAAAAAAAAJAjiAAAAAAAAAAAASBDEAQAAAAAAAAAAkCCIAwAAAAAAAAAAIEEQBwAAAAAAAAAAQIIgDgAAAAAAAAAAgARBHAAAAAAAAAAAAAmCOAAAAAAAAAAAABIEcQAAAAAAAAAAACQI4gAAAAAAAAAAAEgQxAEAAAAAAAAAAJAgiAMAAAAAAAAAACBBEAcAAAAAAAAAAECCIA4AAAAAAAAAAIAEQRwAAAAAAAAAAAAJgjgAAAAAAAAAAAASBHEAAAAAAAAAAAAkCOIAAAAAAAAAAABIEMQBAAAAAAAAAACQIIgDAAAAAAAAAAAgQRAHAAAAAAAAAABAgiAOAAAAAAAAAACABEEcAAAAAAAAAAAACYI4AAAAAAAAAAAAEgRxAAAAAAAAAAAAJAjiAAAAAAAAAAAASBDEAQAAAAAAAAAAkCCIAwAAAAAAAAAAIEEQBwAAAAAAAAAAQIIgDgAAAAAAAAAAgARBHAAAAAAAAAAAAAmCOAAAAAAAAAAAABIEcQAAAAAAAAAAACQI4gAAAAAAAAAAAEgQxAEAAAAAAAAAAJAgiAMAAAAAAAAAACBBEAcAAAAAAAAAAECCIA4AAAAAAAAAAIAEQRwAAAAAAAAAAAAJgjgAAAAAAAAAAAASBHEAAAAAAAAAAAAkCOIAAAAAAAAAAABIEMQBAAAAAAAAAACQIIgDAAAAAAAAAAAgQRAHAAAAAAAAAABAgiAOAAAAAAAAAACABEEcAAAAAAAAAAAACYI4AAAAAAAAAAAAEgRxAAAAAAAAAAAAJAjiAAAAAAAAAAAASBDEAQAAAAAAAAAAkCCIAwAAAAAAAAAAIEEQBwAAAAAAAAAAQIIgDgAAAAAAAAAAgARBHAAAAAAAAAAAAAmCOAAAAAAAAAAAABIEcQAAAAAAAAAAACQI4gAAAAAAAAAAAEgQxAEAAAAAAAAAAJAgiAMAAAAAAAAAACBBEAcAAAAAAAAAAECCIA4AAAAAAAAAAIAEQRwAAAAAAAAAAAAJgjgAAAAAAAAAAAASBHEAAAAAAAAAAAAkCOIAAAAAAAAAAABIEMQBAAAAAAAAAACQIIgDAAAAAAAAAAAgQRAHAAAAAAAAAABAgiAOAAAAAAAAAACABEEcAAAAAAAAAAAACYI4AAAAAAAAAAAAEgRxAAAAAAAAAAAAJAjiAAAAAAAAAAAASBDEAQAAAAAAAAAAkCCIAwAAAAAAAAAAIEEQBwAAAAAAAAAAQIIgDgAAAAAAAAAAgARBHAAAAAAAAAAAAAmCOAAAAAAAAAAAABIEcQAAAAAAAAAAACQI4gAAAAAAAAAAAEgQxAEAAAAAAAAAAJAgiAMAAAAAAAAAACBBEAcAAAAAAAAAAECCIA4AAAAAAAAAAIAEQRwAAAAAAAAAAAAJgjgAAAAAAAAAAAASBHEAAAAAAAAAAAAkCOIAAAAAAAAAAABIEMQBAAAAAAAAAACQIIgDAAAAAAAAAAAgQRAHAAAAAAAAAABAgiAOAAAAAAAAAACABEEcAAAAAAAAAAAACYI4AAAAAAAAAAAAEgRxAAAAAAAAAAAAJAjiAAAAAAAAAAAASBDEAQAAAAAAAAAAkCCIAwAAAAAAAAAAIEEQBwAAAAAAAAAAQIIgDgAAAAAAAAAAgARBHAAAAAAAAAAAAAmCOAAAAAAAAAAAABK2swcAAAAAAAAAAPDkXbz85dVlnO7P3sEYYxm3vr3+7g+zZ0CBIA4AAAAAAAAA4Bm0jPXqGMsLs3cwxhjr52MMQRw8Bl6mAgAAAAAAAAAAkCCIAwAAAAAAAAAAIEEQBwAAAAAAAAAAQIIgDgAAAAAAAAAAgARBHAAAAAAAAAAAAAmCOAAAAAAAAAAAABIEcQAAAAAAAAAAACQI4gAAAAAAAAAAAEgQxAEAAAAAAAAAAJAgiAMAAAAAAAAAACBBEAcAAAAAAAAAAECCIA4AAAAAAAAAAIAEQRwAAAAAAAAAAAAJgjgAAAAAAAAAAAASBHEAAAAAAAAAAAAkbGcPgF31/vUb34wxXp+9Ywfc++zKm+dnjwAAAAAAAAAAoE8QB2f34hjj3OwRO8CdAQAAAAAAAADgifAyFQAAAAAAAAAAgARBHAAAAAAAAAAAAAmCOAAAAAAAAAAAABIEcQAAAAAAAAAAACQI4gAAAAAAAAAAAEgQxAEAAAAAAAAAAJAgiAMAAAAAAAAAACBBEAcAAAAAAAAAAECCIA4AAAAAAAAAAIAEQRwAAAAAAAAAAAAJgjgAAAAAAAAAAAASBHEAAAAAAAAAAAAkCOIAAAAAAAAAAABIEMQBAAAAAAAAAACQIIgDAAAAAAAAAAAgQRAHAAAAAAAAAABAgiAOAAAAAAAAAACABEEcAAAAAAAAAAAACYI4AAAAAAAAAAAAEgRxAAAAAAAAAAAAJAjiAAAAAAAAAAAASBDEAQAAAAAAAAAAkCCIAwAAAAAAAAAAIEEQBwAAAAAAAAAAQIIgDgAAAAAAAAAAgARBHAAAAAAAAAAAAAmCOAAAAAAAAAAAABIEcQAAAAAAAAAAACQI4gAAAAAAAAAAAEgQxAEAAAAAAAAAAJAgiAMAAAAAAAAAACBBEAcAAAAAAAAAAECCIA4AAAAAAAAAAIAEQRwAAAAAAAAAAAAJgjgAAAAAAAAAAAASBHEAAAAAAAAAAAAkCOIAAAAAAAAAAABIEMQBAAAAAAAAAACQIIgDAAAAAAAAAAAgYTt7AADAo07H+HGzLL/O3sF/s1n37s7eAAAAAMCOezjujM34ZPYMHo91HT/P3gAAPNsEcQDAU+Xce3dujjFuzt4BAAAAADwZNz68fHuMcXv2DgAAGrxMBQAAAAAAAAAAIEEQBwAAAAAAAAAAQIIgDgAAAAAAAAAAgARBHAAAAAAAAAAAAAmCOAAAAAAAAAAAABIEcQAAAAAAAAAAACQI4gAAAAAAAAAAAEgQxAEAAAAAAAAAAJAgiAMAAAAAAAAAACBBEAcAAAAAAAAAAECCIA4AAAAAAAAAAIAEQRwAAAAAAAAAAAAJgjgAAAAAAAAAAAASBHEAAAAAAAAAAAAkCOIAAAAAAAAAAABIEMQBAAAAAAAAAACQIIgDAAAAAAAAAAAgQRAHAAAAAAAAAABAgiAOAAAAAAAAAACABEEcAAAAAAAAAAAACYI4AAAAAAAAAAAAEgRxAAAAAAAAAAAAJAjiAAAAAAAAAAAASBDEAQAAAAAAAAAAkCCIAwAAAAAAAAAAIEEQBwAAAAAAAAAAQIIgDgAAAAAAAAAAgARBHAAAAAAAAAAAAAmCOAAAAAAAAAAAABIEcQAAAAAAAAAAACQI4gAAAAAAAAAAAEgQxAEAAAAAAAAAAJAgiAMAAAAAAAAAACBBEAcAAAAAAAAAAECCIA4AAAAAAAAAAIAEQRwAAAAAAAAAAAAJgjgAAAAAAAAAAAASBHEAAAAAAAAAAAAkCOIAAAAAAAAAAABIEMQBAAAAAAAAAACQIIgDAAAAAAAAAAAgQRAHAAAAAAAAAABAgiAOAAAAAAAAAACABEEcAAAAAAAAAAAACYI4AAAAAAAAAAAAEgRxAAAAAAAAAAAAJAjiAAAAAAAAAAAASBDEAQAAAAAAAAAAkCCIAwAAAAAAAAAAIEEQBwAAAAAAAAAAQIIgDgAAAAAAAAAAgARBHAAAAAAAAAAAAAmCOAAAAAAAAAAAABIEcQAAAAAAAAAAACQI4gAAAAAAAAAAAEgQxAEAAAAAAAAAAJAgiAMAAAAAAAAAACBBEAcAAAAAAAAAAECCIA4AAAAAAAAAAIAEQRwAAAAAAAAAAAAJgjgAAAAAAAAAAAASBHEAAAAAAAAAAAAkCOIAAAAAAAAAAABIEMQBAAAAAAAAAACQIIgDAAAAAAAAAAAgQRAHAAAAAAAAAABAgiAOAAAAAAAAAACABEEcAAAAAAAAAAAACYI4AAAAAAAAAAAAEgRxAAAAAAAAAAAAJAjiAAAAAAAAAAAASBDEAQAAAAAAAAAAkCCIAwAAAAAAAAAAIEEQBwAAAAAAAAAAQIIgDgAAAAAAAAAAgARBHAAAAAAAAAAAAAmCOAAAAAAAAAAAABIEcQAAAAAAAAAAACQI4gAAAAAAAAAAAEgQxAEAAAAAAAAAAJAgiAMAAAAAAAAAACBBEAcAAAAAAAAAAECCIA4AAAAAAAAAAIAEQRwAAAAAAAAAAAAJgjgAAAAAAAAAAAASBHEAAAAAAAAAAAAkCOIAAAAAAAAAAABIEMQBAAAAAAAAAACQIIgDAAAAAAAAAAAgQRAHAAAAAAAAAABAgiAOAAAAAAAAAACABEEcAAAAAAAAAAAACYI4AAAAAAAAAAAAEgRxAAAAAAAAAAAAJAjiAAAAAAAAAAAASBDEAQAAAAAAAAAAkCCIAwAAAAAAAAAAIEEQBwAAAAAAAAAAQIIgDgAAAAAAAAAAgARBHAAAAAAAAAAAAAmCOAAAAAAAAAAAABIEcQAAAAAAAAAAACQI4gAAAAAAAAAAAEgQxAEAAAAAAAAAAJAgiAMAAAAAAAAAACBBEAcAAAAAAAAAAECCIA4AAAAAAAAAAIAEQRwAAAAAAAAAAAAJgjgAAAAAAAAAAAASBHEAAAAAAAAAAAAkCOIAAAAAAAAAAABIEMQBAAAAAAAAAACQIIgDAAAAAAAAAAAgQRAHAAAAAAAAAABAgiAOAAAAAAAAAACABEEcAAAAAAAAAAAACYI4AAAAAAAAAAAAEgRxAAAAAAAAAAAAJAjiAAAAAAAAAAAASBDEAQAAAAAAAAAAkCCIAwAAAAAAAAAAIEEQBwAAAAAAAAAAQIIgDgAAAAAAAAAAgARBHAAAAAAAAAAAAAmCOAAAAAAAAAAAABIEcQAAAAAAAAAAACQI4gAAAAAAAAAAAEgQxAEAAAAAAAAAAJAgiAMAAAAAAAAAACBBEAcAAAAAAAAAAECCIA4AAAAAAAAAAIAEQRwAAAAAAAAAAAAJgjgAAAAAAAAAAAASBHEAAAAAAAAAAAAkCOIAAAAAAAAAAABIEMQBAAAAAAAAAACQIIgDAAAAAAAAAAAgQRAHAAAAAAAAAABAgiAOAAAAAAAAAACABEEcAAAAAAAAAAAACYI4AAAAAAAAAAAAEgRxAAAAAAAAAAAAJAjiAAAAAAAAAAAASBDEAQAAAAAAAAAAkCCIAwAAAAAAAAAAIEEQBwAAAAAAAAAAQIIgDgAAAAAAAAAAgARBHAAAAAAAAAAAAAmCOAAAAAAAAAAAABIEcQAAAAAAAAAAACQI4gAAAAAAAAAAAEjYzh4AAADwNFkPX90ej+P92TsAdt3pg83eWNbZM3iKretm75fD88/P3gFQczzGyfnDn05m7wAAAJhFEAcAAPCIuw/uvbUsm6PZOwB2nhiOf7Os105/21ybPQOg5mCsH48xPpq9AwAAYBYvUwEAAAAAAAAAAEgQxAEAAAAAAAAAAJAgiAMAAAAAAAAAACBBEAcAAAAAAAAAAECCIA4AAAAAAAAAAIAEQRwAAAAAAAAAAAAJgjgAAAAAAAAAAAASBHEAAAAAAAAAAAAkCOIAAAAAAAAAAABIEMQBAAAAAAAAAACQIIgDAAAAAAAAAAAgQRAHAAAAAAAAAABAgiAOAAAAAAAAAACABEEcAAAAAAAAAAAACYI4AAAAAAAAAAAAEgRxAAAAAAAAAAAAJAjiAAAAAAAAAAAASBDEAQAAAAAAAAAAkCCIAwAAAAAAAAAAIGE7ewAAAAAAAAAAnNXb73x18PCv09dm74CdtI7nZk/gH+vy0sUrX7wxewYUCOIAAAAAAAAA2F1/Pnx5Gcv3s2cA/E8XlnVcmD0CCrxMBQAAAAAAAAAAIEEQBwAAAAAAAAAAQIIgDgAAAAAAAAAAgARBHAAAAAAAAAAAAAmCOAAAAAAAAAAAABIEcQAAAAAAAAAAACRsD4+O9mePgF10/2TdjLHMnrET3Bk4m8NLl/4Yy7LO3gEAAAAAAAAAu2J7/2Tv99kjgLQDdwbO5oOvv3vl0zFuzd4BAAAAAAAAALvCy1QAAAAAAAAAAAASBHEAAAAAAAAAAAAkCOIAAAAAAAAAAABIEMQBAAAAAAAAAACQIIgDAAAAAAAAAAAgQRAHAAAAAAAAAABAgiAOAAAAAAAAAACABEEcAAAAAAAAAAAACYI4AAAAAAAAAAAAEgRxAAAAAAAAAAAAJAjiAAAAAAAAAAAASBDEAQAAAAAAAAAAkCCIAwAAAAAAAAAAIEEQBwAAAAAAAAAAQIIgDgAAAAAAAAAAgARBHAAAAAAAAAAAAAmCOAAAAAAAAAAAABIEcQAAAAAAAAAAACQI4gAAAAAAAAAAAEgQxAEAAAAAAAAAAJAgiAMAAAAAAAAAACBBEAcAAAAAAAAAAECCIA4AAAAAAAAAAIAEQRwAAAAAAAAAAAAJgjgAAAAAAAAAAAASBHEAAAAAAAAAAAAkCOIAAAAAAAAAAABIEMQBAAAAAAAAAACQIIgDAAAAAAAAAAAgQRAHAAAAAAAAAABAgiAOAAAAAAAAAACABEEcAAAAAAAAAAAACYI4AAAAAAAAAAAAEgRxAAAAAAAAAAAAJAjiAAAAAAAAAAAASBDEAQAAAAAAAAAAkCCIAwAAAAAAAAAAIEEQBwAAAAAAAAAAQIIgDgAAAAAAAAAAgARBHAAAAAAAAAAAAAmCOAAAAAAAAAAAABIEcQAAAAAAAAAAACQI4gAAAAAAAAAAAEgQxAEAAAAAAAAAAJAgiAMAAAAAAAAAACBBEAcAAAAAAAAAAECCIA4AAAAAAAAAAIAEQRwAAAAAAAAAAAAJgjgAAAAAAAAAAAASBHEAAAAAAAAAAAAkCOIAAADgb/buGETSs4Dj8PvOLjFgQAQhIBFtBAU7CwWxErG0SnEi2N0diBIbK0GxUwSDgphIIEW00cZS0E6DomUKURBFFOwMmIs33918FruXvTtWCHG97/Z3zwNT7MzszH+3/vG+AAAAAABAgiAOAAAAAAAAAACABEEcAAAAAAAAAAAACYI4AAAAAAAAAAAAEgRxAAAAAAAAH8cvXAAAIABJREFUAAAAJAjiAAAAAAAAAAAASBDEAQAAAAAAAAAAkCCIAwAAAAAAAAAAIEEQBwAAAAAAAAAAQIIgDgAAAAAAAAAAgARBHAAAAAAAAAAAAAmCOAAAAAAAAAAAABIEcQAAAAAAAAAAACQI4gAAAAAAAAAAAEgQxAEAAAAAAAAAAJAgiAMAAAAAAAAAACBBEAcAAAAAAAAAAECCIA4AAAAAAAAAAIAEQRwAAAAAAAAAAAAJx1sPgAt2e4yxnPPYjzGWOcayjrGMOZYx5jLGuqxjLHMd+5PX5jLGYRljLnOM5TDmMk9/Xk/fM06fW+f83Bjjg9v9qZfFemOdu69uvQIuo/Ww/mXrDQAAAAAAAABwmQjiuOPukGw/7gvK7g7JzsKw9Y1w7P6QbF3vBGjraVR2FpKNMZfDGMtujv1hztPPPyxzzNPX5jLH7ZMI7TD2c8zl5HFrWcZcdutumeNoORr/Xo7Xo+XWE7f3Tzz++PK1p59expzrg/qHfem5H318COLehPn6s1evfGvrFQAAAAAAAAAA9Ani/ne3xvknkt0Vkq37MebJSWTnhGRzXfcnEdh61+/dG5Ktc93P0+hsjrmcF5Kth5P33D597ryQ7LHHxv71ebQczdeW46OjZYuQDAAAAAAAAAAA4P9hyyDu3JBsHXdOHzsLx+4JydbdfpyGY2dXWt4bkq1zt7/7JLLzQrLdYewPb8RkJ++5PyQ7HI39nMuyG7vlaO4WIRkAAAAAAAAAAMDD63is43vrvBOh3Xul5Z2QbIyxH+vZaWXnhWRHRyenk90ac5ljt5wXkt3Yv2s/xt+X569evSUkAwAAAAAAAAAA4CIdf/v6Zz7/wL/12rUH/pUAAAAAAAAAAAC07bYeAAAAAAAAAAAAABdBEAcAAAAAAAAAAECCIA4AAAAAAAAAAIAEQRwAAAAAAAAAAAAJgjgAAAAAAAAAAAASBHEAAAAAAAAAAAAkHG89AAAAAAAAAADeqtvrenPO3d+23gGX0/ruMcbcegVjjDH+NcZ8desRUCCIAwAAAAAAAODS+uEPnvntGOOprXfAZfTZq9/55xjjHVvvYIwx1xdeeu6Lz2w9AwpcmQoAAAAAAAAAAECCIA4AAAAAAAAAAIAEQRwAAAAAAAAAAAAJgjgAAAAAAAAAAAASBHEAAAAAAAAAAAAkCOIAAAAAAAAAAABIEMQBAAAAAAAAAACQIIgDAAAAAAAAAAAgQRAHAAAAAAAAAABAgiAOAAAAAAAAAACABEEcAAAAAAAAAAAACYI4AAAAAAAAAAAAEgRxAAAAAAAAAAAAJAjiAAAAAAAAAAAASBDEAQAAAAAAAAAAkCCIAwAAAAAAAAAAIEEQBwAAAAAAAAAAQIIgDgAAAAAAAAAAgARBHAAAAAAAAAAAAAnHWw8AAAB4mOx26x/WdffC1jsAAj4wxvqxrUfwMJu/GmP8fusVADVzjN9tvQEAAGBLgjgAAIC7PPmNV14eY7y89Q6Ay+4fX/7Q9XVMQRz/1RyHl5785ivf33oHAAAAAC2uTAUAAAAAAAAAACBBEAcAAAAAAAAAAECCIA4AAAAAAAAAAIAEQRwAAAAAAAAAAAAJgjgAAAAAAAAAAAASBHEAAAAAAAAAAAAkCOIAAAAAAAAAAABIEMQBAAAAAAAAAACQIIgDAAAAAAAAAAAgQRAHAAAAAAAAAABAgiAOAAAAAAAAAACABEEcAAAAAAAAAAAACYI4AAAAAAAAAAAAEgRxAAAAAAAAAAAAJAjiAAAAAAAAAAAASBDEAQAAAAAAAAAAkCCIAwAAAAAAAAAAIEEQBwAAAAAAAAAAQIIgDgAAAAAAAAAAgARBHAAAAAAAAAAAAAmCOAAAAAAAAAAAABIEcQAAAAAAAAAAACQI4gAAAAAAAAAAAEgQxAEAAAAAAAAAAJAgiAMAAAAAAAAAACBBEAcAAAAAAAAAAECCIA4AAAAAAAAAAIAEQRwAAAAAAAAAAAAJgjgAAAAAAAAAAAASBHEAAAAAAAAAAAAkCOIAAAAAAAAAAABIEMQBAAAAAAAAAACQIIgDAAAAAAAAAAAgQRAHAAAAAAAAAABAgiAOAAAAAAAAAACABEEcAAAAAAAAAAAACYI4AAAAAAAAAAAAEgRxAAAAAAAAAAAAJAjiAAAAAAAAAAAASBDEAQAAAAAAAAAAkCCIAwAAAAAAAAAAIEEQBwAAAAAAAAAAQIIgDgAAAAAAAAAAgARBHAAAAAAAAAAAAAmCOAAAAAAAAAAAABIEcQAAAAAAAAAAACQI4gAAAAAAAAAAAEgQxAEAAAAAAAAAAJAgiAMAAAAAAAAAACBBEAcAAAAAAAAAAECCIA4AAAAAAAAAAIAEQRwAAAAAAAAAAAAJgjgAAAAAAAAAAAASBHEAAAAAAAAAAAAkCOIAAAAAAAAAAABIEMQBAAAAAAAAAACQIIgDAAAAAAAAAAAgQRAHAAAAAAAAAABAgiAOAAAAAAAAAACABEEcAAAAAAAAAAAACYI4AAAAAAAAAAAAEgRxAAAAAAAAAAAAJAjiAAAAAAAAAAAASBDEAQAAAAAAAAAAkCCIAwAAAAAAAAAAIEEQBwAAAAAAAAAAQIIgDgAAAAAAAAAAgARBHAAAAAAAAAAAAAmCOAAAAAAAAAAAABIEcQAAAAAAAAAAACQI4gAAAAAAAAAAAEgQxAEAAAAAAAAAAJAgiAMAAAAAAAAAACBBEAcAAAAAAAAAAECCIA4AAAAAAAAAAIAEQRwAAAAAAAAAAAAJgjgAAAAAAAAAAAASBHEAAAAAAAAAAAAkCOIAAAAAAAAAAABIEMQBAAAAAAAAAACQIIgDAAAAAAAAAAAgQRAHAAAAAAAAAABAgiAOAAAAAAAAAACABEEcAAAAAAAAAAAACYI4AAAAAAAAAAAAEgRxAAAAAAAAAAAAJAjiAAAAAAAAAAAASBDEAQAAAAAAAAAAkCCIAwAAAAAAAAAAIEEQBwAAAAAAAAAAQIIgDgAAAAAAAAAAgARBHAAAAAAAAAAAAAmCOAAAAAAAAAAAABIEcQAAAAAAAAAAACQI4gAAAAAAAAAAAEgQxAEAAAAAAAAAAJAgiAMAAAAAAAAAACBBEAcAAAAAAAAAAECCIA4AAAAAAAAAAIAEQRwAAAAAAAAAAAAJgjgAAAAAAAAAAAASBHEAAAAAAAAAAAAkCOIAAAAAAAAAAABIEMQBAAAAAAAAAACQIIgDAAAAAAAAAAAgQRAHAAAAAAAAAABAgiAOAAAAAAAAAACABEEcAAAAAAAAAAAACYI4AAAAAAAAAAAAEgRxAAAAAAAAAAAAJAjiAAAAAAAAAAAASBDEAQAAAAAAAAAAkCCIAwAAAAAAAAAAIEEQBwAAAAAAAAAAQIIgDgAAAAAAAAAAgARBHAAAAAAAAAAAAAmCOAAAAAAAAAAAABIEcQAAAAAAAAAAACQI4gAAAAAAAAAAAEgQxAEAAAAAAAAAAJAgiAMAAAAAAAAAACBBEAcAAAAAAAAAAECCIA4AAAAAAAAAAIAEQRwAAAAAAAAAAAAJgjgAAAAAAAAAAAASBHEAAAAAAAAAAAAkCOIAAAAAAAAAAABIEMQBAAAAAAAAAACQIIgDAAAAAAAAAAAgQRAHAAAAAAAAAABAgiAOAAAAAAAAAACABEEcAAAAAAAAAAAACYI4AAAAAAAAAAAAEgRxAAAAAAAAAAAAJAjiAAAAAAAAAAAASBDEAQAAAAAAAAAAkCCIAwAAAAAAAAAAIEEQBwAAAAAAAAAAQIIgDgAAAAAAAAAAgITjrQcAAI+2X7/vI58+zPU9W+/gYuzm/NlH//SbP269AwAAAIDL46lPfuX9R+v81NY7uBhzzL/++edf/+nWOwCAR5cgDgDY1DrnF+Y6PrH1Di7IOq6MMQRxAAAAALxpx3N+eB3zu1vv4GKsY/xijCGIAwA248pUAAAAAAAAAAAAEgRxAAAAAAAAAAAAJAjiAAAAAAAAAAAASBDEAQAAAAAAAAAAkCCIAwAAAAAAAAAAIEEQBwAAAAAAAAAAQIIgDgAAAAAAAAAAgARBHAAAAAAAAAAAAAmCOAAAAAAAAAAAABIEcQAAAAAAAAAAACQI4gAAAAAAAAAAAEgQxAEAAAAAAAAAAJAgiAMAAAAAAAAAACBBEAcAAAAAAAAAAECCIA4AAAAAAAAAAIAEQRwAAAAAAAAAAAAJgjgAAAAAAAAAAAASBHEAAAAAAAAAAAAkCOIAAAAAAAAAAABIEMQBAAAAAAAAAACQIIgDAAAAAAAAAAAgQRAHAAAAAAAAAABAgiAOAAAAAAAAAACABEEcAAAAAAAAAAAACYI4AAAAAAAAAAAAEgRxAAAAAAAAAAAAJAjiAAAAAAAAAAAASBDEAQAAAAAAAAAAkCCIAwAAAAAAAAAAIEEQBwAAAAAAAAAAQIIgDgAAAAAAAAAAgARBHAAAAAAAAAAAAAmCOAAAAAAAAAAAABIEcQAAAAAAAAAAACQI4gAAAAAAAAAAAEgQxAEAAAAAAAAAAJAgiAMAAAAAAAAAACBBEAcAAAAAAAAAAECCIA4AAAAAAAAAAIAEQRwAAAAAAAAAAAAJgjgAAAAAAAAAAAASBHEAAAAAAAAAAAAkCOIAAAAAAAAAAABIEMQBAAAAAAAAAACQIIgDAAAAAAAAAAAgQRAHAAAAAAAAAABAgiAOAAAAAAAAAACABEEcAAAAAAAAAAAACYI4AAAAAAAAAAAAEgRxAAAAAAAAAAAAJAjiAAAAAAAAAAAASBDEAQAAAAAAAAAAkHC89QC4rNZ1vjjn+sutdzzs5pg3tt4AAAAAAAAAAMCjQRAHb9Gz16/8ZOsNAAAAAAAAAADAGVemAgAAAAAAAAAAkCCIAwAAAAAAAAAAIEEQBwAAAAAAAAAAQIIgDgAAAAAAAAAAgARBHAAAAAAAAAAAAAmCOAAAAAAAAAAAABIEcQAAAAAAAAAAACQI4gAAAAAAAAAAAEgQxAEAAAAAAAAAAJAgiAMAAAAAAAAAACBBEAcAAAAAAAAAAECCIA4AAAAAAAAAAIAEQRwAAAAAAAAAAAAJgjgAAAAAAAAAAAASBHEAAAAAAAAAAAAkHG89AAAAAAAAAACAB+/meNt7376/MbfewRivvXO9ufUGqBDEAQAAAAAAAAA8gn78/LVXt94AcNFcmQoAAAAAAAAAAECCIA4AAAAAAAAAAIAEQRwAAAAAAAAAAAAJgjgAAAAAAAAAAAASBHEAAAAAAAAAAAAkCOIAAAAAAAAAAABIEMQBAAAAAAAAAACQIIgDAAAAAAAAAAAgQRAHAAAAAAAAAABAgiAOAAAAAAAAAACABEEcAAAAAAAAAAAACYI4AAAAAAAAAAAAEgRxAAAAAAAAAAAAJAjiAAAAAAAAAAAASBDEAQAAAAAAAAAAkCCIAwAAAAAAAAAAIEEQBwAAAAAAAAAAQIIgDgAAAAAAAAAAgARBHAAAAAAAAAAAAAmCOAAAAAAAAAAAABIEcQAAAAAAAAAAACQI4gAAAAAAAAAAAEgQxAEAAAAAAAAAAJAgiAMAAAAAAAAAACBBEAcAAAAAAAAAAECCIA4AAAAAAAAAAIAEQRwAAAAAAAAAAAAJgjgAAAAAAAAAAAASBHEAAAAAAAAAAAAkCOIAAAAAAAAAAABIEMQBAAAAAAAAAACQIIgDAAAAAAAAAAAgQRAHAAAAAAAAAABAgiAOAAAAAAAAAACABEEcAAAAAAAAAAAACYI4AAAAAAAAAAAAEgRxAAAAAAAAAAAAJAjiAAAAAAAAAAAASBDEAQAAAAAAAAAAkCCIAwAAAAAAAAAAIEEQBwAAAAAAAAAAQIIgDgAAAAAAAAAAgARBHAAAAAAAAAAAAAmCOAAAAAAAAAAAABIEcQAAAAAAAAAAACQI4gAAAAAAAAAAAEgQxAEAAAAAAAAAAJAgiAMAAAAAAAAAACBBEAcAAAAAAAAAAECCIA4AAAAAAAAAAIAEQRwAAAAAAAAAAAAJgjgAAAAAAAAAAAASBHEAAAAAAAAAAAAkCOIAAAAAAAAAAABIEMQBAAAAAAAAAACQIIgDAAAAAAAAAAAgQRAHAAAAAAAAAABAgiAOAAAAAAAAAACABEEcAAAAAAAAAAAACYI4AAAAAAAAAAAAEgRxAAAAAAAAAAAAJAjiAAAAAAAAAAAASBDEAQAAAAAAAAAAkCCIAwAAAAAAAAAAIEEQBwAAAAAAAAAAQIIgDgAAAAAAAAAAgARBHAAAAAAAAAAAAAmCOAAAAAAAAAAAABIEcQAAAAAAAAAAACQI4gAAAAAAAAAAAEgQxAEAAAAAAAAAAJAgiAMAAAAAAAAAACBBEAcAAAAAAAAAAECCIA4AAAAAAAAAAIAEQRwAAAAAAAAAAAAJgjgAAAAAAAAAAAASBHEAAAAAAAAAAAAkCOIAAAAAAAAAAABIEMQBAAAAAAAAAACQIIgDAAAAAAAAAAAgQRAHAAAAAAAAAABAgiAOAAAAAAAAAACABEEcAAAAAAAAAAAACYI4AAAAAAAAAAAAEgRxAAAAAAAAAAAAJAjiAAAAAAAAAAAASBDEAQAAAAAAAAAAkCCIAwAAAAAAAAAAIEEQBwAAAAAAAAAAQIIgDgAAAAAAAAAAgARBHAAAAAAAAAAAAAmCOAAAAAAAAAAAABIEcQAAAAAAAAAAACQI4gAAAAAAAAAAAEgQxAEAAAAAAAAAAJAgiAMAAAAAAAAAACBBEAcAAAAAAAAAAECCIA4AAAAAAAAAAIAEQRwAAAAAAAAAAAAJgjgAAAAAAAAAAAASBHEAAAAAAAAAAAAkCOIAAAAAAAAAAABIEMQBAAAAAAAAAACQIIgDAAAAAAAAAAAgQRAHAAAAAAAAAABAgiAOAAAAAAAAAACABEEcAAAAAAAAAAAACYI4AAAAAAAAAAAAEgRxAAAAAAAAAAAAJAjiAAAAAAAAAAAASBDEAQAAAAAAAAAAkCCIAwAAAAAAAAAAIEEQBwAAAAAAAAAAQIIgDgAAAAAAAAAAgARBHAAAAAAAAAAAAAmCOAAAAAAAAAAAABIEcQAAAAAAAAAAACQI4gAAAAAAAAAAAEgQxAEAAAAAAAAAAJAgiAMAAAAAAAAAACBBEAcAAAAAAAAAAECCIA4AAAAAAAAAAIAEQRwAAAAAAAAAAAAJgjgAAAAAAAAAAAASBHEAAAAAAAAAAAAkCOIAAAAAAAAAAABIEMQBAAAAAAAAAACQIIgDAAAAAAAAAAAgQRAHAAAAAAAAAABAgiAOAAAAAAAAAACABEEcAAAAAAAAAAAACYI4AAAAAAAAAAAAEgRxAAAAAAAAAAAAJAjiAAAAAAAAAAAASBDEAQAAAAAAAAAAkCCIAwAAAAAAAAAAIEEQBwAAAAAAAAAAQIIgDgAAAAAAAAAAgARBHAAAAAAAAAAAAAmCOAAAAAAAAAAAABIEcQD/Ye+OXfsoAzgOv5eGIMbFoSh0sQgu2bVj1SIOCoJjF7eO7oJYERycBBdxEpwdrG46xEVxEyFjsYuCdrXaVptzEBzEISY/eM2nz/MXfIeD4+4+3AsAAAAAAAAAQIIgDgAAAAAAAAAAgARBHAAAAAAAAAAAAAmCOAAAAAAAAAAAABIEcQAAAAAAAAAAACQI4gAAAAAAAAAAAEgQxAEAAAAAAAAAAJAgiAMAAAAAAAAAACBBEAcAAAAAAAAAAECCIA4AAAAAAAAAAIAEQRwAAAAAAAAAAAAJgjgAAAAAAAAAAAASBHEAAAAAAAAAAAAkCOIAAAAAAAAAAABIEMQBAAAAAAAAAACQIIgDAAAAAAAAAAAgQRAHAAAAAAAAAABAgiAOAAAAAAAAAACABEEcAAAAAAAAAAAACduzBwAAAADQs46tH8dYv5y9g/+vv64RAAAAANgsQRwAAAAAG/foO99dG2Ncm70DAAAAALi/ODIVAAAAAAAAAACABEEcAAAAAAAAAAAACYI4AAAAAAAAAAAAEgRxAAAAAAAAAAAAJAjiAAAAAAAAAAAASBDEAQAAAAAAAAAAkCCIAwAAAAAAAAAAIEEQBwAAAAAAAAAAQIIgDgAAAAAAAAAAgARBHAAAAAAAAAAAAAmCOAAAAAAAAAAAABIEcQAAAAAAAAAAACQI4gAAAAAAAAAAAEgQxAEAAAAAAAAAAJAgiAMAAAAAAAAAACBBEAcAAAAAAAAAAECCIA4AAAAAAAAAAIAEQRwAAAAAAAAAAAAJgjgAAAAAAAAAAAASBHEAAAAAAAAAAAAkCOIAAAAAAAAAAABIEMQBAAAAAAAAAACQIIgDAAAAAAAAAAAgQRAHAAAAAAAAAABAgiAOAAAAAAAAAACABEEcAAAAAAAAAAAACYI4AAAAAAAAAAAAEgRxAAAAAAAAAAAAJAjiAAAAAAAAAAAASBDEAQAAAAAAAAAAkCCIAwAAAAAAAAAAIEEQBwAAAAAAAAAAQIIgDgAAAAAAAAAAgARBHAAAAAAAAAAAAAmCOAAAAAAAAAAAABIEcQAAAAAAAAAAACQI4gAAAAAAAAAAAEgQxAEAAAAAAAAAAJAgiAMAAAAAAAAAACBBEAcAAAAAAAAAAECCIA4AAAAAAAAAAIAEQRwAAAAAAAAAAAAJgjgAAAAAAAAAAAASBHEAAAAAAAAAAAAkCOIAAAAAAAAAAABIEMQBAAAAAAAAAACQIIgDAAAAAAAAAAAgQRAHAAAAAAAAAABAgiAOAAAAAAAAAACABEEcAAAAAAAAAAAACYI4AAAAAAAAAAAAEgRxAAAAAAAAAAAAJAjiAAAAAAAAAAAASBDEAQAAAAAAAAAAkCCIAwAAAAAAAAAAIEEQBwAAAAAAAAAAQIIgDgAAAAAAAAAAgARBHAAAAAAAAAAAAAmCOAAAAAAAAAAAABIEcQAAAAAAAAAAACQI4gAAAAAAAAAAAEgQxAEAAAAAAAAAAJAgiAMAAAAAAAAAACBBEAcAAAAAAAAAAECCIA4AAAAAAAAAAIAEQRwAAAAAAAAAAAAJgjgAAAAAAAAAAAASBHEAAAAAAAAAAAAkCOIAAAAAAAAAAABIEMQBAAAAAAAAAACQIIgDAAAAAAAAAAAgQRAHAAAAAAAAAABAgiAOAAAAAAAAAACABEEcAAAAAAAAAAAACYI4AAAAAAAAAAAAEgRxAAAAAAAAAAAAJAjiAAAAAAAAAAAASBDEAQAAAAAAAAAAkCCIAwAAAAAAAAAAIEEQBwAAAAAAAAAAQIIgDgAAAAAAAAAAgARBHAAAAAAAAAAAAAmCOAAAAAAAAAAAABIEcQAAAAAAAAAAACQI4gAAAAAAAAAAAEgQxAEAAAAAAAAAAJAgiAMAAAAAAAAAACBBEAcAAAAAAAAAAECCIA4AAAAAAAAAAIAEQRwAAAAAAAAAAAAJgjgAAAAAAAAAAAASBHEAAAAAAAAAAAAkCOIAAAAAAAAAAABIEMQBAAAAAAAAAACQIIgDAAAAAAAAAAAgQRAHAAAAAAAAAABAgiAOAAAAAAAAAACABEEcAAAAAAAAAAAACYI4AAAAAAAAAAAAEgRxAAAAAAAAAAAAJAjiAAAAAAAAAAAASBDEAQAAAAAAAAAAkLDMHgAc31ePPfnS1lien70D4CTWMV4YY5ybvYMNWccXyzKuz54BcCLLeOPC99/8NHsGAMBRnH/2tUfubW2/OXsHwEksy/r4WJdLs3ewMT+sY3w2ewTAJm2N9dsbn7/1/uwdwNFszx4AHN8yxoV1jCuzdwDA35ZxaR3Dy0vgVFvXrXfHGII4AOBUWM/sPLysh94RAqfb6h8eMecW36+AmMNl+WSMIYiDU8KRqQAAAAAAAAAAACQI4gAAAAAAAAAAAEgQxAEAAAAAAAAAAJAgiAMAAAAAAAAAACBBEAcAAAAAAAAAAECCIA4AAAAAAAAAAIAEQRwAAAAAAAAAAAAJgjgAAAAAAAAAAAASBHEAAAAAAAAAAAAkCOIAAAAAAAAAAABIEMQBAAAAAAAAAACQIIgDAAAAAAAAAAAgQRAHAAAAAAAAAABAgiAOAAAAAAAAAACABEEcAAAAAAAAAAAACYI4AAAAAAAAAAAAEgRxAAAAAAAAAAAAJAjiAAAAAAAAAAAASBDEAQAAAAAAAAAAkCCIAwAAAAAAAAAAIEEQBwAAAAAAAAAAQIIgDgAAAAAAAAAAgARBHAAAAAAAAAAAAAmCOAAAAAAAAAAAABIEcQAAAAAAAAAAACQI4gAAAAAAAAAAAEgQxAEAAAAAAAAAAJAgiAMAAAAAAAAAACBBEAcAAAAAAAAAAECCIA4AAAAAAAAAAIAEQRwAAAAAAAAAAAAJgjgAAAAAAAAAAAASBHEAAAAAAAAAAAAkCOIAAAAAAAAAAABIEMQBAAAAAAAAAACQIIgDAAAAAAAAAAAgQRAHAAAAAAAAAABAgiAOAAAAAAAAAACABEEcAAAAAAAAAAAACYI4AAAAAAAAAAAAEgRxAAAAAAAAAAAAJAjiAAAAAAAAAAAASBDEAQAAAAAAAAAAkCCIAwAAAAAAAAAAIEEQBwAAAAAAAAAAQIIgDgAAAAAAAAAAgARBHAAAAAAAAAAAAAmCOAAAAAAAAAAAABIEcQAAAAAAAAAAACQI4gAAAAAAAAAAAEgQxAEAAAAAAAAAAJAgiAMAAAAAAAAAACBBEAcAAAAAAAAAAECCIA4AAAAAAAAAAIAEQRwAAAAAAAAAAAAJgjgAAAAAAAAAAAASBHEAAAAAAAAAAAAkCOIAAAAAAAAAAABIEMQBAAAAAAAAAACQIIgDAAAAAAAAAAAgQRAHAAAAAAAAAABAgiAOAAAAAAAAAACABEEcAAAAAAAAAAAACYI4AAAAAAAAAAAAEgRxAAAAAAAAAAAAJAjiAAAAAAAAAAAASBDEAQAAAAAAAAAAkCCIAwAAAAAAAAAAIEEQBwAAAAAAAAAAQIIgDgAAAAAAAAAAgARBHAAnMw+PAAAfY0lEQVQAAAAAAAAAAAmCOAAAAAAAAAAAABIEcQAAAAAAAAAAACQI4gAAAAAAAAAAAEgQxAEAAAAAAAAAAJAgiAMAAAAAAAAAACBBEAcAAAAAAAAAAECCIA4AAAAAAAAAAIAEQRwAAAAAAAAAAAAJgjgAAAAAAAAAAAASBHEAAAAAAAAAAAAkCOIAAAAAAAAAAABIEMQBAAAAAAAAAACQIIgDAAAAAAAAAAAgQRAHAAAAAAAAAABAgiAOAAAAAAAAAACABEEcAAAAAAAAAAAACYI4AAAAAAAAAAAAEgRxAAAAAAAAAAAAJAjiAAAAAAAAAAAASBDEAQAAAAAAAAAAkCCIAwAAAAAAAAAAIEEQBwAAAAAAAAAAQIIgDgAAAAAAAAAAgARBHAAAAAAAAAAAAAmCOAAAAAAAAAAAABIEcQAAAAAAAAAAACQI4gAAAAAAAAAAAEgQxAEAAAAAAAAAAJAgiAMAAAAAAAAAACBBEAcAAAAAAAAAAECCIA4AAAAAAAAAAICEZfYA4PgO9vZ2fh5nd2bvADiJB2799ukY4+LsHWzK+srt3Qc/nr0C4CQuHuzfWsZYZ+8AADii5ezFq7uzRwCcxO7O4cvrOj6cvYNNWfd//f3Mi7NXAGzS7hh/3Ni/env2DuBotmcPAI5v7+Dg7hjj7uwdACfx9fkL98aqOahYxnLn6YP9X2bvAAAAuI+sN/eveg4DTrXd516/4z8eJcs99yag5ubsAcB/4shUAAAAAAAAAAAAEgRxAAAAAAAAAAAAJAjiAAAAAAAAAAAASBDEAQAAAAAAAAAAkCCIAwAAAAAAAAAAIEEQBwAAAAAAAAAAQIIgDgAAAAAAAAAAgARBHAAAAAAAAAAAAAmCOAAAAAAAAAAAABIEcQAAAAAAAAAAACQI4gAAAAAAAAAAAEgQxAEAAAAAAAAAAJAgiAMAAAAAAAAAACBBEAcAAAAAAAAAAECCIA4AAAAAAAAAAIAEQRwAAAAAAAAAAAAJgjgAAAAAAAAAAAASBHEAAAAAAAAAAAAkCOIAAAAAAAAAAABIEMQBAAAAAAAAAACQIIgDAAAAAAAAAAAgQRAHAAAAAAAAAABAgiAOAAAAAAAAAACABEEcAAAAAAAAAAAACYI4AAAAAAAAAAAAEgRxAAAAAAAAAAAAJAjiAAAAAAAAAAAASBDEAQAAAAAAAAAAkCCIAwAAAAAAAAAAIEEQBwAAAAAAAAAAQIIgDgAAAAAAAAAAgITt2QMAAAAA4CguX3nv7WUdz8zewRjLOLz+0QevXp69AwAAAAD+SRAHAAAAwKmwrIdPjLE8NXsHYxyO5aHZGwAAAADg3zgyFQAAAAAAAAAAgARBHAAAAAAAAAAAAAmCOAAAAAAAAAAAABIEcQAAAAAAAAAAACQI4gAAAAAAAAAAAEgQxAEAAAAAAAAAAJAgiAMAAAAAAAAAACBBEAcAAAAAAAAAAECCIA4AAAAAAAAAAIAEQRwAAAAAAAAAAAAJgjgAAAAAAAAAAAASBHEAAAAAAAAAAAAkCOIAAAAAAAAAAABIEMQBAAAAAAAAAACQIIgDAAAAAAAAAAAgQRAHAAAAAAAAAABAgiAOAAAAAAAAAACABEEcAAAAAAAAAAAACYI4AAAAAAAAAAAAEgRxAAAAAAAAAAAAJAjiAAAAAAAAAAAASBDEAQAAAAAAAAAAkCCIAwAAAAAAAAAAIEEQBwAAAAAAAAAAQIIgDgAAAAAAAAAAgARBHAAAAAAAAAAAAAmCOAAAAAAAAAAAABIEcQAAAAAAAAAAACQI4gAAAAAAAAAAAEgQxAEAAAAAAAAAAJAgiAMAAAAAAAAAACBBEAcAAAAAAAAAAECCIA4AAAAAAAAAAIAEQRwAAAAAAAAAAAAJgjgAAAAAAAAAAAASBHEAAAAAAAAAAAAkCOIAAAAAAAAAAABIEMQBAAAAAAAAAACQIIgDAAAAAAAAAAAgQRAHAAAAAAAAAABAgiAOAAAAAAAAAACABEEcAAAAAAAAAAAACYI4AAAAAAAAAAAAEgRxAAAAAAAAAAAAJAjiAAAAAAAAAAAASBDEAQAAAAAAAAAAkCCIAwAAAAAAAAAAIEEQBwAAAAAAAAAAQIIgDgAAAAAAAAAAgARBHAAAAAAAAAAAAAmCOAAAAAAAAAAAABIEcQAAAAAAAAAAACQI4gAAAAAAAAAAAEgQxAEAAAAAAAAAAJAgiAMAAAAAAAAAACBBEAcAAAAAAAAAAECCIA4AAAAAAAAAAIAEQRwAAAAAAAAAAAAJgjgAAAAAAAAAAAASBHEAAAAAAAAAAAAkCOIAAAAAAAAAAABIEMQBAAAAAAAAAACQIIgDAAAAAAAAAAAgQRAHAAAAAAAAAABAgiAOAAAAAAAAAACABEEcAAAAAAAAAAAACYI4AAAAAAAAAAAAEgRxAAAAAAAAAAAAJAjiAAAAAAAAAAAASBDEAQAAAAAAAAAAkCCIAwAAAAAAAAAAIEEQBwAAAAAAAAAAQIIgDgAAAAAAAAAAgARBHAAAAAAAAAAAAAmCOAAAAAAAAAAAABIEcQAAAAAAAAAAACQI4gAAAAAAAAAAAEgQxAEAAAAAAAAAAJAgiAMAAAAAAAAAACBBEAcAAAAAAAAAAECCIA4AAAAAAAAAAIAEQRwAAAAAAAAAAAAJgjgAAAAAAAAAAAASBHEAAAAAAAAAAAAkCOIAAAAAAAAAAABIEMQBAAAAAAAAAACQIIgDAAAAAAAAAAAgQRAHAAAAAAAAAABAgiAOAAAAAAAAAACABEEcAAAAAAAAAAAACYI4AAAAAAAAAAAAEgRxAAAAAAAAAAAAJAjiAAAAAAAAAAAASBDEAQAAAAAAAAAAkCCIAwAAAAAAAAAAIEEQBwAAAAAAAAAAQIIgDgAAAAAAAAAAgARBHAAAAAAAAAAAAAmCOAAAAAAAAAAAABIEcQAAAAAAAAAAACQI4gAAAAAAAAAAAEgQxAEAAAAAAAAAAJAgiAMAAAAAAAAAACBBEAcAAAAAAAAAAECCIA4AAAAAAAAAAIAEQRwAAAAAAAAAAAAJgjgAAAAAAAAAAAASBHEAAAAAAAAAAAAkCOIAAAAAAAAAAABIEMQBAAAAAAAAAACQIIgDAAAAAAAAAAAgQRAHAAAAAAAAAABAgiAOAAAAAAAAAACABEEcAAAAAAAAAAAACYI4AAAAAAAAAAAAEgRxAAAAAAAAAAAAJAjiAAAAAAAAAAAASBDEAQAAAAAAAAAAkCCIAwAAAAAAAAAAIEEQBwAAAAAAAAAAQIIgDgAAAAAAAAAAgARBHAAAAAAAAAAAAAmCOAAAAAAAAAAAABIEcQAAAAAAAAAAACQI4gAAAAAAAAAAAEgQxAEAAAAAAAAAAJAgiAMAAAAAAAAAACBBEAcAAAAAAAAAAECCIA4AAAAAAAAAAIAEQRwAAAAAAAAAAAAJgjgAAAAAAAAAAAASBHEAAAAAAAAAAAAkCOIAAAAAAAAAAABIEMQBAAAAAAAAAACQIIgDAAAAAAAAAAAgQRAHAAAAAAAAAABAgiAOAAAAAAAAAACABEEcAAAAAAAAAAAACYI4AAAAAAAAAAAAEgRxAAAAAAAAAAAAJAjiAAAAAAAAAAAASBDEAQAAAAAAAAAAkCCIAwAAAAAAAAAAIEEQBwAAAAAAAAAAQIIgDgAAAAAAAAAAgARBHAAAAAAAAAAAAAmCOAAAAAAAAAAAABIEcQAAAAAAAAAAACQI4gAAAAAAAAAAAEgQxAEAAAAAAAAAAJAgiAMAAAAAAAAAACDhz/buGEXPKgzD8PuNI24gkD6NjSuwdwWWTptUwcrC1AZSD+kSLDUgbiCkSikRUtmPIEwVBmxN/FKkkxQTHHKY+7+uFTztOdzwCuIAAAAAAAAAAABIEMQBAAAAAAAAAACQIIgDAAAAAAAAAAAgQRAHAAAAAAAAAABAgiAOAAAAAAAAAACABEEcAAAAAAAAAAAACYI4AAAAAAAAAAAAEgRxAAAAAAAAAAAAJAjiAAAAAAAAAAAASBDEAQAAAAAAAAAAkCCIAwAAAAAAAAAAIEEQBwAAAAAAAAAAQIIgDgAAAAAAAAAAgARBHAAAAAAAAAAAAAmCOAAAAAAAAAAAABIEcQAAAAAAAAAAACQI4gAAAAAAAAAAAEgQxAEAAAAAAAAAAJAgiAMAAAAAAAAAACBBEAcAAAAAAAAAAECCIA4AAAAAAAAAAIAEQRwAAAAAAAAAAAAJgjgAAAAAAAAAAAASBHEAAAAAAAAAAAAkCOIAAAAAAAAAAABIEMQBAAAAAAAAAACQIIgDAAAAAAAAAAAgQRAHAAAAAAAAAABAgiAOAAAAAAAAAACABEEcAAAAAAAAAAAACYI4AAAAAAAAAAAAEgRxAAAAAAAAAAAAJAjiAAAAAAAAAAAASBDEAQAAAAAAAAAAkCCIAwAAAAAAAAAAIEEQBwAAAAAAAAAAQIIgDgAAAAAAAAAAgARBHAAAAAAAAAAAAAmCOAAAAAAAAAAAABIEcQAAAAAAAAAAACQI4gAAAAAAAAAAAEgQxAEAAAAAAAAAAJAgiAMAAAAAAAAAACBBEAcAAAAAAAAAAECCIA4AAAAAAAAAAIAEQRwAAAAAAAAAAAAJgjgAAAAAAAAAAAASBHEAAAAAAAAAAAAkCOIAAAAAAAAAAABIEMQBAAAAAAAAAACQIIgDAAAAAAAAAAAgQRAHAAAAAAAAAABAgiAOAAAAAAAAAACABEEcAAAAAAAAAAAACYI4AAAAAAAAAAAAEgRxAAAAAAAAAAAAJAjiAAAAAAAAAAAASBDEAQAAAAAAAAAAkCCIAwAAAAAAAAAAIEEQBwAAAAAAAAAAQIIgDgAAAAAAAAAAgARBHAAAAAAAAAAAAAmCOAAAAAAAAAAAABIEcQAAAAAAAAAAACQI4gAAAAAAAAAAAEgQxAEAAAAAAAAAAJAgiAMAAAAAAAAAACBBEAcAAAAAAAAAAECCIA4AAAAAAAAAAIAEQRwAAAAAAAAAAAAJgjgAAAAAAAAAAAASBHEAAAAAAAAAAAAkCOIAAAAAAAAAAABIEMQBAAAAAAAAAACQIIgDAAAAAAAAAAAgQRAHAAAAAAAAAABAgiAOAAAAAAAAAACABEEcAAAAAAAAAAAACYI4AAAAAAAAAAAAEgRxAAAAAAAAAAAAJAjiAAAAAAAAAAAASBDEAQAAAAAAAAAAkCCIAwAAAAAAAAAAIOF49QAAAAA4NCe3T7/btyNvcvhg++erF/DONnPjmzsPv1+9Awr2N9uTn3+8++fqHQAAAFDh8x0AAAA+tm27v83+2eoZAP/DzW32B6tHQMEnR/vvMyOIAwAAgCviZCoAAAAAAAAAAAAJgjgAAAAAAAAAAAASBHEAAAAAAAAAAAAkCOIAAAAAAAAAAABIEMQBAAAAAAAAAACQIIgDAAAAAAAAAAAgQRAHAAAAAAAAAABAgiAOAAAAAAAAAACABEEcAAAAAAAAAAAACYI4AAAAAAAAAAAAEgRxAAAAAAAAAAAAJAjiAAAAAAAAAAAASBDEAQAAAAAAAAAAkCCIAwAAAAAAAAAAIEEQBwAAAAAAAAAAQIIgDgAAAAAAAAAAgARBHAAAAAAAAAAAAAmCOAAAAAAAAAAAABIEcQAAAAAAAAAAACQI4gAAAAAAAAAAAEgQxAEAAAAAAAAAAJAgiAMAAAAAAAAAACBBEAcAAAAAAAAAAECCIA4AAAAAAAAAAIAEQRwAAAAAAAAAAAAJgjgAAAAAAAAAAAASBHEAAAAAAAAAAAAkCOIAAAAAAAAAAABIEMQBAAAAAAAAAACQIIgDAAAAAAAAAAAgQRAHAAAAAAAAAABAgiAOAAAAAAAAAACABEEcAAAAAAAAAAAACYI4AAAAAAAAAAAAEgRxAAAAAAAAAAAAJAjiAAAAAAAAAAAASBDEAQAAAAAAAAAAkCCIAwAAAAAAAAAAIEEQBwAAAAAAAAAAQIIgDgAAAAAAAAAAgARBHAAAAAAAAAAAAAmCOAAAAAAAAAAAABIEcQAAAAAAAAAAACQI4gAAAAAAAAAAAEgQxAEAAAAAAAAAAJAgiAMAAAAAAAAAACBBEAcAAAAAAAAAAECCIA4AAAAAAAAAAIAEQRwAAAAAAAAAAAAJgjgAAAAAAAAAAAASBHEAAAAAAAAAAAAkCOIAAAAAAAAAAABIEMQBAAAAAAAAAACQIIgDAAAAAAAAAAAgQRAHAAAAAAAAAABAgiAOAAAAAAAAAACABEEcAAAAAAAAAAAACYI4AAAAAAAAAAAAEgRxAAAAAAAAAAAAJAjiAAAAAAAAAAAASDhePQAAOGz7vr84mnm9egdX4985Ol+9AQAAAIBrZp/zfebp6hlckW17uXoCAHDYBHEAwFJfnv12b/UGAAAAAGCds2c/PJ+Z56t3AADQ4GQqAAAAAAAAAAAACYI4AAAAAAAAAAAAEgRxAAAAAAAAAAAAJAjiAAAAAAAAAAAASBDEAQAAAAAAAAAAkCCIAwAAAAAAAAAAIEEQBwAAAAAAAAAAQIIgDgAAAAAAAAAAgARBHAAAAAAAAAAAAAmCOAAAAAAAAAAAABIEcQAAAAAAAAAAACQI4gAAAAAAAAAAAEgQxAEAAAAAAAAAAJAgiAMAAAAAAAAAACBBEAcAAAAAAAAAAECCIA4AAAAAAAAAAIAEQRwAAAAAAAAAAAAJgjgAAAAAAAAAAAASBHEAAAAAAAAAAAAkCOIAAAAAAAAAAABIEMQBAAAAAAAAAACQIIgDAAAAAAAAAAAgQRAHAAAAAAAAAABAwvHqAQAAAHCAHs/Mp6tHwPWzfTWz31q9gpmZuZiZX1aPgIJ/tu2v1RsAAACgZFs9AAAAAAAu4+TO6a8z29erdzCzz/zx06Nvv1i9AwAAAAD+y8lUAAAAAAAAAAAAEgRxAAAAAAAAAAAAJAjiAAAAAAAAAAAASBDEAQAAAAAAAAAAkCCIAwAAAAAAAAAAIEEQBwAAAAAAAAAAQIIgDgAAAAAAAAAAgARBHAAAAAAAAAAAAAmCOAAAAAAAAAAAABIEcQAAAAAAAAAAACQI4gAAAAAAAAAAAEgQxAEAAAAAAAAAAJAgiAMAAAAAAAAAACBBEAcAAAAAAAAAAECCIA4AAAAAAAAAAIAEQRwAAAAAAAAAAAAJgjgAAAAAAAAAAAASBHEAAAAAAAAAAAAkCOIAAAAAAAAAAABIEMQBAAAAAAAAAACQIIgDAAAAAAAAAAAgQRAHAAAAAAAAAABAgiAOAAAAAAAAAACABEEcAAAAAAAAAAAACYI4AAAAAAAAAAAAEgRxAAAAAAAAAAAAJAjiAAAAAAAAAAAASBDEAQAAAAAAAAAAkCCIAwAAAAAAAAAAIEEQBwAAAAAAAAAAQIIgDgAAAAAAAAAAgARBHAAAAAAAAAAAAAmCOAAAAAAAAAAAABIEcQAAAAAAAAAAACQI4gAAAAAAAAAAAEgQxAEAAAAAAAAAAJAgiAMAAAAAAAAAACBBEAcAAAAAAAAAAECCIA4AAAAAAAAAAIAEQRwAAAAAAAAAAAAJgjgAAAAAAAAAAAASBHEAAAAAAAAAAAAkCOIAAAAAAAAAAABIEMQBAAAAAAAAAACQIIgDAAAAAAAAAAAgQRAHAAAAAAAAAABAgiAOAAAAAAAAAACABEEcAAAAAAAAAAAACYI4AAAAAAAAAAAAEgRxAAAAAAAAAAAAJAjiAAAAAAAAAAAASBDEAQAAAAAAAAAAkCCIAwAAAAAAAAAAIEEQBwAAAAAAAAAAQIIgDgAAAAAAAAAAgARBHAAAAAAAAAAAAAmCOAAAAAAAAAAAABIEcQAAAAAAAAAAACQI4gAAAAAAAAAAAEgQxAEAAAAAAAAAAJAgiAMAAAAAAAAAACBBEAcAAAAAAAAAAECCIA4AAAAAAAAAAIAEQRwAAAAAAAAAAAAJgjgAAAAAAAAAAAASBHEAAAAAAAAAAAAkCOIAAAAAAAAAAABIEMQBAAAAAAAAAACQIIgDAAAAAAAAAAAgQRAHAAAAAAAAAABAgiAOAAAAAAAAAACABEEcAAAAAAAAAAAACYI4AAAAAAAAAAAAEgRxAAAAAAAAAAAAJAjiAAAAAAAAAAAASBDEAQAAAAAAAAAAkCCIAwAAAAAAAAAAIEEQBwAAAAAAAAAAQIIgDgAAAAAAAAAAgARBHAAAAAAAAAAAAAmCOAAAAAAAAAAAABIEcQAAAAAAAAAAACQI4gAAAAAAAAAAAEgQxAEAAAAAAAAAAJAgiAMAAAAAAAAAACBBEAcAAAAAAAAAAECCIA4AAAAAAAAAAIAEQRwAAAAAAAAAAAAJgjgAAAAAAAAAAAASBHEAAAAAAAAAAAAkCOIAAAAAAAAAAABIEMQBAAAAAAAAAACQIIgDAAAAAAAAAAAgQRAHAAAAAAAAAABAgiAOAAAAAAAAAACABEEcAAAAAAAAAAAACYI4AAAAAAAAAAAAEgRxAAAAAAAAAAAAJAjiAAAAAAAAAAAASBDEAQAAAAAAAAAAkCCIAwAAAAAAAAAAIEEQBwAAAAAAAAAAQIIgDgAAAAAAAAAAgARBHAAAAAAAAAAAAAmCOAAAAAAAAAAAABIEcQAAAAAAAAAAACQI4gAAAAAAAAAAAEgQxAEAAAAAAAAAAJAgiAMAAAAAAAAAACBBEAcAAAAAAAAAAECCIA4AAAAAAAAAAIAEQRwAAAAAAAAAAAAJgjgAAAAAAAAAAAASBHEAAAAAAAAAAAAkCOIAAAAAAAAAAABIEMQBAAAAAAAAAACQIIgDAAAAAAAAAAAgQRAHAAAAAAAAAABAgiAOAAAAAAAAAACABEEcAAAAAAAAAAAACYI4AAAAAAAAAAAAEgRxAAAAAAAAAAAAJAjiAAAAAAAAAAAASBDEAQAAAAAAAAAAkCCIAwAAAAAAAAAAIEEQBwAAAAAAAAAAQIIgDgAAAAAAAAAAgARBHAAAAAAAAAAAAAmCOAAAAAAAAAAAABIEcQAAAAAAAAAAACQI4gAAAAAAAAAAAEgQxAEAAAAAAAAAAJAgiAMAAAAAAAAAACBBEAcAAAAAAAAAAECCIA4AAAAAAAAAAIAEQRwAAAAAAAAAAAAJgjgAAAAAAAAAAAASBHEAAAAAAAAAAAAkCOIAAAAAAAAAAABIEMQBAAAAAAAAAACQIIgDAAAAAAAAAAAgQRAHAAAAAAAAAABAgiAOAAAAAAAAAACABEEcAAAAAAAAAAAACYI4AAAAAAAAAAAAEgRxAAAAAAAAAAAAJAjiAAAAAAAAAAAASBDEAQAAAAAAAAAAkCCIAwAAAAAAAAAAIEEQBwAAAAAAAAAAQIIgDgAAAAAAAAAAgARBHAAAAAAAAAAAAAmCOAAAAAAAAAAAABIEcQAAAAAAAAAAACQI4gAAAAAAAAAAAEgQxAEAAAAAAAAAAJAgiAMAAAAAAAAAACBBEAcAAAAAAAAAAECCIA4AAAAAAAAAAIAEQRwAAAAAAAAAAAAJgjgAAAAAAAAAAAASBHEAAAAAAAAAAAAkCOIAAAAAAAAAAABIEMQBAAAAAAAAAACQIIgDAAAAAAAAAAAgQRAHAAAAAAAAAABAgiAOAAAAAAAAAACABEEcAAAAAAAAAAAACYI4AAAAAAAAAAAAEgRxAAAAAAAAAAAAJAjiAAAAAAAAAAAASBDEAQAAAAAAAAAAkCCIAwAAAAAAAAAAIEEQBwAAAAAAAAAAQIIgDgAAAAAAAAAAgARBHAAAAAAAAAAAAAmCOAAAAAAAAAAAABIEcQAAAAAAAAAAACQI4gAAAAAAAAAAAEgQxAEAAAAAAAAAAJAgiAMAAAAAAAAAACBBEAcAAAAAAAAAAECCIA4AAAAAAAAAAIAEQRwAAAAAAAAAAAAJgjgAAAAAAAAAAAASBHEAAAAAAAAAAAAkCOIAAAAAAAAAAABIEMQBAAAAAAAAAACQIIgDAAAAAAAAAAAgQRAHAAAAAAAAAABAgiAOAAAAAAAAAACABEEcAAAAAAAAAAAACYI4AAAAAAAAAAAAEgRxAAAAAAAAAAAAJAjiAAAAAAAAAAAASBDEAQAAAAAAAAAAkCCIAwAAAAAAAAAAIEEQBwAAAAAAAAAAQIIgDgAAAAAAAAAAgARBHAAAAAAAAAAAAAmCOAAAAAAAAAAAABIEcQAAAAAAAAAAACQI4gAAAAAAAAAAAEgQxAEAAAAAAAAAAJAgiAMAAAAAAAAAACBBEAcAAAAAAAAAAECCIA4AAAAAAAAAAIAEQRwAAAAAAAAAAAAJgjgAAAAAAAAAAAASBHEAAAAAAAAAAAAkCOIAAAAAAAAAAABIEMQBAAAAAAAAAACQIIgDAAAAAAAAAAAgQRAHAAAAAAAAAABAgiAOAAAAAAAAAACABEEcAAAAAAAAAAAACYI4AAAAAAAAAAAAEgRxAAAAAAAAAAAAJAjiAAAAAAAAAAAASBDEAQAAAAAAAAAAkCCIAwAAAAAAAAAAIEEQBwAAAAAAAAAAQIIgDgAAAAAAAAAAgARBHAAAAAAAAAAAAAmCOAAAAAAAAAAAABIEcQAAAAAAAAAAACQI4gAAAAAAAAAAAEgQxAEAAAAAAAAAAJAgiAMAAAAAAAAAACBBEAcAAAAAAAAAAECCIA4AAAAAAAAAAIAEQRwAAAAAAAAAAAAJgjgAAAAAAAAAAAASBHEAAAAAAAAAAAAkHK8eAAAAAACX9PfMvFo9gplt5mL1BgAAAAB4n7cDiTB175xqWwAAAABJRU5ErkJggg==;" vertex="1" parent="1">
          <mxGeometry x="920" y="290" width="60" height="59.21" as="geometry" />
        </mxCell>
        <mxCell id="sNEKoTjBMUW5g9Me4UbA-8" value="" style="sketch=0;shadow=0;dashed=0;html=1;strokeColor=none;labelPosition=center;verticalLabelPosition=bottom;verticalAlign=top;outlineConnect=0;align=center;shape=mxgraph.office.databases.database_mini_2;fillColor=#D0A49B;" vertex="1" parent="1">
          <mxGeometry x="697.51" y="480" width="35" height="42" as="geometry" />
        </mxCell>
        <mxCell id="sNEKoTjBMUW5g9Me4UbA-9" value="" style="sketch=0;shadow=0;dashed=0;html=1;strokeColor=none;labelPosition=center;verticalLabelPosition=bottom;verticalAlign=top;outlineConnect=0;align=center;shape=mxgraph.office.databases.database_mini_2;fillColor=#898C93;" vertex="1" parent="1">
          <mxGeometry x="772.51" y="480" width="35" height="42" as="geometry" />
        </mxCell>
        <mxCell id="sNEKoTjBMUW5g9Me4UbA-10" value="" style="sketch=0;shadow=0;dashed=0;html=1;strokeColor=none;labelPosition=center;verticalLabelPosition=bottom;verticalAlign=top;outlineConnect=0;align=center;shape=mxgraph.office.databases.database_mini_2;fillColor=#DDDD00;" vertex="1" parent="1">
          <mxGeometry x="847.51" y="480" width="35" height="42" as="geometry" />
        </mxCell>
        <mxCell id="sNEKoTjBMUW5g9Me4UbA-12" value="&lt;span style=&quot;font-size: 10px;&quot;&gt;&lt;b&gt;VISUALIZACIÃN&lt;/b&gt;&lt;/span&gt;" style="text;html=1;align=center;verticalAlign=middle;whiteSpace=wrap;rounded=0;labelBackgroundColor=none;" vertex="1" parent="1">
          <mxGeometry x="900" y="353" width="100" height="30" as="geometry" />
        </mxCell>
        <mxCell id="sNEKoTjBMUW5g9Me4UbA-13" value="&lt;span style=&quot;font-size: 10px;&quot;&gt;&lt;b&gt;DELTA LAKE&lt;/b&gt;&lt;/span&gt;" style="text;html=1;align=center;verticalAlign=middle;whiteSpace=wrap;rounded=0;labelBackgroundColor=none;" vertex="1" parent="1">
          <mxGeometry x="750" y="355" width="100" height="30" as="geometry" />
        </mxCell>
        <mxCell id="sNEKoTjBMUW5g9Me4UbA-14" value="&lt;span style=&quot;font-size: 10px;&quot;&gt;&lt;b&gt;DATABRICKS&lt;/b&gt;&lt;/span&gt;" style="text;html=1;align=center;verticalAlign=middle;whiteSpace=wrap;rounded=0;labelBackgroundColor=none;" vertex="1" parent="1">
          <mxGeometry x="600" y="355" width="100" height="30" as="geometry" />
        </mxCell>
        <mxCell id="sNEKoTjBMUW5g9Me4UbA-15" value="&lt;span style=&quot;font-size: 10px;&quot;&gt;&lt;span&gt;BRONCE&lt;/span&gt;&lt;/span&gt;" style="text;html=1;align=center;verticalAlign=middle;whiteSpace=wrap;rounded=0;labelBackgroundColor=none;fontColor=#D0A49B;fontStyle=0" vertex="1" parent="1">
          <mxGeometry x="665.01" y="450" width="100" height="30" as="geometry" />
        </mxCell>
        <mxCell id="sNEKoTjBMUW5g9Me4UbA-16" value="&lt;span style=&quot;font-size: 10px;&quot;&gt;&lt;span&gt;&lt;font style=&quot;color: rgb(137, 140, 147);&quot;&gt;SILVER&lt;/font&gt;&lt;/span&gt;&lt;/span&gt;" style="text;html=1;align=center;verticalAlign=middle;whiteSpace=wrap;rounded=0;labelBackgroundColor=none;fontStyle=0" vertex="1" parent="1">
          <mxGeometry x="740.01" y="450" width="100" height="30" as="geometry" />
        </mxCell>
        <mxCell id="sNEKoTjBMUW5g9Me4UbA-17" value="&lt;span style=&quot;font-size: 10px;&quot;&gt;&lt;span&gt;&lt;font style=&quot;color: rgb(221, 221, 0);&quot;&gt;GOLD&lt;/font&gt;&lt;/span&gt;&lt;/span&gt;" style="text;html=1;align=center;verticalAlign=middle;whiteSpace=wrap;rounded=0;labelBackgroundColor=none;fontStyle=0" vertex="1" parent="1">
          <mxGeometry x="815.01" y="450" width="100" height="30" as="geometry" />
        </mxCell>
        <mxCell id="sNEKoTjBMUW5g9Me4UbA-19" value="&lt;span style=&quot;font-size: 10px;&quot;&gt;&lt;b&gt;DATA LAKE&lt;/b&gt;&lt;/span&gt;" style="text;html=1;align=center;verticalAlign=middle;whiteSpace=wrap;rounded=0;labelBackgroundColor=none;" vertex="1" parent="1">
          <mxGeometry x="450" y="357" width="100" height="30" as="geometry" />
        </mxCell>
        <mxCell id="sNEKoTjBMUW5g9Me4UbA-20" value="&lt;span style=&quot;font-size: 10px;&quot;&gt;&lt;b&gt;AZURE DATA FACTORY&lt;/b&gt;&lt;/span&gt;" style="text;html=1;align=center;verticalAlign=middle;whiteSpace=wrap;rounded=0;labelBackgroundColor=none;" vertex="1" parent="1">
          <mxGeometry x="250" y="356" width="126" height="30" as="geometry" />
        </mxCell>
        <mxCell id="sNEKoTjBMUW5g9Me4UbA-21" value="&lt;span style=&quot;font-size: 10px;&quot;&gt;&lt;b&gt;SQL SERVER&lt;/b&gt;&lt;/span&gt;" style="text;html=1;align=center;verticalAlign=middle;whiteSpace=wrap;rounded=0;labelBackgroundColor=none;" vertex="1" parent="1">
          <mxGeometry x="81" y="355" width="126" height="30" as="geometry" />
        </mxCell>
        <mxCell id="sNEKoTjBMUW5g9Me4UbA-23" value="" style="rounded=0;whiteSpace=wrap;html=1;fillColor=none;dashed=1;" vertex="1" parent="1">
          <mxGeometry x="80" y="270" width="120" height="125" as="geometry" />
        </mxCell>
        <mxCell id="sNEKoTjBMUW5g9Me4UbA-24" value="" style="rounded=0;whiteSpace=wrap;html=1;fillColor=none;dashed=1;" vertex="1" parent="1">
          <mxGeometry x="240" y="270" width="760" height="125" as="geometry" />
        </mxCell>
        <mxCell id="sNEKoTjBMUW5g9Me4UbA-25" value="" style="rounded=0;whiteSpace=wrap;html=1;fillColor=none;dashed=1;" vertex="1" parent="1">
          <mxGeometry x="671.4" y="438.5" width="238.6" height="101.5" as="geometry" />
        </mxCell>
        <mxCell id="sNEKoTjBMUW5g9Me4UbA-26" value="" style="endArrow=classic;html=1;rounded=0;strokeColor=#1E9DAE;fillColor=#1E9DAE;strokeWidth=2;" edge="1" parent="1">
          <mxGeometry width="50" height="50" relative="1" as="geometry">
            <mxPoint x="180" y="332" as="sourcePoint" />
            <mxPoint x="250" y="332" as="targetPoint" />
          </mxGeometry>
        </mxCell>
        <mxCell id="sNEKoTjBMUW5g9Me4UbA-28" value="" style="endArrow=classic;html=1;rounded=0;strokeColor=#1E9DAE;fillColor=#1E9DAE;strokeWidth=2;" edge="1" parent="1">
          <mxGeometry width="50" height="50" relative="1" as="geometry">
            <mxPoint x="380" y="332" as="sourcePoint" />
            <mxPoint x="450" y="332" as="targetPoint" />
          </mxGeometry>
        </mxCell>
        <mxCell id="sNEKoTjBMUW5g9Me4UbA-29" value="" style="endArrow=classic;html=1;rounded=0;strokeColor=#1E9DAE;fillColor=#1E9DAE;strokeWidth=2;" edge="1" parent="1">
          <mxGeometry width="50" height="50" relative="1" as="geometry">
            <mxPoint x="540" y="332" as="sourcePoint" />
            <mxPoint x="610" y="332" as="targetPoint" />
          </mxGeometry>
        </mxCell>
        <mxCell id="sNEKoTjBMUW5g9Me4UbA-30" value="" style="endArrow=classic;html=1;rounded=0;strokeColor=#1E9DAE;fillColor=#1E9DAE;strokeWidth=2;" edge="1" parent="1">
          <mxGeometry width="50" height="50" relative="1" as="geometry">
            <mxPoint x="700" y="332" as="sourcePoint" />
            <mxPoint x="770" y="332" as="targetPoint" />
          </mxGeometry>
        </mxCell>
        <mxCell id="sNEKoTjBMUW5g9Me4UbA-31" value="" style="endArrow=classic;html=1;rounded=0;strokeColor=#1E9DAE;fillColor=#1E9DAE;strokeWidth=2;" edge="1" parent="1">
          <mxGeometry width="50" height="50" relative="1" as="geometry">
            <mxPoint x="850" y="332" as="sourcePoint" />
            <mxPoint x="920" y="332" as="targetPoint" />
          </mxGeometry>
        </mxCell>
        <mxCell id="sNEKoTjBMUW5g9Me4UbA-32" value="" style="endArrow=classic;html=1;rounded=0;strokeColor=#1E9DAE;fillColor=#1E9DAE;strokeWidth=2;" edge="1" parent="1">
          <mxGeometry width="50" height="50" relative="1" as="geometry">
            <mxPoint x="790.2" y="387" as="sourcePoint" />
            <mxPoint x="790.2" y="447" as="targetPoint" />
          </mxGeometry>
        </mxCell>
      </root>
    </mxGraphModel>
  </diagram>
</mxfile>
